AnekTamil-SemiBold.ufo
<glyph name="exclam" format="2">
  <advance width="497.76666666666665"/>
  <unicode hex="0021"/>
  <outline>
    <contour>
      <point x="356.56666666666666" y="413.5" type="line"/>
      <point x="386.4666666666667" y="1278.0" type="line"/>
      <point x="111.3" y="1278.0" type="line"/>
      <point x="141.58333333333334" y="413.5" type="line"/>
    </contour>
    <contour>
      <point x="249.65" y="-24.45" type="curve" smooth="yes"/>
      <point x="346.6666666666667" y="-24.45"/>
      <point x="393.1" y="29.75"/>
      <point x="393.1" y="121.93333333333334" type="curve" smooth="yes"/>
      <point x="393.1" y="132.31666666666666" type="line" smooth="yes"/>
      <point x="393.1" y="223.5"/>
      <point x="346.6666666666667" y="278.0833333333333"/>
      <point x="249.65" y="278.0833333333333" type="curve" smooth="yes"/>
      <point x="151.63333333333333" y="278.0833333333333"/>
      <point x="106.58333333333333" y="223.5"/>
      <point x="106.58333333333333" y="132.31666666666666" type="curve" smooth="yes"/>
      <point x="106.58333333333333" y="121.93333333333334" type="line" smooth="yes"/>
      <point x="106.58333333333333" y="29.75"/>
      <point x="151.63333333333333" y="-24.45"/>
    </contour>
  </outline>
</glyph>
<glyph name="numbersign" format="2">
  <advance width="1183.0666666666666"/>
  <unicode hex="0023"/>
  <outline>
    <contour>
      <point x="181.0" y="0.0" type="line"/>
      <point x="383.31666666666666" y="0.0" type="line"/>
      <point x="549.5333333333333" y="1278.0" type="line"/>
      <point x="347.21666666666664" y="1278.0" type="line"/>
    </contour>
    <contour>
      <point x="53.71666666666667" y="295.6166666666667" type="line"/>
      <point x="1071.5833333333333" y="295.6166666666667" type="line"/>
      <point x="1071.5833333333333" y="478.48333333333335" type="line"/>
      <point x="53.71666666666667" y="478.48333333333335" type="line"/>
    </contour>
    <contour>
      <point x="639.6833333333333" y="0.0" type="line"/>
      <point x="843.3833333333333" y="0.0" type="line"/>
      <point x="1004.8333333333334" y="1278.0" type="line"/>
      <point x="801.5166666666667" y="1278.0" type="line"/>
    </contour>
    <contour>
      <point x="114.1" y="799.8333333333334" type="line"/>
      <point x="1129.9666666666667" y="799.8333333333334" type="line"/>
      <point x="1129.9666666666667" y="982.7" type="line"/>
      <point x="114.1" y="982.7" type="line"/>
    </contour>
  </outline>
</glyph>
<glyph name="dollar" format="2">
  <advance width="1065.8666666666666"/>
  <unicode hex="0024"/>
  <anchor x="524.4333333333333" y="0.0" name="bottom"/>
  <anchor x="524.4333333333333" y="1278.0" name="top"/>
  <outline>
    <contour>
      <point x="638.05" y="1167.4" type="line"/>
      <point x="638.05" y="1482.0166666666667" type="line"/>
      <point x="416.9" y="1482.0166666666667" type="line"/>
      <point x="416.9" y="1167.4" type="line"/>
    </contour>
    <contour>
      <point x="638.05" y="-208.63333333333333" type="line"/>
      <point x="638.05" y="131.78333333333333" type="line"/>
      <point x="416.9" y="131.78333333333333" type="line"/>
      <point x="416.9" y="-208.63333333333333" type="line"/>
    </contour>
    <component base="S"/>
  </outline>
</glyph>
<glyph name="percent" format="2">
  <advance width="1546.2833333333333"/>
  <unicode hex="0025"/>
  <outline>
    <contour>
      <point x="268.78333333333336" y="0.0" type="line"/>
      <point x="491.5833333333333" y="0.0" type="line"/>
      <point x="1279.9666666666667" y="1278.0" type="line"/>
      <point x="1058.7" y="1278.0" type="line"/>
    </contour>
    <contour>
      <point x="1179.75" y="-29.45" type="curve" smooth="yes"/>
      <point x="1370.65" y="-29.45"/>
      <point x="1475.8666666666666" y="77.85"/>
      <point x="1475.8666666666666" y="267.9" type="curve" smooth="yes"/>
      <point x="1475.8666666666666" y="346.55" type="line" smooth="yes"/>
      <point x="1475.8666666666666" y="536.9833333333333"/>
      <point x="1370.65" y="642.2833333333333"/>
      <point x="1179.75" y="642.2833333333333" type="curve" smooth="yes"/>
      <point x="989.0833333333334" y="642.2833333333333"/>
      <point x="884.8666666666667" y="535.75"/>
      <point x="884.8666666666667" y="346.55" type="curve" smooth="yes"/>
      <point x="884.8666666666667" y="267.9" type="line" smooth="yes"/>
      <point x="884.8666666666667" y="77.08333333333333"/>
      <point x="988.4666666666667" y="-29.45"/>
    </contour>
    <contour>
      <point x="1179.75" y="127.01666666666667" type="curve" smooth="yes"/>
      <point x="1108.95" y="127.01666666666667"/>
      <point x="1071.4666666666667" y="172.26666666666668"/>
      <point x="1071.4666666666667" y="259.68333333333334" type="curve" smooth="yes"/>
      <point x="1071.4666666666667" y="353.76666666666665" type="line" smooth="yes"/>
      <point x="1071.4666666666667" y="441.18333333333334"/>
      <point x="1108.3333333333333" y="486.43333333333334"/>
      <point x="1179.75" y="486.43333333333334" type="curve" smooth="yes"/>
      <point x="1251.1666666666667" y="486.43333333333334"/>
      <point x="1288.0333333333333" y="441.18333333333334"/>
      <point x="1288.0333333333333" y="353.76666666666665" type="curve" smooth="yes"/>
      <point x="1288.0333333333333" y="259.68333333333334" type="line" smooth="yes"/>
      <point x="1288.0333333333333" y="172.26666666666668"/>
      <point x="1251.7833333333333" y="127.01666666666667"/>
    </contour>
    <contour>
      <point x="364.68333333333334" y="635.5666666666667" type="curve" smooth="yes"/>
      <point x="555.5833333333334" y="635.5666666666667"/>
      <point x="660.8" y="742.8666666666667"/>
      <point x="660.8" y="931.6833333333333" type="curve" smooth="yes"/>
      <point x="660.8" y="1010.95" type="line" smooth="yes"/>
      <point x="660.8" y="1200.15"/>
      <point x="555.5833333333334" y="1306.0666666666666"/>
      <point x="364.68333333333334" y="1306.0666666666666" type="curve" smooth="yes"/>
      <point x="173.4" y="1306.0666666666666"/>
      <point x="69.18333333333334" y="1200.15"/>
      <point x="69.18333333333334" y="1010.95" type="curve" smooth="yes"/>
      <point x="69.18333333333334" y="931.6833333333333" type="line" smooth="yes"/>
      <point x="69.18333333333334" y="741.4833333333333"/>
      <point x="173.4" y="635.5666666666667"/>
    </contour>
    <contour>
      <point x="364.68333333333334" y="791.4166666666666" type="curve" smooth="yes"/>
      <point x="293.8833333333333" y="791.4166666666666"/>
      <point x="256.4" y="836.05"/>
      <point x="256.4" y="923.4666666666667" type="curve" smooth="yes"/>
      <point x="256.4" y="1018.1666666666666" type="line" smooth="yes"/>
      <point x="256.4" y="1104.9666666666667"/>
      <point x="293.26666666666665" y="1150.8333333333333"/>
      <point x="364.68333333333334" y="1150.8333333333333" type="curve" smooth="yes"/>
      <point x="436.1" y="1150.8333333333333"/>
      <point x="472.96666666666664" y="1104.9666666666667"/>
      <point x="472.96666666666664" y="1018.1666666666666" type="curve" smooth="yes"/>
      <point x="472.96666666666664" y="923.4666666666667" type="line" smooth="yes"/>
      <point x="472.96666666666664" y="836.05"/>
      <point x="436.1" y="791.4166666666666"/>
    </contour>
  </outline>
</glyph>
<glyph name="ampersand" format="2">
  <advance width="1317.1833333333334"/>
  <unicode hex="0026"/>
  <outline>
    <contour>
      <point x="1053.9666666666667" y="0.38333333333333336" type="curve"/>
      <point x="1341.3166666666666" y="0.38333333333333336" type="line"/>
      <point x="1341.3166666666666" y="20.983333333333334" type="line"/>
      <point x="1230.0333333333333" y="142.01666666666668"/>
      <point x="1129.3333333333333" y="244.1"/>
      <point x="1019.1333333333333" y="354.1333333333333" type="curve"/>
      <point x="957.3333333333334" y="419.93333333333334" type="line"/>
      <point x="561.6166666666667" y="799.1" type="line" smooth="yes"/>
      <point x="493.05" y="865.05"/>
      <point x="459.26666666666665" y="911.4666666666667"/>
      <point x="459.26666666666665" y="968.2" type="curve" smooth="yes"/>
      <point x="459.26666666666665" y="972.4333333333333" type="line" smooth="yes"/>
      <point x="459.26666666666665" y="1043.95"/>
      <point x="506.3" y="1086.9833333333333"/>
      <point x="628.8333333333334" y="1086.9833333333333" type="curve" smooth="yes"/>
      <point x="748.1666666666666" y="1086.9833333333333"/>
      <point x="862.6166666666667" y="1055.5833333333333"/>
      <point x="952.3" y="1016.8" type="curve"/>
      <point x="928.3166666666667" y="1234.5166666666667" type="line"/>
      <point x="847.5666666666667" y="1271.9833333333333"/>
      <point x="734.1166666666667" y="1303.9166666666667"/>
      <point x="573.8166666666667" y="1303.9166666666667" type="curve" smooth="yes"/>
      <point x="317.15" y="1303.9166666666667"/>
      <point x="188.48333333333332" y="1185.2333333333333"/>
      <point x="188.48333333333332" y="993.3833333333333" type="curve" smooth="yes"/>
      <point x="188.48333333333332" y="985.6166666666667" type="line" smooth="yes"/>
      <point x="188.48333333333332" y="877.3833333333333"/>
      <point x="229.25" y="804.7"/>
      <point x="319.55" y="713.7" type="curve"/>
      <point x="360.81666666666666" y="668.7333333333333" type="line"/>
      <point x="806.7333333333333" y="252.05" type="line"/>
      <point x="841.7" y="212.4" type="line"/>
      <point x="882.7666666666667" y="170.8"/>
      <point x="1007.75" y="46.983333333333334"/>
    </contour>
    <contour>
      <point x="528.4333333333333" y="-26.683333333333334" type="curve" smooth="yes"/>
      <point x="740.4333333333333" y="-26.683333333333334"/>
      <point x="871.6666666666666" y="47.25"/>
      <point x="977.5833333333334" y="173.96666666666667" type="curve"/>
      <point x="1055.7333333333333" y="251.05" type="line"/>
      <point x="1168.3" y="400.18333333333334"/>
      <point x="1225.1333333333334" y="584.35"/>
      <point x="1249.9" y="801.3666666666667" type="curve"/>
      <point x="1000.7833333333333" y="801.3666666666667" type="line"/>
      <point x="986.9333333333333" y="649.1666666666666"/>
      <point x="954.4666666666667" y="514.3666666666667"/>
      <point x="890.9166666666666" y="401.2" type="curve"/>
      <point x="821.6666666666666" y="317.8" type="line"/>
      <point x="760.5666666666667" y="234.11666666666667"/>
      <point x="677.3" y="185.93333333333334"/>
      <point x="555.6333333333333" y="185.93333333333334" type="curve" smooth="yes"/>
      <point x="409.1166666666667" y="185.93333333333334"/>
      <point x="334.7" y="257.5"/>
      <point x="334.7" y="392.56666666666666" type="curve" smooth="yes"/>
      <point x="334.7" y="415.6666666666667" type="line" smooth="yes"/>
      <point x="334.7" y="522.4"/>
      <point x="369.3333333333333" y="580.8166666666667"/>
      <point x="453.9166666666667" y="620.9166666666666" type="curve"/>
      <point x="315.8" y="781.9166666666666" type="line"/>
      <point x="143.56666666666666" y="690.6833333333333"/>
      <point x="75.26666666666667" y="577.2333333333333"/>
      <point x="75.26666666666667" y="395.06666666666666" type="curve" smooth="yes"/>
      <point x="75.26666666666667" y="369.2" type="line" smooth="yes"/>
      <point x="75.26666666666667" y="117.83333333333333"/>
      <point x="222.86666666666667" y="-26.683333333333334"/>
    </contour>
  </outline>
</glyph>
<glyph name="quotesingle" format="2">
  <advance width="399.06666666666666"/>
  <unicode hex="0027"/>
  <outline>
    <contour>
      <point x="297.1166666666667" y="815.6666666666666" type="line"/>
      <point x="323.25" y="1322.0833333333333" type="line"/>
      <point x="75.81666666666666" y="1322.0833333333333" type="line"/>
      <point x="100.56666666666666" y="815.6666666666666" type="line"/>
    </contour>
  </outline>
</glyph>
<glyph name="parenleft" format="2">
  <advance width="626.9"/>
  <unicode hex="0028"/>
  <outline>
    <contour>
      <point x="360.78333333333336" y="593.05" type="line" smooth="yes"/>
      <point x="360.78333333333336" y="895.3333333333334"/>
      <point x="436.85" y="1130.95"/>
      <point x="600.7" y="1351.0" type="curve"/>
      <point x="342.73333333333335" y="1351.0" type="line"/>
      <point x="192.95" y="1151.9166666666667"/>
      <point x="115.05" y="917.7"/>
      <point x="115.05" y="601.5" type="curve" smooth="yes"/>
      <point x="115.05" y="503.05" type="line" smooth="yes"/>
      <point x="115.05" y="185.0"/>
      <point x="190.71666666666667" y="-48.6"/>
      <point x="340.35" y="-247.06666666666666" type="curve"/>
      <point x="600.7" y="-247.06666666666666" type="line"/>
      <point x="436.85" y="-25.78333333333333"/>
      <point x="360.78333333333336" y="209.21666666666667"/>
      <point x="360.78333333333336" y="512.1166666666667" type="curve" smooth="yes"/>
    </contour>
  </outline>
</glyph>
<glyph name="parenright" format="2">
  <advance width="628.1333333333333"/>
  <unicode hex="0029"/>
  <outline>
    <contour>
      <point x="267.35" y="593.05" type="curve" smooth="yes"/>
      <point x="267.35" y="512.1166666666667" type="line" smooth="yes"/>
      <point x="267.35" y="209.21666666666667"/>
      <point x="191.28333333333333" y="-25.78333333333333"/>
      <point x="27.43333333333333" y="-247.06666666666666" type="curve"/>
      <point x="287.78333333333336" y="-247.06666666666666" type="line"/>
      <point x="437.4166666666667" y="-48.6"/>
      <point x="513.0833333333334" y="185.0"/>
      <point x="513.0833333333334" y="503.05" type="curve" smooth="yes"/>
      <point x="513.0833333333334" y="601.5" type="line" smooth="yes"/>
      <point x="513.0833333333334" y="917.7"/>
      <point x="435.18333333333334" y="1151.9166666666667"/>
      <point x="285.4" y="1351.0" type="curve"/>
      <point x="27.43333333333333" y="1351.0" type="line"/>
      <point x="191.28333333333333" y="1130.95"/>
      <point x="267.35" y="895.3333333333334"/>
    </contour>
  </outline>
</glyph>
<glyph name="asterisk" format="2">
  <advance width="782.0333333333333"/>
  <unicode hex="002A"/>
  <outline>
    <contour>
      <point x="260.8666666666667" y="616.4" type="line"/>
      <point x="388.1333333333333" y="813.8833333333333" type="line"/>
      <point x="393.28333333333336" y="813.8833333333333" type="line"/>
      <point x="521.55" y="616.4" type="line"/>
      <point x="685.9833333333333" y="730.6333333333333" type="line"/>
      <point x="523.1166666666667" y="900.0666666666667" type="line"/>
      <point x="524.1166666666667" y="905.2166666666667" type="line"/>
      <point x="741.7" y="943.1666666666666" type="line"/>
      <point x="693.5" y="1137.2666666666667" type="line"/>
      <point x="475.76666666666665" y="1049.4166666666667" type="line"/>
      <point x="472.3833333333333" y="1052.1833333333334" type="line"/>
      <point x="498.98333333333335" y="1278.0" type="line"/>
      <point x="283.05" y="1278.0" type="line"/>
      <point x="309.65" y="1052.1833333333334" type="line"/>
      <point x="305.8833333333333" y="1049.4166666666667" type="line"/>
      <point x="88.53333333333333" y="1137.2666666666667" type="line"/>
      <point x="40.333333333333336" y="943.1666666666666" type="line"/>
      <point x="257.3" y="905.2166666666667" type="line"/>
      <point x="258.68333333333334" y="900.0666666666667" type="line"/>
      <point x="95.43333333333334" y="730.6333333333333" type="line"/>
    </contour>
  </outline>
</glyph>
<glyph name="plus" format="2">
  <advance width="1013.2"/>
  <unicode hex="002B"/>
  <outline>
    <contour>
      <point x="615.5166666666667" y="192.63333333333333" type="line"/>
      <point x="615.5166666666667" y="1047.0666666666666" type="line"/>
      <point x="398.06666666666666" y="1047.0666666666666" type="line"/>
      <point x="398.06666666666666" y="192.63333333333333" type="line"/>
    </contour>
    <contour>
      <point x="93.25" y="517.4666666666667" type="line"/>
      <point x="919.95" y="517.4666666666667" type="line"/>
      <point x="919.95" y="722.2333333333333" type="line"/>
      <point x="93.25" y="722.2333333333333" type="line"/>
    </contour>
  </outline>
</glyph>
<glyph name="comma" format="2">
  <advance width="432.65"/>
  <unicode hex="002C"/>
  <outline>
    <contour>
      <point x="337.55" y="307.3833333333333" type="curve"/>
      <point x="97.8" y="307.3833333333333" type="line"/>
      <point x="102.41666666666667" y="262.31666666666666"/>
      <point x="104.41666666666667" y="224.31666666666666"/>
      <point x="104.41666666666667" y="178.78333333333333" type="curve" smooth="yes"/>
      <point x="104.41666666666667" y="26.1"/>
      <point x="72.41666666666667" y="-94.43333333333334"/>
      <point x="9.633333333333333" y="-204.81666666666666" type="curve"/>
      <point x="186.5" y="-249.8" type="line"/>
      <point x="301.48333333333335" y="-118.5"/>
      <point x="347.55" y="21.1"/>
      <point x="347.55" y="188.7" type="curve" smooth="yes"/>
      <point x="347.55" y="234.7"/>
      <point x="341.93333333333334" y="276.93333333333334"/>
    </contour>
  </outline>
</glyph>
<glyph name="hyphen" format="2">
  <advance width="773.85"/>
  <unicode hex="002D"/>
  <outline>
    <contour>
      <point x="100.58333333333333" y="413.6333333333333" type="line"/>
      <point x="673.2666666666667" y="413.6333333333333" type="line"/>
      <point x="673.2666666666667" y="619.6333333333333" type="line"/>
      <point x="100.58333333333333" y="619.6333333333333" type="line"/>
    </contour>
  </outline>
</glyph>
<glyph name="period" format="2">
  <advance width="442.25"/>
  <unicode hex="002E"/>
  <outline>
    <contour>
      <point x="221.31666666666666" y="-24.45" type="curve" smooth="yes"/>
      <point x="318.7166666666667" y="-24.45"/>
      <point x="365.53333333333336" y="30.133333333333333"/>
      <point x="365.53333333333336" y="123.08333333333334" type="curve" smooth="yes"/>
      <point x="365.53333333333336" y="133.46666666666667" type="line" smooth="yes"/>
      <point x="365.53333333333336" y="225.41666666666669"/>
      <point x="318.7166666666667" y="280.76666666666665"/>
      <point x="221.31666666666666" y="280.76666666666665" type="curve" smooth="yes"/>
      <point x="122.15" y="280.76666666666665"/>
      <point x="76.71666666666667" y="225.41666666666669"/>
      <point x="76.71666666666667" y="133.46666666666667" type="curve" smooth="yes"/>
      <point x="76.71666666666667" y="123.08333333333334" type="line" smooth="yes"/>
      <point x="76.71666666666667" y="30.133333333333333"/>
      <point x="122.15" y="-24.45"/>
    </contour>
  </outline>
</glyph>
<glyph name="slash" format="2">
  <advance width="886.4166666666666"/>
  <unicode hex="002F"/>
  <outline>
    <contour>
      <point x="3.75" y="-245.83333333333334" type="line"/>
      <point x="234.05" y="-245.83333333333334" type="line"/>
      <point x="882.6666666666666" y="1346.0666666666666" type="line"/>
      <point x="652.9833333333333" y="1346.0666666666666" type="line"/>
    </contour>
  </outline>
</glyph>
<glyph name="zero" format="2">
  <advance width="1188.5666666666666"/>
  <unicode hex="0030"/>
  <outline>
    <contour>
      <point x="593.7833333333333" y="-27.15" type="curve" smooth="yes"/>
      <point x="927.1833333333334" y="-27.15"/>
      <point x="1098.5333333333333" y="155.83333333333334"/>
      <point x="1098.5333333333333" y="500.01666666666665" type="curve"/>
      <point x="1098.5333333333333" y="778.3666666666667" type="line"/>
      <point x="1098.5333333333333" y="1120.7833333333333"/>
      <point x="927.1833333333334" y="1304.7666666666667"/>
      <point x="593.7833333333333" y="1304.7666666666667" type="curve" smooth="yes"/>
      <point x="260.3833333333333" y="1304.7666666666667"/>
      <point x="90.03333333333333" y="1120.7833333333333"/>
      <point x="90.03333333333333" y="778.3666666666667" type="curve"/>
      <point x="90.03333333333333" y="500.01666666666665" type="line"/>
      <point x="90.03333333333333" y="155.83333333333334"/>
      <point x="261.3833333333333" y="-27.15"/>
    </contour>
    <contour>
      <point x="593.7833333333333" y="190.06666666666666" type="curve" smooth="yes"/>
      <point x="432.01666666666665" y="190.06666666666666"/>
      <point x="357.28333333333336" y="294.03333333333336"/>
      <point x="357.28333333333336" y="488.3333333333333" type="curve" smooth="yes"/>
      <point x="357.28333333333336" y="788.6666666666666" type="line" smooth="yes"/>
      <point x="357.28333333333336" y="983.5833333333334"/>
      <point x="430.6333333333333" y="1087.55"/>
      <point x="593.7833333333333" y="1087.55" type="curve" smooth="yes"/>
      <point x="756.9333333333333" y="1087.55"/>
      <point x="831.2833333333333" y="983.9666666666667"/>
      <point x="831.2833333333333" y="788.6666666666666" type="curve" smooth="yes"/>
      <point x="831.2833333333333" y="488.3333333333333" type="line" smooth="yes"/>
      <point x="831.2833333333333" y="294.03333333333336"/>
      <point x="756.9333333333333" y="190.06666666666666"/>
    </contour>
  </outline>
</glyph>
<glyph name="one" format="2">
  <advance width="712.6"/>
  <unicode hex="0031"/>
  <outline>
    <contour>
      <point x="326.45" y="0.0" type="line"/>
      <point x="587.4" y="0.0" type="line"/>
      <point x="587.4" y="1278.0" type="line"/>
      <point x="350.1666666666667" y="1278.0" type="line"/>
      <point x="46.166666666666664" y="1122.0166666666667" type="line"/>
      <point x="39.25" y="873.2" type="line"/>
      <point x="312.8333333333333" y="1011.5833333333334" type="line"/>
      <point x="326.45" y="1011.5833333333334" type="line"/>
    </contour>
  </outline>
</glyph>
<glyph name="two" format="2">
  <advance width="973.7666666666667"/>
  <unicode hex="0032"/>
  <outline>
    <contour>
      <point x="59.25" y="0.0" type="line"/>
      <point x="909.05" y="0.0" type="line"/>
      <point x="909.05" y="221.36666666666667" type="line"/>
      <point x="283.45" y="221.36666666666667" type="line"/>
      <point x="394.2" y="180.46666666666667" type="line"/>
      <point x="394.2" y="231.51666666666668" type="line"/>
      <point x="608.5333333333333" y="429.95" type="line" smooth="yes"/>
      <point x="798.4666666666667" y="604.0666666666667"/>
      <point x="893.7333333333333" y="724.1666666666666"/>
      <point x="893.7333333333333" y="917.1833333333333" type="curve" smooth="yes"/>
      <point x="893.7333333333333" y="931.1833333333333" type="line" smooth="yes"/>
      <point x="893.7333333333333" y="1166.55"/>
      <point x="748.3" y="1302.9166666666667"/>
      <point x="461.26666666666665" y="1302.9166666666667" type="curve" smooth="yes"/>
      <point x="295.81666666666666" y="1302.9166666666667"/>
      <point x="172.6" y="1258.1333333333334"/>
      <point x="90.76666666666667" y="1212.2833333333333" type="curve"/>
      <point x="67.78333333333333" y="983.0666666666666" type="line"/>
      <point x="154.63333333333333" y="1031.0833333333333"/>
      <point x="270.8666666666667" y="1077.4"/>
      <point x="399.18333333333334" y="1077.4" type="curve" smooth="yes"/>
      <point x="561.8333333333334" y="1077.4"/>
      <point x="626.4833333333333" y="1008.3666666666667"/>
      <point x="626.4833333333333" y="896.9833333333333" type="curve" smooth="yes"/>
      <point x="626.4833333333333" y="887.3666666666667" type="line" smooth="yes"/>
      <point x="626.4833333333333" y="765.0666666666667"/>
      <point x="539.9833333333333" y="676.4"/>
      <point x="374.56666666666666" y="525.5" type="curve" smooth="yes"/>
      <point x="59.25" y="239.13333333333333" type="line"/>
    </contour>
  </outline>
</glyph>
<glyph name="three" format="2">
  <advance width="1009.7833333333333"/>
  <unicode hex="0033"/>
  <outline>
    <contour>
      <point x="450.6" y="-25.3" type="curve" smooth="yes"/>
      <point x="783.7" y="-25.3"/>
      <point x="938.9" y="114.0"/>
      <point x="938.9" y="344.0" type="curve" smooth="yes"/>
      <point x="938.9" y="373.78333333333336" type="line" smooth="yes"/>
      <point x="938.9" y="544.3166666666667"/>
      <point x="864.75" y="634.7666666666667"/>
      <point x="674.8" y="665.4666666666667" type="curve"/>
      <point x="686.9333333333333" y="637.1833333333333" type="line"/>
      <point x="686.9333333333333" y="674.0833333333334" type="line"/>
      <point x="855.6" y="700.1666666666666"/>
      <point x="929.6666666666666" y="793.5666666666667"/>
      <point x="929.6666666666666" y="950.3166666666667" type="curve" smooth="yes"/>
      <point x="929.6666666666666" y="970.3166666666667" type="line" smooth="yes"/>
      <point x="929.6666666666666" y="1182.5333333333333"/>
      <point x="784.9333333333333" y="1302.9166666666667"/>
      <point x="479.3666666666667" y="1302.9166666666667" type="curve" smooth="yes"/>
      <point x="306.6" y="1302.9166666666667"/>
      <point x="180.06666666666666" y="1263.75"/>
      <point x="91.7" y="1219.4333333333334" type="curve"/>
      <point x="69.71666666666667" y="1000.5833333333334" type="line"/>
      <point x="161.95" y="1042.3"/>
      <point x="290.71666666666664" y="1083.4666666666667"/>
      <point x="431.56666666666666" y="1083.4666666666667" type="curve" smooth="yes"/>
      <point x="604.3833333333333" y="1083.4666666666667"/>
      <point x="664.1833333333333" y="1030.7333333333333"/>
      <point x="664.1833333333333" y="927.05" type="curve" smooth="yes"/>
      <point x="664.1833333333333" y="916.1166666666667" type="line" smooth="yes"/>
      <point x="664.1833333333333" y="817.1333333333333"/>
      <point x="605.2333333333333" y="763.9333333333333"/>
      <point x="441.3833333333333" y="759.9333333333333" type="curve" smooth="yes"/>
      <point x="219.88333333333333" y="754.1666666666666" type="line"/>
      <point x="219.88333333333333" y="548.7833333333333" type="line"/>
      <point x="441.15" y="544.0166666666667" type="line" smooth="yes"/>
      <point x="609.2333333333333" y="540.4"/>
      <point x="669.2666666666667" y="492.1333333333333"/>
      <point x="669.2666666666667" y="382.51666666666665" type="curve" smooth="yes"/>
      <point x="669.2666666666667" y="367.73333333333335" type="line" smooth="yes"/>
      <point x="669.2666666666667" y="259.5833333333333"/>
      <point x="607.5333333333333" y="199.38333333333333"/>
      <point x="419.4166666666667" y="199.38333333333333" type="curve" smooth="yes"/>
      <point x="277.25" y="199.38333333333333"/>
      <point x="154.4" y="237.78333333333333"/>
      <point x="60.95" y="282.8" type="curve"/>
      <point x="84.16666666666667" y="45.1" type="line"/>
      <point x="158.53333333333333" y="12.866666666666667"/>
      <point x="288.1333333333333" y="-25.3"/>
    </contour>
  </outline>
</glyph>
<glyph name="four" format="2">
  <advance width="1107.55"/>
  <unicode hex="0034"/>
  <outline>
    <contour>
      <point x="673.8666666666667" y="0.0" type="line"/>
      <point x="923.1333333333333" y="0.0" type="line"/>
      <point x="923.1333333333333" y="1278.0" type="line"/>
      <point x="503.81666666666666" y="1278.0" type="line"/>
      <point x="52.46666666666667" y="471.18333333333334" type="line"/>
      <point x="52.46666666666667" y="224.2" type="line"/>
      <point x="1075.0166666666667" y="224.2" type="line"/>
      <point x="1075.0166666666667" y="439.73333333333335" type="line"/>
      <point x="207.81666666666666" y="439.73333333333335" type="line"/>
      <point x="308.2" y="347.95" type="line"/>
      <point x="308.2" y="455.5" type="line"/>
      <point x="658.7" y="1097.6" type="line"/>
      <point x="683.9333333333333" y="1097.6" type="line"/>
      <point x="673.8666666666667" y="783.9833333333333" type="line"/>
    </contour>
  </outline>
</glyph>
<glyph name="five" format="2">
  <advance width="1076.3833333333334"/>
  <unicode hex="0035"/>
  <outline>
    <contour>
      <point x="504.6" y="-25.3" type="curve" smooth="yes"/>
      <point x="862.4166666666666" y="-25.3"/>
      <point x="1001.7333333333333" y="138.83333333333334"/>
      <point x="1001.7333333333333" y="399.8" type="curve" smooth="yes"/>
      <point x="1001.7333333333333" y="451.3" type="line" smooth="yes"/>
      <point x="1001.7333333333333" y="690.2833333333333"/>
      <point x="894.95" y="832.2833333333333"/>
      <point x="666.25" y="832.2833333333333" type="curve" smooth="yes"/>
      <point x="499.9666666666667" y="832.2833333333333"/>
      <point x="408.4166666666667" y="760.3666666666667"/>
      <point x="362.6333333333333" y="657.9333333333333" type="curve"/>
      <point x="353.48333333333335" y="657.9333333333333" type="line"/>
      <point x="356.48333333333335" y="823.25" type="line"/>
      <point x="356.48333333333335" y="1059.7" type="line"/>
      <point x="959.2833333333333" y="1059.7" type="line"/>
      <point x="959.2833333333333" y="1278.0" type="line"/>
      <point x="110.35" y="1278.0" type="line"/>
      <point x="110.35" y="536.1166666666667" type="line"/>
      <point x="336.18333333333334" y="499.6" type="line"/>
      <point x="384.1333333333333" y="574.1"/>
      <point x="455.1666666666667" y="626.2666666666667"/>
      <point x="563.2833333333333" y="626.2666666666667" type="curve" smooth="yes"/>
      <point x="689.9666666666667" y="626.2666666666667"/>
      <point x="745.0" y="560.8333333333334"/>
      <point x="745.0" y="444.15" type="curve" smooth="yes"/>
      <point x="745.0" y="403.7166666666667" type="line" smooth="yes"/>
      <point x="745.0" y="276.4166666666667"/>
      <point x="677.2666666666667" y="201.15"/>
      <point x="480.0833333333333" y="201.15" type="curve" smooth="yes"/>
      <point x="329.31666666666666" y="201.15"/>
      <point x="194.65" y="245.38333333333333"/>
      <point x="104.35" y="290.93333333333334" type="curve"/>
      <point x="128.18333333333334" y="51.25" type="line"/>
      <point x="200.63333333333333" y="16.4"/>
      <point x="333.9166666666667" y="-25.3"/>
    </contour>
  </outline>
</glyph>
<glyph name="six" format="2">
  <advance width="1130.8833333333334"/>
  <unicode hex="0036"/>
  <outline>
    <contour>
      <point x="583.25" y="-26.383333333333333" type="curve" smooth="yes"/>
      <point x="894.2666666666667" y="-26.383333333333333"/>
      <point x="1055.0833333333333" y="129.08333333333334"/>
      <point x="1055.0833333333333" y="388.3333333333333" type="curve" smooth="yes"/>
      <point x="1055.0833333333333" y="432.9166666666667" type="line" smooth="yes"/>
      <point x="1055.0833333333333" y="685.1333333333333"/>
      <point x="934.3833333333333" y="828.5166666666667"/>
      <point x="692.3833333333333" y="828.5166666666667" type="curve" smooth="yes"/>
      <point x="494.31666666666666" y="828.5166666666667"/>
      <point x="392.15" y="734.75"/>
      <point x="354.6" y="611.5166666666667" type="curve"/>
      <point x="312.4" y="611.5166666666667" type="line"/>
      <point x="337.1333333333333" y="445.26666666666665" type="line"/>
      <point x="376.06666666666666" y="557.75"/>
      <point x="473.8833333333333" y="627.8833333333333"/>
      <point x="600.4166666666666" y="627.8833333333333" type="curve" smooth="yes"/>
      <point x="747.0166666666667" y="627.8833333333333"/>
      <point x="798.8166666666667" y="551.0666666666667"/>
      <point x="798.8166666666667" y="428.0" type="curve" smooth="yes"/>
      <point x="798.8166666666667" y="391.3333333333333" type="line" smooth="yes"/>
      <point x="798.8166666666667" y="269.43333333333334"/>
      <point x="733.0833333333334" y="190.45"/>
      <point x="588.7833333333333" y="190.45" type="curve" smooth="yes"/>
      <point x="429.26666666666665" y="190.45"/>
      <point x="344.6" y="286.26666666666665"/>
      <point x="344.6" y="482.5" type="curve"/>
      <point x="344.6" y="738.2333333333333" type="line" smooth="yes"/>
      <point x="344.6" y="969.35"/>
      <point x="449.23333333333335" y="1081.6166666666666"/>
      <point x="666.6333333333333" y="1081.6166666666666" type="curve" smooth="yes"/>
      <point x="811.2666666666667" y="1081.6166666666666"/>
      <point x="910.6333333333333" y="1048.3"/>
      <point x="999.1666666666666" y="1004.5166666666667" type="curve"/>
      <point x="973.8" y="1229.3666666666666" type="line"/>
      <point x="892.5833333333334" y="1267.6"/>
      <point x="775.3" y="1302.9166666666667"/>
      <point x="617.15" y="1302.9166666666667" type="curve" smooth="yes"/>
      <point x="266.0" y="1302.9166666666667"/>
      <point x="84.65" y="1100.25"/>
      <point x="84.65" y="745.3833333333333" type="curve" smooth="yes"/>
      <point x="84.65" y="498.6" type="line" smooth="yes"/>
      <point x="84.65" y="154.6"/>
      <point x="264.31666666666666" y="-26.383333333333333"/>
    </contour>
  </outline>
</glyph>
<glyph name="seven" format="2">
  <advance width="961.9833333333333"/>
  <unicode hex="0037"/>
  <outline>
    <contour>
      <point x="180.6" y="0.0" type="line"/>
      <point x="464.76666666666665" y="0.0" type="line"/>
      <point x="906.5166666666667" y="1051.8666666666666" type="line"/>
      <point x="906.5166666666667" y="1278.0" type="line"/>
      <point x="50.78333333333333" y="1278.0" type="line"/>
      <point x="50.78333333333333" y="1057.4" type="line"/>
      <point x="632.1166666666667" y="1057.4" type="line"/>
    </contour>
  </outline>
</glyph>
<glyph name="eight" format="2">
  <advance width="1146.5333333333333"/>
  <unicode hex="0038"/>
  <outline>
    <contour>
      <point x="571.8833333333333" y="-30.45" type="curve" smooth="yes"/>
      <point x="949.6333333333333" y="-30.45"/>
      <point x="1073.0333333333333" y="122.76666666666667"/>
      <point x="1073.0333333333333" y="330.68333333333334" type="curve" smooth="yes"/>
      <point x="1073.0333333333333" y="355.9166666666667" type="line" smooth="yes"/>
      <point x="1073.0333333333333" y="531.3"/>
      <point x="984.5666666666667" y="627.6166666666667"/>
      <point x="822.6" y="664.85" type="curve"/>
      <point x="822.6" y="675.2333333333333" type="line"/>
      <point x="976.9666666666667" y="703.0"/>
      <point x="1059.65" y="793.8666666666667"/>
      <point x="1059.65" y="947.4666666666667" type="curve" smooth="yes"/>
      <point x="1059.65" y="971.7" type="line" smooth="yes"/>
      <point x="1059.65" y="1177.3833333333334"/>
      <point x="912.05" y="1305.9166666666667"/>
      <point x="571.8833333333333" y="1305.9166666666667" type="curve" smooth="yes"/>
      <point x="235.86666666666667" y="1305.9166666666667"/>
      <point x="87.5" y="1177.3833333333334"/>
      <point x="87.5" y="971.7" type="curve" smooth="yes"/>
      <point x="87.5" y="947.4666666666667" type="line" smooth="yes"/>
      <point x="87.5" y="795.7833333333333"/>
      <point x="169.8" y="702.6166666666667"/>
      <point x="323.01666666666665" y="675.2333333333333" type="curve"/>
      <point x="323.01666666666665" y="664.85" type="line"/>
      <point x="163.58333333333334" y="629.0"/>
      <point x="74.11666666666666" y="530.3833333333333"/>
      <point x="74.11666666666666" y="355.9166666666667" type="curve" smooth="yes"/>
      <point x="74.11666666666666" y="330.68333333333334" type="line" smooth="yes"/>
      <point x="74.11666666666666" y="115.46666666666667"/>
      <point x="208.96666666666667" y="-30.45"/>
    </contour>
    <contour>
      <point x="575.65" y="180.25" type="curve" smooth="yes"/>
      <point x="403.81666666666666" y="180.25"/>
      <point x="335.76666666666665" y="251.3"/>
      <point x="335.76666666666665" y="356.81666666666666" type="curve" smooth="yes"/>
      <point x="335.76666666666665" y="372.9166666666667" type="line" smooth="yes"/>
      <point x="335.76666666666665" y="473.6666666666667"/>
      <point x="408.6" y="541.1666666666666"/>
      <point x="566.35" y="563.7" type="curve"/>
      <point x="733.0166666666667" y="541.7833333333333"/>
      <point x="811.3833333333333" y="478.35"/>
      <point x="811.3833333333333" y="372.9166666666667" type="curve" smooth="yes"/>
      <point x="811.3833333333333" y="356.81666666666666" type="line" smooth="yes"/>
      <point x="811.3833333333333" y="252.68333333333334"/>
      <point x="745.7166666666667" y="180.25"/>
    </contour>
    <contour>
      <point x="579.8" y="746.8666666666667" type="curve"/>
      <point x="428.55" y="760.0833333333334"/>
      <point x="343.23333333333335" y="820.1833333333333"/>
      <point x="343.23333333333335" y="929.3333333333334" type="curve" smooth="yes"/>
      <point x="343.23333333333335" y="940.8833333333333" type="line" smooth="yes"/>
      <point x="343.23333333333335" y="1038.55"/>
      <point x="411.35" y="1102.05"/>
      <point x="571.8833333333333" y="1102.05" type="curve" smooth="yes"/>
      <point x="736.1833333333333" y="1102.05"/>
      <point x="803.9166666666666" y="1038.55"/>
      <point x="803.9166666666666" y="940.1166666666667" type="curve" smooth="yes"/>
      <point x="803.9166666666666" y="928.5666666666667" type="line" smooth="yes"/>
      <point x="803.9166666666666" y="819.4166666666666"/>
      <point x="714.3" y="758.9333333333333"/>
    </contour>
  </outline>
</glyph>
<glyph name="nine" format="2">
  <advance width="1130.8833333333334"/>
  <unicode hex="0039"/>
  <outline>
    <contour>
      <point x="549.0166666666667" y="1304.0" type="curve" smooth="yes"/>
      <point x="238.76666666666668" y="1304.0"/>
      <point x="75.8" y="1147.3833333333334"/>
      <point x="75.8" y="889.6666666666666" type="curve" smooth="yes"/>
      <point x="75.8" y="831.1" type="line" smooth="yes"/>
      <point x="75.8" y="589.25"/>
      <point x="200.56666666666666" y="446.6333333333333"/>
      <point x="446.96666666666664" y="446.6333333333333" type="curve" smooth="yes"/>
      <point x="637.5" y="446.6333333333333"/>
      <point x="738.9666666666667" y="535.8"/>
      <point x="776.2833333333333" y="663.6333333333333" type="curve"/>
      <point x="833.05" y="663.6333333333333" type="line"/>
      <point x="793.3666666666667" y="827.9666666666667" type="line"/>
      <point x="754.1333333333333" y="715.4833333333333"/>
      <point x="661.2333333333333" y="647.2666666666667"/>
      <point x="542.0833333333334" y="647.2666666666667" type="curve" smooth="yes"/>
      <point x="392.93333333333334" y="647.2666666666667"/>
      <point x="332.06666666666666" y="722.4"/>
      <point x="332.06666666666666" y="845.5333333333333" type="curve" smooth="yes"/>
      <point x="332.06666666666666" y="884.75" type="line" smooth="yes"/>
      <point x="332.06666666666666" y="1005.5"/>
      <point x="399.95" y="1087.1666666666667"/>
      <point x="545.4" y="1087.1666666666667" type="curve" smooth="yes"/>
      <point x="711.0166666666667" y="1087.1666666666667"/>
      <point x="786.2833333333333" y="993.35"/>
      <point x="786.2833333333333" y="803.2" type="curve"/>
      <point x="786.2833333333333" y="520.9333333333333" type="line" smooth="yes"/>
      <point x="786.2833333333333" y="302.5"/>
      <point x="679.5833333333334" y="196.0"/>
      <point x="448.1166666666667" y="196.0" type="curve" smooth="yes"/>
      <point x="309.78333333333336" y="196.0"/>
      <point x="214.95" y="230.08333333333334"/>
      <point x="132.63333333333333" y="272.48333333333335" type="curve"/>
      <point x="159.0" y="37.86666666666667" type="line"/>
      <point x="231.23333333333332" y="4.3999999999999995"/>
      <point x="338.45" y="-26.533333333333335"/>
      <point x="489.1333333333333" y="-26.533333333333335" type="curve" smooth="yes"/>
      <point x="859.2" y="-26.533333333333335"/>
      <point x="1046.2333333333333" y="166.6"/>
      <point x="1046.2333333333333" y="511.1" type="curve" smooth="yes"/>
      <point x="1046.2333333333333" y="777.8333333333334" type="line" smooth="yes"/>
      <point x="1046.2333333333333" y="1123.8666666666666"/>
      <point x="876.8833333333333" y="1304.0"/>
    </contour>
  </outline>
</glyph>
<glyph name="less" format="2">
  <advance width="1028.6166666666666"/>
  <unicode hex="003C"/>
  <outline>
    <contour>
      <point x="270.51666666666665" y="627.4666666666667" type="line"/>
      <point x="919.5666666666667" y="766.25" type="line"/>
      <point x="919.5666666666667" y="983.7833333333333" type="line"/>
      <point x="93.25" y="784.5" type="line"/>
      <point x="93.25" y="451.2833333333333" type="line"/>
      <point x="919.5666666666667" y="252.0" type="line"/>
      <point x="919.5666666666667" y="469.53333333333336" type="line"/>
      <point x="270.51666666666665" y="608.7" type="line"/>
    </contour>
  </outline>
</glyph>
<glyph name="equal" format="2">
  <advance width="1034.0666666666666"/>
  <unicode hex="003D"/>
  <outline>
    <contour>
      <point x="104.18333333333334" y="312.85" type="line"/>
      <point x="929.8833333333333" y="312.85" type="line"/>
      <point x="929.8833333333333" y="514.0833333333334" type="line"/>
      <point x="104.18333333333334" y="514.0833333333334" type="line"/>
    </contour>
    <contour>
      <point x="104.18333333333334" y="726.0" type="line"/>
      <point x="929.8833333333333" y="726.0" type="line"/>
      <point x="929.8833333333333" y="927.2333333333333" type="line"/>
      <point x="104.18333333333334" y="927.2333333333333" type="line"/>
    </contour>
  </outline>
</glyph>
<glyph name="greater" format="2">
  <advance width="1028.6166666666666"/>
  <unicode hex="003E"/>
  <outline>
    <contour>
      <point x="758.1" y="627.4666666666667" type="line"/>
      <point x="758.1" y="608.7" type="line"/>
      <point x="109.05" y="469.53333333333336" type="line"/>
      <point x="109.05" y="252.0" type="line"/>
      <point x="935.3666666666667" y="451.2833333333333" type="line"/>
      <point x="935.3666666666667" y="784.5" type="line"/>
      <point x="109.05" y="983.7833333333333" type="line"/>
      <point x="109.05" y="766.25" type="line"/>
    </contour>
  </outline>
</glyph>
<glyph name="question" format="2">
  <advance width="914.2666666666667"/>
  <unicode hex="003F"/>
  <outline>
    <contour>
      <point x="252.9" y="399.43333333333334" type="line"/>
      <point x="382.31666666666666" y="424.05" type="line" smooth="yes"/>
      <point x="688.5666666666667" y="482.6"/>
      <point x="845.15" y="601.2833333333333"/>
      <point x="845.15" y="870.4166666666666" type="curve" smooth="yes"/>
      <point x="845.15" y="928.3333333333334" type="line" smooth="yes"/>
      <point x="845.15" y="1170.2333333333333"/>
      <point x="707.8" y="1302.9166666666667"/>
      <point x="420.0" y="1302.9166666666667" type="curve" smooth="yes"/>
      <point x="266.8333333333333" y="1302.9166666666667"/>
      <point x="139.76666666666668" y="1262.5166666666667"/>
      <point x="66.08333333333333" y="1224.9666666666667" type="curve"/>
      <point x="37.95" y="1002.9666666666667" type="line"/>
      <point x="137.55" y="1047.9833333333333"/>
      <point x="252.18333333333334" y="1083.7"/>
      <point x="372.1333333333333" y="1083.7" type="curve" smooth="yes"/>
      <point x="526.0333333333333" y="1083.7"/>
      <point x="583.2833333333333" y="1021.8833333333333"/>
      <point x="583.2833333333333" y="907.1166666666667" type="curve" smooth="yes"/>
      <point x="583.2833333333333" y="863.9666666666667" type="line" smooth="yes"/>
      <point x="583.2833333333333" y="742.25"/>
      <point x="521.7" y="675.9833333333333"/>
      <point x="344.03333333333336" y="639.1166666666667" type="curve" smooth="yes"/>
      <point x="252.9" y="620.5" type="line"/>
    </contour>
    <contour>
      <point x="356.3" y="-24.45" type="curve" smooth="yes"/>
      <point x="453.31666666666666" y="-24.45"/>
      <point x="499.75" y="29.75"/>
      <point x="499.75" y="121.93333333333334" type="curve" smooth="yes"/>
      <point x="499.75" y="132.31666666666666" type="line" smooth="yes"/>
      <point x="499.75" y="223.5"/>
      <point x="453.31666666666666" y="278.0833333333333"/>
      <point x="356.3" y="278.0833333333333" type="curve" smooth="yes"/>
      <point x="258.2833333333333" y="278.0833333333333"/>
      <point x="213.23333333333332" y="223.5"/>
      <point x="213.23333333333332" y="132.31666666666666" type="curve" smooth="yes"/>
      <point x="213.23333333333332" y="121.93333333333334" type="line" smooth="yes"/>
      <point x="213.23333333333332" y="29.75"/>
      <point x="258.2833333333333" y="-24.45"/>
    </contour>
  </outline>
</glyph>
<glyph name="at" format="2">
  <advance width="1702.2666666666667"/>
  <unicode hex="0040"/>
  <outline>
    <contour>
      <point x="719.8166666666667" y="65.55" type="curve" smooth="yes"/>
      <point x="863.5833333333334" y="65.55"/>
      <point x="927.9833333333333" y="142.91666666666666"/>
      <point x="962.5333333333333" y="248.36666666666667" type="curve"/>
      <point x="1017.0333333333333" y="248.36666666666667" type="line"/>
      <point x="983.15" y="379.21666666666664" type="line"/>
      <point x="958.8333333333334" y="304.7"/>
      <point x="902.8666666666667" y="258.1166666666667"/>
      <point x="832.5" y="258.1166666666667" type="curve" smooth="yes"/>
      <point x="759.9833333333333" y="258.1166666666667"/>
      <point x="722.1833333333334" y="299.45"/>
      <point x="722.1833333333334" y="379.28333333333336" type="curve" smooth="yes"/>
      <point x="722.1833333333334" y="399.96666666666664"/>
      <point x="722.5666666666667" y="424.26666666666665"/>
      <point x="736.4166666666666" y="545.3166666666667" type="curve" smooth="yes"/>
      <point x="749.5" y="658.7666666666667"/>
      <point x="789.0" y="729.65"/>
      <point x="885.0666666666667" y="729.65" type="curve" smooth="yes"/>
      <point x="965.0333333333333" y="729.65"/>
      <point x="1007.4666666666667" y="679.4666666666667"/>
      <point x="1007.4666666666667" y="590.55" type="curve" smooth="yes"/>
      <point x="1007.4666666666667" y="582.9333333333333"/>
      <point x="1007.4666666666667" y="573.1666666666666"/>
      <point x="1006.4666666666667" y="563.7833333333333" type="curve"/>
      <point x="1072.7333333333333" y="734.6333333333333" type="line"/>
      <point x="1012.85" y="734.6333333333333" type="line"/>
      <point x="997.15" y="844.2333333333333"/>
      <point x="942.6666666666666" y="915.6833333333333"/>
      <point x="808.2833333333333" y="915.6833333333333" type="curve" smooth="yes"/>
      <point x="609.05" y="915.6833333333333"/>
      <point x="526.0333333333333" y="760.4"/>
      <point x="499.65" y="519.55" type="curve" smooth="yes"/>
      <point x="486.18333333333334" y="398.26666666666665"/>
      <point x="485.03333333333336" y="366.68333333333334"/>
      <point x="485.03333333333336" y="341.15" type="curve" smooth="yes"/>
      <point x="485.03333333333336" y="161.31666666666666"/>
      <point x="569.7333333333333" y="65.55"/>
    </contour>
    <contour>
      <point x="951.45" y="77.4" type="line"/>
      <point x="1170.3" y="107.45" type="line"/>
      <point x="1259.85" y="897.15" type="line"/>
      <point x="1036.6166666666666" y="897.15" type="line"/>
      <point x="1036.0" y="890.3666666666667" type="line"/>
      <point x="1019.0" y="697.8333333333334" type="line"/>
      <point x="1015.3833333333333" y="665.6166666666667" type="line"/>
      <point x="974.7666666666667" y="328.68333333333334" type="line"/>
      <point x="977.7666666666667" y="293.85" type="line"/>
    </contour>
    <contour>
      <point x="1122.5666666666666" y="252.96666666666667" type="curve"/>
      <point x="951.45" y="77.4" type="line"/>
      <point x="1003.05" y="69.4"/>
      <point x="1059.1" y="67.4"/>
      <point x="1112.6333333333334" y="68.78333333333333" type="curve" smooth="yes"/>
      <point x="1434.85" y="72.55"/>
      <point x="1570.35" y="194.23333333333332"/>
      <point x="1605.9666666666667" y="468.1166666666667" type="curve" smooth="yes"/>
      <point x="1621.6666666666667" y="587.2333333333333"/>
      <point x="1627.2833333333333" y="654.9833333333333"/>
      <point x="1629.2833333333333" y="703.5166666666667" type="curve" smooth="yes"/>
      <point x="1645.3666666666666" y="1116.0666666666666"/>
      <point x="1379.7" y="1337.6"/>
      <point x="917.7333333333333" y="1337.6" type="curve" smooth="yes"/>
      <point x="414.93333333333334" y="1337.6"/>
      <point x="156.56666666666666" y="1072.35"/>
      <point x="101.65" y="607.0333333333333" type="curve" smooth="yes"/>
      <point x="85.03333333333333" y="465.8333333333333"/>
      <point x="77.73333333333333" y="369.76666666666665"/>
      <point x="76.58333333333333" y="298.81666666666666" type="curve" smooth="yes"/>
      <point x="67.38333333333333" y="-128.78333333333333"/>
      <point x="328.26666666666665" y="-344.6166666666667"/>
      <point x="824.4166666666666" y="-344.6166666666667" type="curve" smooth="yes"/>
      <point x="1081.1" y="-344.6166666666667"/>
      <point x="1252.35" y="-295.3"/>
      <point x="1393.8833333333334" y="-231.11666666666667" type="curve"/>
      <point x="1425.7833333333333" y="-43.68333333333334" type="line"/>
      <point x="1286.1833333333334" y="-115.25"/>
      <point x="1094.8666666666666" y="-172.8"/>
      <point x="838.4833333333333" y="-172.8" type="curve" smooth="yes"/>
      <point x="453.8" y="-172.8"/>
      <point x="272.78333333333336" y="-8.166666666666664"/>
      <point x="280.45" y="308.1166666666667" type="curve" smooth="yes"/>
      <point x="281.6" y="371.68333333333334"/>
      <point x="287.3666666666667" y="454.8333333333333"/>
      <point x="309.05" y="612.65" type="curve" smooth="yes"/>
      <point x="352.9666666666667" y="939.5166666666667"/>
      <point x="517.7166666666667" y="1167.4"/>
      <point x="908.6666666666666" y="1167.4" type="curve" smooth="yes"/>
      <point x="1267.0833333333333" y="1167.4"/>
      <point x="1439.8833333333334" y="990.6"/>
      <point x="1426.5666666666666" y="702.4333333333333" type="curve" smooth="yes"/>
      <point x="1424.5666666666666" y="661.6666666666666"/>
      <point x="1417.3333333333333" y="589.0333333333333"/>
      <point x="1401.4833333333333" y="478.18333333333334" type="curve" smooth="yes"/>
      <point x="1379.55" y="323.6"/>
      <point x="1322.0" y="248.05"/>
      <point x="1197.1" y="248.05" type="curve" smooth="yes"/>
      <point x="1162.7166666666667" y="248.05"/>
      <point x="1148.7166666666667" y="249.05"/>
    </contour>
  </outline>
</glyph>
<glyph name="A" format="2">
  <advance width="1215.8"/>
  <unicode hex="0041"/>
  <anchor x="608.4" y="0.0" name="bottom"/>
  <anchor x="1218.9333333333334" y="0.0" name="ogonek"/>
  <anchor x="608.4" y="1278.0" name="top"/>
  <outline>
    <contour>
      <point x="31.65" y="0.0" type="line"/>
      <point x="296.75" y="0.0" type="line"/>
      <point x="596.55" y="1104.5166666666667" type="line"/>
      <point x="620.7833333333333" y="1104.5166666666667" type="line"/>
      <point x="919.05" y="0.0" type="line"/>
      <point x="1184.15" y="0.0" type="line"/>
      <point x="807.8666666666667" y="1278.0" type="line"/>
      <point x="409.46666666666664" y="1278.0" type="line"/>
    </contour>
    <contour>
      <point x="317.93333333333334" y="326.3333333333333" type="line"/>
      <point x="895.8666666666667" y="326.3333333333333" type="line"/>
      <point x="895.8666666666667" y="534.5" type="line"/>
      <point x="317.93333333333334" y="534.5" type="line"/>
    </contour>
  </outline>
</glyph>
<glyph name="B" format="2">
  <advance width="1198.6833333333334"/>
  <unicode hex="0042"/>
  <anchor x="600.2666666666667" y="0.0" name="bottom"/>
  <anchor x="600.2666666666667" y="1278.0" name="top"/>
  <outline>
    <contour>
      <point x="312.81666666666666" y="0.0" type="line"/>
      <point x="701.1" y="0.0" type="line" smooth="yes"/>
      <point x="1000.3666666666667" y="0.0"/>
      <point x="1128.0333333333333" y="123.85"/>
      <point x="1128.0333333333333" y="354.35" type="curve" smooth="yes"/>
      <point x="1128.0333333333333" y="386.6" type="line" smooth="yes"/>
      <point x="1128.0333333333333" y="564.8166666666667"/>
      <point x="1049.2833333333333" y="661.8"/>
      <point x="869.55" y="690.8166666666667" type="curve"/>
      <point x="869.55" y="701.2" type="line"/>
      <point x="1029.8166666666666" y="716.6"/>
      <point x="1103.0333333333333" y="800.3666666666667"/>
      <point x="1103.0333333333333" y="953.2166666666667" type="curve" smooth="yes"/>
      <point x="1103.0333333333333" y="969.6833333333333" type="line" smooth="yes"/>
      <point x="1103.0333333333333" y="1170.45"/>
      <point x="982.5166666666667" y="1278.0"/>
      <point x="686.5666666666667" y="1278.0" type="curve" smooth="yes"/>
      <point x="307.6666666666667" y="1278.0" type="line"/>
      <point x="307.6666666666667" y="1071.8333333333333" type="line"/>
      <point x="659.5166666666667" y="1071.8333333333333" type="line" smooth="yes"/>
      <point x="794.9" y="1071.8333333333333"/>
      <point x="842.6166666666667" y="1017.7166666666667"/>
      <point x="842.6166666666667" y="920.05" type="curve" smooth="yes"/>
      <point x="842.6166666666667" y="907.5" type="line" smooth="yes"/>
      <point x="842.6166666666667" y="807.9833333333333"/>
      <point x="792.4333333333333" y="751.4833333333333"/>
      <point x="660.1333333333333" y="751.4833333333333" type="curve" smooth="yes"/>
      <point x="309.51666666666665" y="751.4833333333333" type="line"/>
      <point x="309.51666666666665" y="554.7666666666667" type="line"/>
      <point x="665.5833333333334" y="554.7666666666667" type="line" smooth="yes"/>
      <point x="810.5166666666667" y="554.7666666666667"/>
      <point x="863.0833333333334" y="498.4166666666667"/>
      <point x="863.0833333333334" y="393.6666666666667" type="curve" smooth="yes"/>
      <point x="863.0833333333334" y="370.3333333333333" type="line" smooth="yes"/>
      <point x="863.0833333333334" y="266.81666666666666"/>
      <point x="810.5166666666667" y="209.85"/>
      <point x="670.5166666666667" y="209.85" type="curve" smooth="yes"/>
      <point x="312.81666666666666" y="209.85" type="line"/>
    </contour>
    <contour>
      <point x="127.43333333333334" y="0.0" type="line"/>
      <point x="381.78333333333336" y="0.0" type="line"/>
      <point x="381.78333333333336" y="1278.0" type="line"/>
      <point x="127.43333333333334" y="1278.0" type="line"/>
    </contour>
  </outline>
</glyph>
<glyph name="C" format="2">
  <advance width="1032.8833333333334"/>
  <unicode hex="0043"/>
  <anchor x="564.15" y="0.0" name="bottom"/>
  <anchor x="564.15" y="1278.0" name="top"/>
  <outline>
    <contour>
      <point x="603.25" y="-26.533333333333335" type="curve" smooth="yes"/>
      <point x="753.8" y="-26.533333333333335"/>
      <point x="870.4166666666666" y="16.016666666666666"/>
      <point x="943.7166666666667" y="62.63333333333333" type="curve"/>
      <point x="963.55" y="298.4" type="line"/>
      <point x="884.7" y="247.91666666666669"/>
      <point x="785.3666666666667" y="207.51666666666668"/>
      <point x="657.3333333333334" y="207.51666666666668" type="curve" smooth="yes"/>
      <point x="450.1666666666667" y="207.51666666666668"/>
      <point x="354.1333333333333" y="324.4"/>
      <point x="354.1333333333333" y="524.9333333333333" type="curve" smooth="yes"/>
      <point x="354.1333333333333" y="759.45" type="line" smooth="yes"/>
      <point x="354.1333333333333" y="959.9833333333333"/>
      <point x="450.55" y="1076.25"/>
      <point x="648.2666666666667" y="1076.25" type="curve" smooth="yes"/>
      <point x="779.6833333333333" y="1076.25"/>
      <point x="875.3166666666667" y="1035.0"/>
      <point x="953.55" y="988.1333333333333" type="curve"/>
      <point x="933.7166666666667" y="1218.5166666666667" type="line"/>
      <point x="859.65" y="1264.1333333333334"/>
      <point x="748.4166666666666" y="1304.5333333333333"/>
      <point x="601.7166666666667" y="1304.5333333333333" type="curve" smooth="yes"/>
      <point x="256.7" y="1304.5333333333333"/>
      <point x="86.5" y="1110.7833333333333"/>
      <point x="86.5" y="767.4333333333333" type="curve" smooth="yes"/>
      <point x="86.5" y="514.8666666666667" type="line" smooth="yes"/>
      <point x="86.5" y="167.6"/>
      <point x="255.55" y="-26.533333333333335"/>
    </contour>
  </outline>
</glyph>
<glyph name="D" format="2">
  <advance width="1221.8333333333333"/>
  <unicode hex="0044"/>
  <anchor x="597.8166666666667" y="0.0" name="bottom"/>
  <anchor x="616.35" y="639.0" name="center"/>
  <anchor x="597.8166666666667" y="1278.0" name="top"/>
  <outline>
    <contour>
      <point x="309.6666666666667" y="0.0" type="line"/>
      <point x="608.9333333333333" y="0.0" type="line" smooth="yes"/>
      <point x="962.1166666666667" y="0.0"/>
      <point x="1138.5666666666666" y="179.91666666666666"/>
      <point x="1138.5666666666666" y="506.51666666666665" type="curve" smooth="yes"/>
      <point x="1138.5666666666666" y="773.8666666666667" type="line" smooth="yes"/>
      <point x="1138.5666666666666" y="1099.0833333333333"/>
      <point x="960.7333333333333" y="1278.0"/>
      <point x="608.9333333333333" y="1278.0" type="curve" smooth="yes"/>
      <point x="309.05" y="1278.0" type="line"/>
      <point x="309.05" y="1060.4" type="line"/>
      <point x="599.6333333333333" y="1060.4" type="line" smooth="yes"/>
      <point x="782.4166666666666" y="1060.4"/>
      <point x="874.0833333333334" y="959.1166666666667"/>
      <point x="874.0833333333334" y="773.25" type="curve" smooth="yes"/>
      <point x="874.0833333333334" y="507.51666666666665" type="line" smooth="yes"/>
      <point x="874.0833333333334" y="322.26666666666665"/>
      <point x="782.4166666666666" y="219.98333333333335"/>
      <point x="599.6333333333333" y="219.98333333333335" type="curve" smooth="yes"/>
      <point x="309.6666666666667" y="219.98333333333335" type="line"/>
    </contour>
    <contour>
      <point x="127.43333333333334" y="0.0" type="line"/>
      <point x="386.3833333333333" y="0.0" type="line"/>
      <point x="386.3833333333333" y="1278.0" type="line"/>
      <point x="127.43333333333334" y="1278.0" type="line"/>
    </contour>
  </outline>
</glyph>
<glyph name="E" format="2">
  <advance width="1075.3166666666666"/>
  <unicode hex="0045"/>
  <anchor x="561.3666666666667" y="0.0" name="bottom"/>
  <anchor x="1003.1" y="0.0" name="ogonek"/>
  <anchor x="561.3666666666667" y="1278.0" name="top"/>
  <anchor x="20.0" y="1278.0" name="topleft"/>
  <outline>
    <contour>
      <point x="127.43333333333334" y="0.0" type="line"/>
      <point x="384.85" y="0.0" type="line"/>
      <point x="384.85" y="1278.0" type="line"/>
      <point x="127.43333333333334" y="1278.0" type="line"/>
    </contour>
    <contour>
      <point x="204.06666666666666" y="0.0" type="line"/>
      <point x="988.8333333333334" y="0.0" type="line"/>
      <point x="988.8333333333334" y="218.98333333333335" type="line"/>
      <point x="204.06666666666666" y="218.98333333333335" type="line"/>
    </contour>
    <contour>
      <point x="277.4666666666667" y="543.4666666666667" type="line"/>
      <point x="965.6833333333333" y="543.4666666666667" type="line"/>
      <point x="965.6833333333333" y="755.85" type="line"/>
      <point x="277.4666666666667" y="755.85" type="line"/>
    </contour>
    <contour>
      <point x="203.45" y="1060.7833333333333" type="line"/>
      <point x="981.0666666666667" y="1060.7833333333333" type="line"/>
      <point x="981.0666666666667" y="1278.0" type="line"/>
      <point x="203.45" y="1278.0" type="line"/>
    </contour>
  </outline>
</glyph>
<glyph name="F" format="2">
  <advance width="1027.0166666666667"/>
  <unicode hex="0046"/>
  <anchor x="514.2" y="0.0" name="bottom"/>
  <anchor x="514.2" y="1278.0" name="top"/>
  <outline>
    <contour>
      <point x="127.43333333333334" y="0.0" type="line"/>
      <point x="388.76666666666665" y="0.0" type="line"/>
      <point x="388.76666666666665" y="1278.0" type="line"/>
      <point x="127.43333333333334" y="1278.0" type="line"/>
    </contour>
    <contour>
      <point x="277.4666666666667" y="476.05" type="line"/>
      <point x="939.0" y="476.05" type="line"/>
      <point x="939.0" y="696.1833333333333" type="line"/>
      <point x="277.4666666666667" y="696.1833333333333" type="line"/>
    </contour>
    <contour>
      <point x="203.45" y="1057.4833333333333" type="line"/>
      <point x="954.3833333333333" y="1057.4833333333333" type="line"/>
      <point x="954.3833333333333" y="1278.0" type="line"/>
      <point x="203.45" y="1278.0" type="line"/>
    </contour>
  </outline>
</glyph>
<glyph name="G" format="2">
  <advance width="1228.9666666666667"/>
  <unicode hex="0047"/>
  <anchor x="614.0166666666667" y="0.0" name="bottom"/>
  <anchor x="614.0166666666667" y="1278.0" name="top"/>
  <outline>
    <contour>
      <point x="527.7333333333333" y="-27.15" type="curve" smooth="yes"/>
      <point x="742.8" y="-27.15"/>
      <point x="824.8166666666667" y="76.46666666666667"/>
      <point x="857.05" y="207.51666666666668" type="curve"/>
      <point x="1115.0833333333333" y="206.9" type="line"/>
      <point x="1115.0833333333333" y="738.5666666666667" type="line"/>
      <point x="635.4166666666666" y="738.5666666666667" type="line"/>
      <point x="635.4166666666666" y="530.7833333333333" type="line"/>
      <point x="897.7166666666667" y="531.55" type="line"/>
      <point x="861.9666666666667" y="613.4333333333333" type="line"/>
      <point x="861.9666666666667" y="345.3333333333333" type="line"/>
      <point x="829.9666666666667" y="263.5"/>
      <point x="754.2333333333333" y="196.6"/>
      <point x="624.9333333333333" y="196.6" type="curve" smooth="yes"/>
      <point x="440.48333333333335" y="196.6"/>
      <point x="353.75" y="303.8"/>
      <point x="353.75" y="493.1166666666667" type="curve" smooth="yes"/>
      <point x="353.75" y="736.4833333333333" type="line" smooth="yes"/>
      <point x="353.75" y="966.9666666666667"/>
      <point x="464.23333333333335" y="1080.7833333333333"/>
      <point x="703.8666666666667" y="1080.7833333333333" type="curve" smooth="yes"/>
      <point x="864.4833333333333" y="1080.7833333333333"/>
      <point x="987.3333333333334" y="1036.0"/>
      <point x="1085.1666666666667" y="986.3666666666667" type="curve"/>
      <point x="1062.5666666666666" y="1212.1333333333334" type="line"/>
      <point x="971.4333333333334" y="1260.75"/>
      <point x="833.0666666666667" y="1304.5333333333333"/>
      <point x="653.6833333333333" y="1304.5333333333333" type="curve" smooth="yes"/>
      <point x="281.9166666666667" y="1304.5333333333333"/>
      <point x="86.5" y="1109.1666666666667"/>
      <point x="86.5" y="748.15" type="curve" smooth="yes"/>
      <point x="86.5" y="494.03333333333336" type="line" smooth="yes"/>
      <point x="86.5" y="163.98333333333332"/>
      <point x="235.11666666666667" y="-27.15"/>
    </contour>
    <contour>
      <point x="869.4333333333333" y="263.23333333333335" type="line"/>
      <point x="860.05" y="0.0" type="line"/>
      <point x="1115.0833333333333" y="0.0" type="line"/>
      <point x="1115.0833333333333" y="263.23333333333335" type="line"/>
    </contour>
  </outline>
</glyph>
<glyph name="H" format="2">
  <advance width="1282.75"/>
  <unicode hex="0048"/>
  <anchor x="641.5666666666667" y="0.0" name="bottom"/>
  <anchor x="641.5666666666667" y="639.0" name="center"/>
  <anchor x="641.5666666666667" y="1278.0" name="top"/>
  <anchor x="20.0" y="1278.0" name="topleft"/>
  <outline>
    <contour>
      <point x="390.53333333333336" y="0.0" type="line"/>
      <point x="390.53333333333336" y="1278.0" type="line"/>
      <point x="127.43333333333334" y="1278.0" type="line"/>
      <point x="127.43333333333334" y="0.0" type="line"/>
    </contour>
    <contour>
      <point x="1155.3166666666666" y="0.0" type="line"/>
      <point x="1155.3166666666666" y="1278.0" type="line"/>
      <point x="892.2166666666667" y="1278.0" type="line"/>
      <point x="892.2166666666667" y="0.0" type="line"/>
    </contour>
    <contour>
      <point x="278.4666666666667" y="765.3833333333333" type="line"/>
      <point x="278.4666666666667" y="546.0166666666667" type="line"/>
      <point x="992.0666666666667" y="546.0166666666667" type="line"/>
      <point x="992.0666666666667" y="765.3833333333333" type="line"/>
    </contour>
  </outline>
</glyph>
<glyph name="I" format="2">
  <advance width="519.2"/>
  <unicode hex="0049"/>
  <anchor x="259.48333333333335" y="0.0" name="bottom"/>
  <anchor x="425.78333333333336" y="0.0" name="ogonek"/>
  <anchor x="259.8666666666667" y="1278.0" name="top"/>
  <anchor x="20.0" y="1278.0" name="topleft"/>
  <outline>
    <contour>
      <point x="391.15" y="0.0" type="line"/>
      <point x="391.15" y="1278.0" type="line"/>
      <point x="128.05" y="1278.0" type="line"/>
      <point x="128.05" y="0.0" type="line"/>
    </contour>
  </outline>
</glyph>
<glyph name="J" format="2">
  <advance width="828.1333333333333"/>
  <unicode hex="004A"/>
  <anchor x="416.98333333333335" y="0.0" name="bottom"/>
  <anchor x="575.8833333333333" y="1278.0" name="top"/>
  <outline>
    <contour>
      <point x="302.4" y="-18.533333333333335" type="curve" smooth="yes"/>
      <point x="596.4166666666666" y="-18.533333333333335"/>
      <point x="709.3166666666667" y="126.75"/>
      <point x="709.3166666666667" y="405.0" type="curve" smooth="yes"/>
      <point x="709.3166666666667" y="1278.0" type="line"/>
      <point x="446.21666666666664" y="1278.0" type="line"/>
      <point x="446.21666666666664" y="420.8333333333333" type="line" smooth="yes"/>
      <point x="446.21666666666664" y="276.55"/>
      <point x="399.8833333333333" y="207.6"/>
      <point x="243.53333333333333" y="207.6" type="curve" smooth="yes"/>
      <point x="175.51666666666665" y="207.6"/>
      <point x="110.88333333333333" y="221.45"/>
      <point x="46.95" y="246.23333333333335" type="curve"/>
      <point x="66.16666666666667" y="20.7" type="line"/>
      <point x="133.16666666666666" y="-5.533333333333333"/>
      <point x="218.55" y="-18.533333333333335"/>
    </contour>
  </outline>
</glyph>
<glyph name="K" format="2">
  <advance width="1181.5833333333333"/>
  <unicode hex="004B"/>
  <anchor x="602.4833333333333" y="0.0" name="bottom"/>
  <anchor x="602.4833333333333" y="1278.0" name="top"/>
  <outline>
    <contour>
      <point x="859.2333333333333" y="0.0" type="line"/>
      <point x="1164.7666666666667" y="0.0" type="line"/>
      <point x="679.3833333333333" y="697.35" type="line"/>
      <point x="680.0" y="637.0833333333334" type="line"/>
      <point x="1151.3833333333334" y="1278.0" type="line"/>
      <point x="854.0" y="1278.0" type="line"/>
      <point x="467.28333333333336" y="741.05" type="line"/>
      <point x="364.18333333333334" y="741.05" type="line"/>
      <point x="364.18333333333334" y="566.3333333333334" type="line"/>
      <point x="467.28333333333336" y="566.3333333333334" type="line"/>
    </contour>
    <contour>
      <point x="127.43333333333334" y="0.0" type="line"/>
      <point x="387.76666666666665" y="0.0" type="line"/>
      <point x="387.76666666666665" y="1278.0" type="line"/>
      <point x="127.43333333333334" y="1278.0" type="line"/>
    </contour>
  </outline>
</glyph>
<glyph name="L" format="2">
  <advance width="998.1666666666666"/>
  <unicode hex="004C"/>
  <anchor x="527.15" y="0.0" name="bottom"/>
  <anchor x="460.31666666666666" y="643.3166666666667" name="center"/>
  <anchor x="259.48333333333335" y="1278.0" name="top"/>
  <anchor x="658.0166666666667" y="1278.0" name="topright"/>
  <outline>
    <contour>
      <point x="390.53333333333336" y="0.0" type="line"/>
      <point x="390.53333333333336" y="1278.0" type="line"/>
      <point x="127.43333333333334" y="1278.0" type="line"/>
      <point x="127.43333333333334" y="0.0" type="line"/>
    </contour>
    <contour>
      <point x="275.0" y="221.36666666666667" type="line"/>
      <point x="275.0" y="0.0" type="line"/>
      <point x="943.85" y="0.0" type="line"/>
      <point x="943.85" y="221.36666666666667" type="line"/>
    </contour>
  </outline>
</glyph>
<glyph name="M" format="2">
  <advance width="1553.85"/>
  <unicode hex="004D"/>
  <anchor x="777.2333333333333" y="0.0" name="bottom"/>
  <anchor x="777.2333333333333" y="1278.0" name="top"/>
  <outline>
    <contour>
      <point x="110.88333333333333" y="0.0" type="line"/>
      <point x="365.3" y="0.0" type="line"/>
      <point x="375.85" y="459.4" type="line"/>
      <point x="387.4" y="991.1" type="line"/>
      <point x="403.4" y="991.1" type="line"/>
      <point x="655.15" y="149.15" type="line"/>
      <point x="898.7" y="149.15" type="line"/>
      <point x="1150.0666666666666" y="991.1" type="line"/>
      <point x="1165.6833333333334" y="991.1" type="line"/>
      <point x="1177.0" y="460.4" type="line"/>
      <point x="1188.55" y="0.0" type="line"/>
      <point x="1442.9666666666667" y="0.0" type="line"/>
      <point x="1400.4166666666667" y="1278.0" type="line"/>
      <point x="1023.35" y="1278.0" type="line"/>
      <point x="783.6166666666667" y="464.8666666666667" type="line"/>
      <point x="770.6166666666667" y="464.8666666666667" type="line"/>
      <point x="530.8833333333333" y="1278.0" type="line"/>
      <point x="153.43333333333334" y="1278.0" type="line"/>
    </contour>
  </outline>
</glyph>
<glyph name="N" format="2">
  <advance width="1282.75"/>
  <unicode hex="004E"/>
  <anchor x="645.3333333333334" y="0.0" name="bottom"/>
  <anchor x="645.3333333333334" y="1278.0" name="top"/>
  <outline>
    <contour>
      <point x="499.8833333333333" y="1278.3833333333334" type="line"/>
      <point x="127.43333333333334" y="1278.3833333333334" type="line"/>
      <point x="127.43333333333334" y="0.0" type="line"/>
      <point x="379.1666666666667" y="0.0" type="line"/>
      <point x="379.1666666666667" y="447.55" type="line"/>
      <point x="368.1" y="1009.9" type="line"/>
      <point x="380.8666666666667" y="1009.9" type="line"/>
      <point x="792.9333333333333" y="0.0" type="line"/>
      <point x="1155.3166666666666" y="0.0" type="line"/>
      <point x="1155.3166666666666" y="1278.3833333333334" type="line"/>
      <point x="903.9666666666667" y="1278.3833333333334" type="line"/>
      <point x="903.9666666666667" y="830.95" type="line"/>
      <point x="915.0333333333333" y="285.85" type="line"/>
      <point x="902.2666666666667" y="285.85" type="line"/>
    </contour>
  </outline>
</glyph>
<glyph name="O" format="2">
  <advance width="1244.6666666666667"/>
  <unicode hex="004F"/>
  <anchor x="622.3333333333334" y="0.0" name="bottom"/>
  <anchor x="622.3333333333334" y="639.0" name="center"/>
  <anchor x="920.4666666666667" y="5.0" name="ogonek"/>
  <anchor x="622.3333333333334" y="1278.0" name="top"/>
  <anchor x="5.616666666666666" y="1278.0" name="topleft"/>
  <anchor x="1126.4666666666667" y="1278.0" name="topright"/>
  <outline>
    <contour>
      <point x="622.3333333333334" y="-28.683333333333334" type="curve" smooth="yes"/>
      <point x="976.4166666666666" y="-28.683333333333334"/>
      <point x="1158.1666666666667" y="161.61666666666667"/>
      <point x="1158.1666666666667" y="506.28333333333336" type="curve" smooth="yes"/>
      <point x="1158.1666666666667" y="766.2" type="line" smooth="yes"/>
      <point x="1158.1666666666667" y="1111.0166666666667"/>
      <point x="975.2666666666667" y="1305.15"/>
      <point x="622.3333333333334" y="1305.15" type="curve" smooth="yes"/>
      <point x="268.78333333333336" y="1305.15"/>
      <point x="86.5" y="1111.0166666666667"/>
      <point x="86.5" y="766.2" type="curve" smooth="yes"/>
      <point x="86.5" y="506.28333333333336" type="line" smooth="yes"/>
      <point x="86.5" y="161.61666666666667"/>
      <point x="267.6333333333333" y="-28.683333333333334"/>
    </contour>
    <contour>
      <point x="622.3333333333334" y="188.53333333333333" type="curve" smooth="yes"/>
      <point x="442.3333333333333" y="188.53333333333333"/>
      <point x="353.75" y="299.43333333333334"/>
      <point x="353.75" y="494.45" type="curve" smooth="yes"/>
      <point x="353.75" y="778.4166666666666" type="line" smooth="yes"/>
      <point x="353.75" y="977.8833333333333"/>
      <point x="442.3333333333333" y="1088.7"/>
      <point x="622.3333333333334" y="1088.7" type="curve" smooth="yes"/>
      <point x="801.3333333333334" y="1088.7"/>
      <point x="890.9166666666666" y="977.8833333333333"/>
      <point x="890.9166666666666" y="778.4166666666666" type="curve" smooth="yes"/>
      <point x="890.9166666666666" y="494.45" type="line" smooth="yes"/>
      <point x="890.9166666666666" y="299.43333333333334"/>
      <point x="801.3333333333334" y="188.53333333333333"/>
    </contour>
  </outline>
</glyph>
<glyph name="P" format="2">
  <advance width="1160.45"/>
  <unicode hex="0050"/>
  <anchor x="579.1833333333333" y="0.0" name="bottom"/>
  <anchor x="579.1833333333333" y="1278.0" name="top"/>
  <outline>
    <contour>
      <point x="302.3666666666667" y="384.31666666666666" type="line"/>
      <point x="644.2666666666667" y="384.31666666666666" type="line" smooth="yes"/>
      <point x="953.75" y="384.31666666666666"/>
      <point x="1093.5666666666666" y="529.2333333333333"/>
      <point x="1093.5666666666666" y="787.1833333333333" type="curve" smooth="yes"/>
      <point x="1093.5666666666666" y="875.3666666666667" type="line" smooth="yes"/>
      <point x="1093.5666666666666" y="1131.9333333333334"/>
      <point x="954.3666666666667" y="1278.0"/>
      <point x="644.1166666666667" y="1278.0" type="curve" smooth="yes"/>
      <point x="301.75" y="1278.0" type="line"/>
      <point x="301.75" y="1065.0833333333333" type="line"/>
      <point x="629.3833333333333" y="1065.0833333333333" type="line" smooth="yes"/>
      <point x="772.05" y="1065.0833333333333"/>
      <point x="833.0" y="997.7333333333333"/>
      <point x="833.0" y="868.0666666666667" type="curve" smooth="yes"/>
      <point x="833.0" y="794.8666666666667" type="line" smooth="yes"/>
      <point x="833.0" y="667.05"/>
      <point x="772.05" y="598.2333333333333"/>
      <point x="628.15" y="598.2333333333333" type="curve" smooth="yes"/>
      <point x="302.3666666666667" y="598.2333333333333" type="line"/>
    </contour>
    <contour>
      <point x="127.43333333333334" y="0.0" type="line"/>
      <point x="386.0" y="0.0" type="line"/>
      <point x="386.0" y="418.21666666666664" type="line"/>
      <point x="384.6166666666667" y="536.9666666666667" type="line"/>
      <point x="384.6166666666667" y="1278.0" type="line"/>
      <point x="127.43333333333334" y="1278.0" type="line"/>
    </contour>
  </outline>
</glyph>
<glyph name="Q" format="2">
  <advance width="1245.9"/>
  <unicode hex="0051"/>
  <anchor x="623.3333333333334" y="0.0" name="bottom"/>
  <anchor x="623.3333333333334" y="1278.0" name="top"/>
  <outline>
    <contour>
      <point x="1243.3" y="-48.516666666666666" type="line"/>
      <point x="1243.3" y="177.46666666666667" type="line"/>
      <point x="875.7" y="166.31666666666666" type="line"/>
      <point x="875.7" y="177.46666666666667" type="line"/>
      <point x="1047.2333333333333" y="207.08333333333334"/>
      <point x="1157.7833333333333" y="322.85"/>
      <point x="1157.7833333333333" y="560.1333333333333" type="curve" smooth="yes"/>
      <point x="1157.7833333333333" y="767.35" type="line" smooth="yes"/>
      <point x="1157.7833333333333" y="1111.4"/>
      <point x="974.8833333333333" y="1305.15"/>
      <point x="622.3333333333334" y="1305.15" type="curve" smooth="yes"/>
      <point x="268.78333333333336" y="1305.15"/>
      <point x="86.5" y="1111.4"/>
      <point x="86.5" y="766.5833333333334" type="curve" smooth="yes"/>
      <point x="86.5" y="512.8" type="line" smooth="yes"/>
      <point x="86.5" y="165.15"/>
      <point x="266.1" y="-13.616666666666667"/>
      <point x="693.55" y="-29.066666666666666" type="curve" smooth="yes"/>
    </contour>
    <contour>
      <point x="651.8" y="190.3" type="line" smooth="yes"/>
      <point x="464.4" y="197.38333333333333"/>
      <point x="353.75" y="302.8833333333333"/>
      <point x="353.75" y="502.1166666666667" type="curve" smooth="yes"/>
      <point x="353.75" y="777.65" type="line" smooth="yes"/>
      <point x="353.75" y="977.1166666666667"/>
      <point x="442.3333333333333" y="1087.9333333333334"/>
      <point x="622.3333333333334" y="1087.9333333333334" type="curve" smooth="yes"/>
      <point x="801.3333333333334" y="1087.9333333333334"/>
      <point x="890.9166666666666" y="977.1166666666667"/>
      <point x="890.9166666666666" y="777.65" type="curve" smooth="yes"/>
      <point x="890.9166666666666" y="509.78333333333336" type="line" smooth="yes"/>
      <point x="890.9166666666666" y="316.0833333333333"/>
      <point x="798.6166666666667" y="220.45"/>
      <point x="680.7833333333333" y="189.3" type="curve"/>
    </contour>
  </outline>
</glyph>
<glyph name="R" format="2">
  <advance width="1188.6833333333334"/>
  <unicode hex="0052"/>
  <anchor x="604.65" y="0.0" name="bottom"/>
  <anchor x="595.0333333333333" y="1278.0" name="top"/>
  <outline>
    <contour>
      <point x="854.0833333333334" y="0.0" type="line"/>
      <point x="1124.1833333333334" y="0.0" type="line"/>
      <point x="1084.6333333333334" y="279.0833333333333" type="line" smooth="yes"/>
      <point x="1055.7833333333333" y="485.3666666666667"/>
      <point x="1000.5666666666667" y="595.6833333333333"/>
      <point x="772.8166666666667" y="612.0666666666667" type="curve"/>
      <point x="846.0833333333334" y="575.7833333333333" type="line"/>
      <point x="846.0833333333334" y="611.75" type="line"/>
      <point x="1022.9166666666666" y="630.4666666666667"/>
      <point x="1101.2666666666667" y="731.7166666666667"/>
      <point x="1101.2666666666667" y="899.85" type="curve" smooth="yes"/>
      <point x="1101.2666666666667" y="928.4" type="line" smooth="yes"/>
      <point x="1101.2666666666667" y="1151.5333333333333"/>
      <point x="969.6" y="1278.0"/>
      <point x="669.1166666666667" y="1278.0" type="curve" smooth="yes"/>
      <point x="306.28333333333336" y="1278.0" type="line"/>
      <point x="306.28333333333336" y="1066.2333333333333" type="line"/>
      <point x="631.5333333333333" y="1066.2333333333333" type="line" smooth="yes"/>
      <point x="779.75" y="1066.2333333333333"/>
      <point x="838.4666666666667" y="1000.1166666666667"/>
      <point x="838.4666666666667" y="876.15" type="curve" smooth="yes"/>
      <point x="838.4666666666667" y="852.3666666666667" type="line" smooth="yes"/>
      <point x="838.4666666666667" y="726.55"/>
      <point x="779.6" y="657.35"/>
      <point x="634.0" y="657.35" type="curve" smooth="yes"/>
      <point x="309.1333333333333" y="656.35" type="line"/>
      <point x="309.1333333333333" y="453.8833333333333" type="line"/>
      <point x="617.9833333333333" y="452.8833333333333" type="line" smooth="yes"/>
      <point x="765.2833333333333" y="452.26666666666665"/>
      <point x="809.9" y="382.3666666666667"/>
      <point x="825.45" y="249.03333333333333" type="curve" smooth="yes"/>
    </contour>
    <contour>
      <point x="127.43333333333334" y="0.0" type="line"/>
      <point x="384.85" y="0.0" type="line"/>
      <point x="384.85" y="486.8666666666667" type="line"/>
      <point x="383.4666666666667" y="584.4833333333333" type="line"/>
      <point x="383.4666666666667" y="1278.0" type="line"/>
      <point x="127.43333333333334" y="1278.0" type="line"/>
    </contour>
  </outline>
</glyph>
<glyph name="S" format="2">
  <advance width="1065.8666666666666"/>
  <unicode hex="0053"/>
  <anchor x="524.4333333333333" y="0.0" name="bottom"/>
  <anchor x="524.4333333333333" y="1278.0" name="top"/>
  <outline>
    <contour>
      <point x="510.45" y="-25.916666666666668" type="curve" smooth="yes"/>
      <point x="835.85" y="-25.916666666666668"/>
      <point x="994.9833333333333" y="100.53333333333333"/>
      <point x="994.9833333333333" y="348.03333333333336" type="curve" smooth="yes"/>
      <point x="994.9833333333333" y="365.73333333333335" type="line" smooth="yes"/>
      <point x="994.9833333333333" y="596.7166666666667"/>
      <point x="872.7833333333333" y="672.0333333333333"/>
      <point x="602.3" y="746.6333333333333" type="curve" smooth="yes"/>
      <point x="387.85" y="805.25"/>
      <point x="334.3666666666667" y="851.2833333333333"/>
      <point x="334.3666666666667" y="941.8166666666667" type="curve" smooth="yes"/>
      <point x="334.3666666666667" y="945.4333333333333" type="line" smooth="yes"/>
      <point x="334.3666666666667" y="1032.35"/>
      <point x="391.1" y="1083.3166666666666"/>
      <point x="560.6166666666667" y="1083.3166666666666" type="curve" smooth="yes"/>
      <point x="713.25" y="1083.3166666666666"/>
      <point x="842.55" y="1043.3833333333334"/>
      <point x="943.3833333333333" y="990.45" type="curve"/>
      <point x="920.4" y="1220.6" type="line"/>
      <point x="830.65" y="1264.6"/>
      <point x="700.5" y="1303.9166666666667"/>
      <point x="517.35" y="1303.9166666666667" type="curve" smooth="yes"/>
      <point x="220.46666666666667" y="1303.9166666666667"/>
      <point x="67.88333333333333" y="1179.85"/>
      <point x="67.88333333333333" y="956.2666666666667" type="curve" smooth="yes"/>
      <point x="67.88333333333333" y="944.35" type="line" smooth="yes"/>
      <point x="67.88333333333333" y="723.0666666666667"/>
      <point x="191.23333333333332" y="629.1333333333333"/>
      <point x="467.18333333333334" y="554.3833333333333" type="curve" smooth="yes"/>
      <point x="662.4833333333333" y="501.76666666666665"/>
      <point x="727.7333333333333" y="462.96666666666664"/>
      <point x="727.7333333333333" y="362.81666666666666" type="curve" smooth="yes"/>
      <point x="727.7333333333333" y="352.03333333333336" type="line" smooth="yes"/>
      <point x="727.7333333333333" y="250.03333333333333"/>
      <point x="656.15" y="201.06666666666666"/>
      <point x="486.4" y="201.06666666666666" type="curve" smooth="yes"/>
      <point x="323.93333333333334" y="201.06666666666666"/>
      <point x="176.86666666666667" y="252.53333333333333"/>
      <point x="72.71666666666667" y="306.55" type="curve"/>
      <point x="96.31666666666666" y="59.333333333333336" type="line"/>
      <point x="185.83333333333334" y="18.25"/>
      <point x="330.75" y="-25.916666666666668"/>
    </contour>
  </outline>
</glyph>
<glyph name="T" format="2">
  <advance width="1101.3"/>
  <unicode hex="0054"/>
  <anchor x="550.65" y="0.0" name="bottom"/>
  <anchor x="550.65" y="639.0" name="center"/>
  <anchor x="550.65" y="1278.0" name="top"/>
  <outline>
    <contour>
      <point x="419.6" y="0.0" type="line"/>
      <point x="682.7" y="0.0" type="line"/>
      <point x="682.7" y="1229.2" type="line"/>
      <point x="419.6" y="1229.2" type="line"/>
    </contour>
    <contour>
      <point x="56.25" y="1059.0166666666667" type="line"/>
      <point x="1045.05" y="1059.0166666666667" type="line"/>
      <point x="1045.05" y="1278.0" type="line"/>
      <point x="56.25" y="1278.0" type="line"/>
    </contour>
  </outline>
</glyph>
<glyph name="U" format="2">
  <advance width="1262.75"/>
  <unicode hex="0055"/>
  <anchor x="631.5666666666667" y="0.0" name="bottom"/>
  <anchor x="915.1" y="5.0" name="ogonek"/>
  <anchor x="631.5666666666667" y="1278.0" name="top"/>
  <anchor x="1247.5" y="1278.0" name="topright"/>
  <outline>
    <contour>
      <point x="631.5666666666667" y="-28.683333333333334" type="curve" smooth="yes"/>
      <point x="982.9666666666667" y="-28.683333333333334"/>
      <point x="1144.9333333333334" y="146.68333333333334"/>
      <point x="1144.9333333333334" y="479.03333333333336" type="curve" smooth="yes"/>
      <point x="1144.9333333333334" y="1278.0" type="line"/>
      <point x="881.8333333333334" y="1278.0" type="line"/>
      <point x="881.8333333333334" y="473.4166666666667" type="line" smooth="yes"/>
      <point x="881.8333333333334" y="289.26666666666665"/>
      <point x="806.8833333333333" y="193.3"/>
      <point x="631.5666666666667" y="193.3" type="curve" smooth="yes"/>
      <point x="455.8666666666667" y="193.3"/>
      <point x="380.9166666666667" y="289.26666666666665"/>
      <point x="380.9166666666667" y="473.4166666666667" type="curve" smooth="yes"/>
      <point x="380.9166666666667" y="1278.0" type="line"/>
      <point x="117.81666666666666" y="1278.0" type="line"/>
      <point x="117.81666666666666" y="479.03333333333336" type="line" smooth="yes"/>
      <point x="117.81666666666666" y="146.68333333333334"/>
      <point x="280.78333333333336" y="-28.683333333333334"/>
    </contour>
  </outline>
</glyph>
<glyph name="V" format="2">
  <advance width="1191.1166666666666"/>
  <unicode hex="0056"/>
  <anchor x="595.8666666666667" y="0.0" name="bottom"/>
  <anchor x="595.8666666666667" y="1278.0" name="top"/>
  <outline>
    <contour>
      <point x="395.1666666666667" y="0.0" type="line"/>
      <point x="796.95" y="0.0" type="line"/>
      <point x="1159.4666666666667" y="1278.0" type="line"/>
      <point x="887.3666666666667" y="1278.0" type="line"/>
      <point x="607.25" y="195.85" type="line"/>
      <point x="583.8666666666667" y="195.85" type="line"/>
      <point x="304.1333333333333" y="1278.0" type="line"/>
      <point x="31.65" y="1278.0" type="line"/>
    </contour>
  </outline>
</glyph>
<glyph name="W" format="2">
  <advance width="1689.8"/>
  <unicode hex="0057"/>
  <anchor x="845.4" y="0.0" name="bottom"/>
  <anchor x="845.4" y="1278.0" name="top"/>
  <outline>
    <contour>
      <point x="284.7833333333333" y="0.0" type="line"/>
      <point x="670.6166666666667" y="0.0" type="line"/>
      <point x="788.0333333333333" y="735.3333333333334" type="line"/>
      <point x="837.4" y="1031.3166666666666" type="line"/>
      <point x="853.4" y="1031.3166666666666" type="line"/>
      <point x="902.3833333333333" y="735.3333333333334" type="line"/>
      <point x="1021.1833333333333" y="0.0" type="line"/>
      <point x="1406.4" y="0.0" type="line"/>
      <point x="1642.5333333333333" y="1278.0" type="line"/>
      <point x="1377.5833333333333" y="1278.0" type="line"/>
      <point x="1237.6666666666667" y="396.3666666666667" type="line"/>
      <point x="1206.7833333333333" y="219.36666666666667" type="line"/>
      <point x="1189.4" y="219.36666666666667" type="line"/>
      <point x="1158.9833333333333" y="396.75" type="line"/>
      <point x="1016.3166666666667" y="1247.9166666666667" type="line"/>
      <point x="674.4833333333333" y="1247.9166666666667" type="line"/>
      <point x="530.8166666666667" y="396.75" type="line"/>
      <point x="500.4" y="219.36666666666667" type="line"/>
      <point x="483.6333333333333" y="219.36666666666667" type="line"/>
      <point x="453.1333333333333" y="396.75" type="line"/>
      <point x="313.98333333333335" y="1278.0" type="line"/>
      <point x="47.266666666666666" y="1278.0" type="line"/>
    </contour>
  </outline>
</glyph>
<glyph name="X" format="2">
  <advance width="1177.6666666666667"/>
  <unicode hex="0058"/>
  <anchor x="589.3333333333334" y="0.0" name="bottom"/>
  <anchor x="589.3333333333334" y="1278.0" name="top"/>
  <outline>
    <contour>
      <point x="33.11666666666667" y="0.0" type="line"/>
      <point x="319.51666666666665" y="0.0" type="line"/>
      <point x="581.1833333333333" y="514.2666666666667" type="line"/>
      <point x="596.7166666666667" y="514.2666666666667" type="line"/>
      <point x="858.15" y="0.0" type="line"/>
      <point x="1144.55" y="0.0" type="line"/>
      <point x="778.5666666666667" y="691.9" type="line"/>
      <point x="778.5666666666667" y="635.4" type="line"/>
      <point x="1133.6333333333334" y="1278.0" type="line"/>
      <point x="852.7666666666667" y="1278.0" type="line"/>
      <point x="596.7166666666667" y="797.2" type="line"/>
      <point x="581.8" y="797.2" type="line"/>
      <point x="325.51666666666665" y="1278.0" type="line"/>
      <point x="44.65" y="1278.0" type="line"/>
      <point x="399.3333333333333" y="635.4" type="line"/>
      <point x="399.3333333333333" y="691.9" type="line"/>
    </contour>
  </outline>
</glyph>
<glyph name="Y" format="2">
  <advance width="1144.5833333333333"/>
  <unicode hex="0059"/>
  <anchor x="572.1" y="0.0" name="bottom"/>
  <anchor x="572.1" y="1278.0" name="top"/>
  <anchor x="20.0" y="1278.0" name="topleft"/>
  <outline>
    <contour>
      <point x="456.96666666666664" y="351.3" type="line"/>
      <point x="688.6166666666667" y="351.3" type="line"/>
      <point x="1125.7" y="1278.0" type="line"/>
      <point x="850.45" y="1278.0" type="line"/>
      <point x="664.1166666666667" y="857.0833333333334" type="line"/>
      <point x="579.8666666666667" y="647.2333333333333" type="line"/>
      <point x="565.3333333333334" y="647.2333333333333" type="line"/>
      <point x="481.0833333333333" y="857.0833333333334" type="line"/>
      <point x="293.75" y="1278.0" type="line"/>
      <point x="18.5" y="1278.0" type="line"/>
    </contour>
    <contour>
      <point x="443.81666666666666" y="0.0" type="line"/>
      <point x="701.7666666666667" y="0.0" type="line"/>
      <point x="701.7666666666667" y="589.4333333333334" type="line"/>
      <point x="443.81666666666666" y="589.4333333333334" type="line"/>
    </contour>
  </outline>
</glyph>
<glyph name="Z" format="2">
  <advance width="1062.7833333333333"/>
  <unicode hex="005A"/>
  <anchor x="532.2" y="0.0" name="bottom"/>
  <anchor x="532.2" y="639.0" name="center"/>
  <anchor x="532.2" y="1278.0" name="top"/>
  <outline>
    <contour>
      <point x="992.9833333333333" y="219.98333333333335" type="line"/>
      <point x="373.7166666666667" y="219.98333333333335" type="line"/>
      <point x="983.8333333333334" y="1073.7" type="line"/>
      <point x="983.8333333333334" y="1278.0" type="line"/>
      <point x="77.56666666666666" y="1278.0" type="line"/>
      <point x="77.56666666666666" y="1059.6333333333334" type="line"/>
      <point x="679.3833333333333" y="1059.6333333333334" type="line"/>
      <point x="70.03333333333333" y="206.3" type="line"/>
      <point x="70.03333333333333" y="0.0" type="line"/>
      <point x="992.9833333333333" y="0.0" type="line"/>
    </contour>
  </outline>
</glyph>
<glyph name="bracketleft" format="2">
  <advance width="630.2666666666667"/>
  <unicode hex="005B"/>
  <outline>
    <contour>
      <point x="128.81666666666666" y="-247.06666666666666" type="line"/>
      <point x="577.95" y="-247.06666666666666" type="line"/>
      <point x="577.95" y="-58.81666666666666" type="line"/>
      <point x="366.01666666666665" y="-58.81666666666666" type="line"/>
      <point x="366.01666666666665" y="1162.75" type="line"/>
      <point x="577.95" y="1162.75" type="line"/>
      <point x="577.95" y="1351.0" type="line"/>
      <point x="128.81666666666666" y="1351.0" type="line"/>
    </contour>
  </outline>
</glyph>
<glyph name="backslash" format="2">
  <advance width="886.4166666666666"/>
  <unicode hex="005C"/>
  <outline>
    <contour>
      <point x="882.6666666666666" y="-245.83333333333334" type="line"/>
      <point x="233.43333333333334" y="1346.0666666666666" type="line"/>
      <point x="3.75" y="1346.0666666666666" type="line"/>
      <point x="652.3666666666667" y="-245.83333333333334" type="line"/>
    </contour>
  </outline>
</glyph>
<glyph name="bracketright" format="2">
  <advance width="630.2666666666667"/>
  <unicode hex="005D"/>
  <outline>
    <contour>
      <point x="501.45" y="-247.06666666666666" type="line"/>
      <point x="501.45" y="1351.0" type="line"/>
      <point x="52.31666666666666" y="1351.0" type="line"/>
      <point x="52.31666666666666" y="1162.75" type="line"/>
      <point x="264.25" y="1162.75" type="line"/>
      <point x="264.25" y="-58.81666666666666" type="line"/>
      <point x="52.31666666666666" y="-58.81666666666666" type="line"/>
      <point x="52.31666666666666" y="-247.06666666666666" type="line"/>
    </contour>
  </outline>
</glyph>
<glyph name="asciicircum" format="2">
  <advance width="886.5166666666667"/>
  <unicode hex="005E"/>
  <outline>
    <contour>
      <point x="276.3833333333333" y="1278.0" type="line"/>
      <point x="36.11666666666667" y="610.0833333333334" type="line"/>
      <point x="254.8" y="610.0833333333334" type="line"/>
      <point x="436.3333333333333" y="1133.9333333333334" type="line"/>
      <point x="450.3333333333333" y="1133.9333333333334" type="line"/>
      <point x="632.1" y="610.0833333333334" type="line"/>
      <point x="850.4" y="610.0833333333334" type="line"/>
      <point x="609.5166666666667" y="1278.0" type="line"/>
    </contour>
  </outline>
</glyph>
<glyph name="underscore" format="2">
  <advance width="890.1833333333333"/>
  <unicode hex="005F"/>
  <outline>
    <contour>
      <point x="41.95" y="-252.13333333333333" type="line"/>
      <point x="848.2333333333333" y="-252.13333333333333" type="line"/>
      <point x="848.2333333333333" y="-53.75" type="line"/>
      <point x="41.95" y="-53.75" type="line"/>
    </contour>
  </outline>
</glyph>
<glyph name="grave" format="2">
  <advance width="646.3666666666667"/>
  <unicode hex="0060"/>
  <anchor x="442.8333333333333" y="980.6833333333333" name="_top"/>
  <anchor x="440.98333333333335" y="1347.1833333333334" name="top"/>
  <outline>
    <contour>
      <point x="374.48333333333335" y="1371.0666666666666" type="line"/>
      <point x="102.51666666666667" y="1371.0666666666666" type="line"/>
      <point x="102.51666666666667" y="1367.6833333333334" type="line"/>
      <point x="339.73333333333335" y="1086.1" type="line"/>
      <point x="555.8166666666667" y="1086.1" type="line"/>
      <point x="555.8166666666667" y="1089.1" type="line"/>
    </contour>
  </outline>
</glyph>
<glyph name="a" format="2">
  <advance width="1030.75"/>
  <unicode hex="0061"/>
  <anchor x="510.48333333333335" y="0.0" name="bottom"/>
  <anchor x="967.65" y="0.0" name="ogonek"/>
  <anchor x="510.48333333333335" y="980.6833333333333" name="top"/>
  <outline>
    <contour>
      <point x="680.2166666666667" y="0.0" type="line"/>
      <point x="933.4833333333333" y="0.0" type="line"/>
      <point x="933.4833333333333" y="605.9" type="line" smooth="yes"/>
      <point x="933.4833333333333" y="844.7166666666667"/>
      <point x="825.95" y="1004.8333333333334"/>
      <point x="503.5" y="1004.8333333333334" type="curve" smooth="yes"/>
      <point x="341.5" y="1004.8333333333334"/>
      <point x="213.51666666666668" y="960.4333333333333"/>
      <point x="126.23333333333333" y="915.2" type="curve"/>
      <point x="104.01666666666667" y="710.95" type="line"/>
      <point x="203.76666666666668" y="757.1166666666667"/>
      <point x="322.53333333333336" y="799.2833333333333"/>
      <point x="457.0833333333333" y="799.2833333333333" type="curve" smooth="yes"/>
      <point x="615.7333333333333" y="799.2833333333333"/>
      <point x="681.45" y="740.6333333333333"/>
      <point x="681.45" y="612.8666666666667" type="curve"/>
      <point x="681.9833333333333" y="568.85" type="line"/>
      <point x="681.9833333333333" y="261.6166666666667" type="line"/>
      <point x="688.9833333333333" y="239.66666666666666" type="line"/>
    </contour>
    <contour>
      <point x="359.18333333333334" y="-22.766666666666666" type="curve" smooth="yes"/>
      <point x="565.7333333333333" y="-22.766666666666666"/>
      <point x="646.3666666666667" y="77.93333333333334"/>
      <point x="677.6" y="203.91666666666666" type="curve"/>
      <point x="721.65" y="203.91666666666666" type="line"/>
      <point x="685.8333333333334" y="330.7" type="line"/>
      <point x="659.8333333333334" y="246.16666666666666"/>
      <point x="582.7833333333333" y="177.03333333333333"/>
      <point x="451.93333333333334" y="177.03333333333333" type="curve" smooth="yes"/>
      <point x="353.8833333333333" y="177.03333333333333"/>
      <point x="309.23333333333335" y="220.13333333333333"/>
      <point x="309.23333333333335" y="293.03333333333336" type="curve" smooth="yes"/>
      <point x="309.23333333333335" y="303.2" type="line" smooth="yes"/>
      <point x="309.23333333333335" y="377.25"/>
      <point x="350.8833333333333" y="412.35"/>
      <point x="464.03333333333336" y="428.2833333333333" type="curve" smooth="yes"/>
      <point x="719.5833333333334" y="464.8333333333333" type="line"/>
      <point x="704.75" y="629.8333333333334" type="line"/>
      <point x="427.23333333333335" y="591.6666666666666" type="line" smooth="yes"/>
      <point x="172.33333333333334" y="557.05"/>
      <point x="60.18333333333334" y="476.28333333333336"/>
      <point x="60.18333333333334" y="286.06666666666666" type="curve" smooth="yes"/>
      <point x="60.18333333333334" y="257.98333333333335" type="line" smooth="yes"/>
      <point x="60.18333333333334" y="78.53333333333333"/>
      <point x="164.65" y="-22.766666666666666"/>
    </contour>
  </outline>
</glyph>
<glyph name="b" format="2">
  <advance width="1111.3"/>
  <unicode hex="0062"/>
  <anchor x="565.1833333333333" y="0.0" name="bottom"/>
  <anchor x="565.1833333333333" y="1322.0833333333333" name="top"/>
  <outline>
    <contour>
      <point x="671.7166666666667" y="-22.766666666666666" type="curve" smooth="yes"/>
      <point x="912.1" y="-22.766666666666666"/>
      <point x="1033.8833333333334" y="131.91666666666666"/>
      <point x="1033.8833333333334" y="426.26666666666665" type="curve" smooth="yes"/>
      <point x="1033.8833333333334" y="562.1" type="line" smooth="yes"/>
      <point x="1033.8833333333334" y="852.6833333333333"/>
      <point x="911.5666666666667" y="1003.45"/>
      <point x="680.8666666666667" y="1003.45" type="curve" smooth="yes"/>
      <point x="487.55" y="1003.45"/>
      <point x="403.6166666666667" y="901.15"/>
      <point x="372.9166666666667" y="773.1666666666666" type="curve"/>
      <point x="301.2" y="773.1666666666666" type="line"/>
      <point x="358.76666666666665" y="635.3333333333334" type="line"/>
      <point x="383.85" y="727.25"/>
      <point x="464.2" y="797.3"/>
      <point x="578.8166666666667" y="797.3" type="curve" smooth="yes"/>
      <point x="708.35" y="797.3"/>
      <point x="775.9333333333333" y="721.95"/>
      <point x="775.9333333333333" y="574.65" type="curve" smooth="yes"/>
      <point x="775.9333333333333" y="415.8" type="line" smooth="yes"/>
      <point x="775.9333333333333" y="265.8"/>
      <point x="707.2" y="189.68333333333334"/>
      <point x="579.2833333333333" y="189.68333333333334" type="curve" smooth="yes"/>
      <point x="451.45" y="189.68333333333334"/>
      <point x="368.0" y="263.4"/>
      <point x="362.9166666666667" y="404.01666666666665" type="curve"/>
      <point x="297.1" y="207.51666666666668" type="line"/>
      <point x="369.76666666666665" y="207.51666666666668" type="line"/>
      <point x="402.0833333333333" y="67.91666666666667"/>
      <point x="495.56666666666666" y="-22.766666666666666"/>
    </contour>
    <contour>
      <point x="111.73333333333333" y="0.0" type="line"/>
      <point x="367.53333333333336" y="0.0" type="line"/>
      <point x="358.76666666666665" y="239.73333333333335" type="line"/>
      <point x="362.9166666666667" y="300.5833333333333" type="line"/>
      <point x="362.9166666666667" y="690.4833333333333" type="line"/>
      <point x="361.9166666666667" y="720.65" type="line"/>
      <point x="366.9166666666667" y="1020.4333333333333" type="line"/>
      <point x="366.9166666666667" y="1322.0833333333333" type="line"/>
      <point x="111.73333333333333" y="1322.0833333333333" type="line"/>
    </contour>
  </outline>
</glyph>
<glyph name="c" format="2">
  <advance width="884.5"/>
  <unicode hex="0063"/>
  <anchor x="489.68333333333334" y="0.0" name="bottom"/>
  <anchor x="489.68333333333334" y="980.6833333333333" name="top"/>
  <outline>
    <contour>
      <point x="521.1333333333333" y="-24.533333333333335" type="curve" smooth="yes"/>
      <point x="642.6" y="-24.533333333333335"/>
      <point x="743.8166666666667" y="8.483333333333333"/>
      <point x="809.4166666666666" y="46.333333333333336" type="curve"/>
      <point x="830.25" y="262.3333333333333" type="line"/>
      <point x="760.1" y="221.93333333333334"/>
      <point x="680.85" y="191.3"/>
      <point x="576.2833333333333" y="191.3" type="curve" smooth="yes"/>
      <point x="410.31666666666666" y="191.3"/>
      <point x="333.2166666666667" y="280.8"/>
      <point x="333.2166666666667" y="440.8666666666667" type="curve" smooth="yes"/>
      <point x="333.2166666666667" y="547.1833333333333" type="line" smooth="yes"/>
      <point x="333.2166666666667" y="707.8"/>
      <point x="406.8666666666667" y="794.5333333333333"/>
      <point x="572.45" y="794.5333333333333" type="curve" smooth="yes"/>
      <point x="677.1666666666666" y="794.5333333333333"/>
      <point x="756.4833333333333" y="762.75"/>
      <point x="820.8666666666667" y="722.35" type="curve"/>
      <point x="799.65" y="936.7333333333333" type="line"/>
      <point x="737.05" y="973.2"/>
      <point x="638.9833333333333" y="1006.2166666666667"/>
      <point x="520.75" y="1006.2166666666667" type="curve" smooth="yes"/>
      <point x="219.25" y="1006.2166666666667"/>
      <point x="75.26666666666667" y="839.3166666666667"/>
      <point x="75.26666666666667" y="551.95" type="curve" smooth="yes"/>
      <point x="75.26666666666667" y="432.4166666666667" type="line" smooth="yes"/>
      <point x="75.26666666666667" y="142.21666666666667"/>
      <point x="218.25" y="-24.533333333333335"/>
    </contour>
  </outline>
</glyph>
<glyph name="d" format="2">
  <advance width="1111.3"/>
  <unicode hex="0064"/>
  <anchor x="546.1166666666667" y="0.0" name="bottom"/>
  <anchor x="546.1166666666667" y="491.15" name="center"/>
  <anchor x="546.1166666666667" y="1322.0833333333333" name="top"/>
  <anchor x="1119.1" y="1322.0833333333333" name="topright"/>
  <outline>
    <contour>
      <point x="430.43333333333334" y="-22.766666666666666" type="curve" smooth="yes"/>
      <point x="625.5166666666667" y="-22.766666666666666"/>
      <point x="710.45" y="79.53333333333333"/>
      <point x="741.5333333333333" y="207.51666666666668" type="curve"/>
      <point x="814.25" y="207.51666666666668" type="line"/>
      <point x="752.5333333333333" y="350.8833333333333" type="line"/>
      <point x="726.6833333333333" y="257.81666666666666"/>
      <point x="649.4" y="189.68333333333334"/>
      <point x="536.55" y="189.68333333333334" type="curve" smooth="yes"/>
      <point x="404.48333333333335" y="189.68333333333334"/>
      <point x="335.3666666666667" y="265.4166666666667"/>
      <point x="335.3666666666667" y="412.1" type="curve" smooth="yes"/>
      <point x="335.3666666666667" y="573.8" type="line" smooth="yes"/>
      <point x="335.3666666666667" y="721.5666666666666"/>
      <point x="405.1" y="797.3"/>
      <point x="534.6333333333333" y="797.3" type="curve" smooth="yes"/>
      <point x="662.9333333333333" y="797.3"/>
      <point x="743.9166666666666" y="721.1166666666667"/>
      <point x="748.3833333333333" y="582.9666666666667" type="curve"/>
      <point x="812.9666666666667" y="773.1666666666666" type="line"/>
      <point x="738.0" y="773.1666666666666" type="line"/>
      <point x="706.0666666666667" y="912.7666666666667"/>
      <point x="613.5833333333334" y="1003.45"/>
      <point x="439.2" y="1003.45" type="curve" smooth="yes"/>
      <point x="197.96666666666667" y="1003.45"/>
      <point x="77.41666666666667" y="848.7666666666667"/>
      <point x="77.41666666666667" y="554.4166666666666" type="curve" smooth="yes"/>
      <point x="77.41666666666667" y="418.5833333333333" type="line" smooth="yes"/>
      <point x="77.41666666666667" y="128.0"/>
      <point x="199.73333333333332" y="-22.766666666666666"/>
    </contour>
    <contour>
      <point x="743.7666666666667" y="0.0" type="line"/>
      <point x="999.5666666666667" y="0.0" type="line"/>
      <point x="999.5666666666667" y="1322.0833333333333" type="line"/>
      <point x="744.3833333333333" y="1322.0833333333333" type="line"/>
      <point x="744.3833333333333" y="1020.4333333333333" type="line"/>
      <point x="749.0" y="738.8333333333334" type="line"/>
      <point x="748.3833333333333" y="698.15" type="line"/>
      <point x="748.3833333333333" y="296.75" type="line"/>
      <point x="752.5333333333333" y="239.73333333333335" type="line"/>
    </contour>
  </outline>
</glyph>
<glyph name="e" format="2">
  <advance width="1038.45"/>
  <unicode hex="0065"/>
  <anchor x="533.0333333333333" y="0.0" name="bottom"/>
  <anchor x="886.0666666666667" y="8.766666666666667" name="ogonek"/>
  <anchor x="530.5666666666667" y="980.6833333333333" name="top"/>
  <outline>
    <contour>
      <point x="573.3166666666667" y="-24.15" type="curve" smooth="yes"/>
      <point x="718.9166666666666" y="-24.15"/>
      <point x="841.5166666666667" y="6.783333333333333"/>
      <point x="931.05" y="56.1" type="curve"/>
      <point x="952.8833333333333" y="257.6" type="line"/>
      <point x="851.8166666666667" y="210.88333333333333"/>
      <point x="740.9" y="182.25"/>
      <point x="618.5833333333334" y="182.25" type="curve" smooth="yes"/>
      <point x="393.3666666666667" y="182.25"/>
      <point x="324.31666666666666" y="272.81666666666666"/>
      <point x="324.31666666666666" y="394.6666666666667" type="curve" smooth="yes"/>
      <point x="324.31666666666666" y="472.0833333333333" type="line"/>
      <point x="322.93333333333334" y="500.8333333333333" type="line"/>
      <point x="322.93333333333334" y="591.6833333333333" type="line" smooth="yes"/>
      <point x="322.93333333333334" y="731.9166666666666"/>
      <point x="386.81666666666666" y="811.2666666666667"/>
      <point x="524.4166666666666" y="811.2666666666667" type="curve" smooth="yes"/>
      <point x="662.6333333333333" y="811.2666666666667"/>
      <point x="728.3666666666667" y="734.3"/>
      <point x="728.3666666666667" y="594.5333333333333" type="curve" smooth="yes"/>
      <point x="728.3666666666667" y="541.2333333333333"/>
      <point x="726.9833333333333" y="474.6333333333333"/>
      <point x="723.8333333333334" y="401.03333333333336" type="curve"/>
      <point x="956.35" y="401.03333333333336" type="line"/>
      <point x="964.1166666666667" y="445.18333333333334"/>
      <point x="968.5" y="496.78333333333336"/>
      <point x="968.5" y="545.4666666666667" type="curve" smooth="yes"/>
      <point x="968.5" y="580.1666666666666" type="line" smooth="yes"/>
      <point x="968.5" y="845.2166666666667"/>
      <point x="819.6" y="1008.2166666666667"/>
      <point x="524.4166666666666" y="1008.2166666666667" type="curve" smooth="yes"/>
      <point x="231.31666666666666" y="1008.2166666666667"/>
      <point x="75.26666666666667" y="846.3833333333333"/>
      <point x="75.26666666666667" y="556.2" type="curve" smooth="yes"/>
      <point x="75.26666666666667" y="428.01666666666665" type="line" smooth="yes"/>
      <point x="75.26666666666667" y="134.21666666666667"/>
      <point x="236.4" y="-24.15"/>
    </contour>
    <contour>
      <point x="211.08333333333334" y="401.03333333333336" type="line"/>
      <point x="904.4666666666667" y="401.03333333333336" type="line"/>
      <point x="904.4666666666667" y="571.4166666666666" type="line"/>
      <point x="211.08333333333334" y="571.4166666666666" type="line"/>
    </contour>
  </outline>
</glyph>
<glyph name="f" format="2">
  <advance width="759.5833333333334"/>
  <unicode hex="0066"/>
  <anchor x="383.06666666666666" y="0.0" name="bottom"/>
  <anchor x="383.06666666666666" y="1313.0" name="top"/>
  <outline>
    <contour>
      <point x="456.6166666666667" y="1352.7666666666667" type="curve" smooth="yes"/>
      <point x="229.26666666666665" y="1352.7666666666667"/>
      <point x="123.43333333333334" y="1264.75"/>
      <point x="123.43333333333334" y="1123.2166666666667" type="curve" smooth="yes"/>
      <point x="123.43333333333334" y="1118.2166666666667" type="line" smooth="yes"/>
      <point x="123.43333333333334" y="1032.0833333333333"/>
      <point x="171.63333333333333" y="975.0833333333334"/>
      <point x="232.75" y="946.3833333333333" type="curve"/>
      <point x="232.75" y="919.1666666666666" type="line"/>
      <point x="399.93333333333334" y="924.7" type="line"/>
      <point x="385.31666666666666" y="951.1"/>
      <point x="373.23333333333335" y="982.05"/>
      <point x="373.23333333333335" y="1018.9166666666666" type="curve" smooth="yes"/>
      <point x="373.23333333333335" y="1022.15" type="line" smooth="yes"/>
      <point x="373.23333333333335" y="1097.7333333333333"/>
      <point x="414.03333333333336" y="1146.3"/>
      <point x="548.6" y="1146.3" type="curve" smooth="yes"/>
      <point x="623.2333333333333" y="1146.3"/>
      <point x="682.7" y="1133.2166666666667"/>
      <point x="741.1" y="1115.6666666666667" type="curve"/>
      <point x="717.8833333333333" y="1308.3" type="line"/>
      <point x="649.7333333333333" y="1333.7666666666667"/>
      <point x="561.0666666666667" y="1352.7666666666667"/>
    </contour>
    <contour>
      <point x="156.81666666666666" y="0.0" type="line"/>
      <point x="412.0" y="0.0" type="line"/>
      <point x="412.0" y="865.6666666666666" type="line"/>
      <point x="156.81666666666666" y="865.6666666666666" type="line"/>
    </contour>
    <contour>
      <point x="14.7" y="736.0" type="line"/>
      <point x="717.0333333333333" y="736.0" type="line"/>
      <point x="738.6333333333333" y="938.7666666666667" type="line"/>
      <point x="362.8" y="938.7666666666667" type="line"/>
      <point x="262.8666666666667" y="937.0" type="line"/>
      <point x="14.7" y="938.7666666666667" type="line"/>
    </contour>
  </outline>
</glyph>
<glyph name="g" format="2">
  <advance width="1049.95"/>
  <unicode hex="0067"/>
  <anchor x="525.2833333333333" y="-347.0833333333333" name="bottom"/>
  <anchor x="524.6666666666666" y="983.15" name="top"/>
  <outline>
    <contour>
      <point x="527.7333333333333" y="301.3666666666667" type="curve"/>
      <point x="816.6" y="301.3666666666667"/>
      <point x="957.6" y="406.46666666666664"/>
      <point x="957.6" y="599.2" type="curve" smooth="yes"/>
      <point x="957.6" y="608.2833333333333" type="line" smooth="yes"/>
      <point x="957.6" y="732.8333333333334"/>
      <point x="895.6833333333333" y="804.0833333333334"/>
      <point x="770.3333333333334" y="830.1" type="curve"/>
      <point x="770.3333333333334" y="840.7166666666667" type="line"/>
      <point x="1036.2" y="831.4" type="line"/>
      <point x="1036.2" y="1019.2833333333333" type="line"/>
      <point x="519.0" y="998.0666666666667" type="line" smooth="yes"/>
      <point x="206.63333333333333" y="985.3833333333333"/>
      <point x="75.28333333333333" y="864.2833333333333"/>
      <point x="75.28333333333333" y="652.9166666666666" type="curve" smooth="yes"/>
      <point x="75.28333333333333" y="638.45" type="line" smooth="yes"/>
      <point x="75.28333333333333" y="424.51666666666665"/>
      <point x="230.11666666666667" y="301.3666666666667"/>
    </contour>
    <contour>
      <point x="515.9" y="-186.88333333333333" type="line" smooth="yes"/>
      <point x="362.7" y="-186.88333333333333"/>
      <point x="283.8666666666667" y="-155.03333333333333"/>
      <point x="283.8666666666667" y="-78.9" type="curve" smooth="yes"/>
      <point x="283.8666666666667" y="-76.9" type="line" smooth="yes"/>
      <point x="283.8666666666667" y="-13.85"/>
      <point x="334.9166666666667" y="19.4"/>
      <point x="410.21666666666664" y="32.71666666666667" type="curve"/>
      <point x="351.25" y="29.566666666666666" type="line"/>
      <point x="637.85" y="1.799999999999999" type="line" smooth="yes"/>
      <point x="734.6166666666667" y="-7.283333333333334"/>
      <point x="775.0833333333334" y="-30.233333333333334"/>
      <point x="775.0833333333334" y="-86.35" type="curve" smooth="yes"/>
      <point x="775.0833333333334" y="-88.96666666666667" type="line" smooth="yes"/>
      <point x="775.0833333333334" y="-157.71666666666667"/>
      <point x="698.4" y="-186.88333333333333"/>
      <point x="543.9666666666667" y="-186.88333333333333" type="curve" smooth="yes"/>
    </contour>
    <contour>
      <point x="502.3666666666667" y="-380.06666666666666" type="curve" smooth="yes"/>
      <point x="538.4333333333333" y="-380.06666666666666" type="line" smooth="yes"/>
      <point x="836.0" y="-380.06666666666666"/>
      <point x="1010.8333333333334" y="-291.1666666666667"/>
      <point x="1010.8333333333334" y="-93.35" type="curve" smooth="yes"/>
      <point x="1010.8333333333334" y="-87.58333333333333" type="line" smooth="yes"/>
      <point x="1010.8333333333334" y="83.85"/>
      <point x="908.4" y="158.76666666666668"/>
      <point x="689.2" y="183.68333333333334" type="curve" smooth="yes"/>
      <point x="453.8833333333333" y="210.45" type="line" smooth="yes"/>
      <point x="366.81666666666666" y="220.53333333333333"/>
      <point x="332.95" y="232.7"/>
      <point x="332.95" y="266.95" type="curve" smooth="yes"/>
      <point x="332.95" y="267.95" type="line" smooth="yes"/>
      <point x="332.95" y="295.81666666666666"/>
      <point x="353.73333333333335" y="311.98333333333335"/>
      <point x="414.7166666666667" y="312.6" type="curve"/>
      <point x="485.1166666666667" y="310.75" type="line"/>
      <point x="268.0" y="364.5833333333333" type="line"/>
      <point x="268.0" y="336.06666666666666" type="line"/>
      <point x="156.86666666666667" y="328.75"/>
      <point x="99.58333333333333" y="282.6"/>
      <point x="99.58333333333333" y="198.93333333333334" type="curve" smooth="yes"/>
      <point x="99.58333333333333" y="197.55" type="line" smooth="yes"/>
      <point x="99.58333333333333" y="118.8"/>
      <point x="152.33333333333334" y="73.95"/>
      <point x="252.78333333333333" y="54.333333333333336" type="curve"/>
      <point x="252.78333333333333" y="44.333333333333336" type="line"/>
      <point x="132.58333333333334" y="30.4"/>
      <point x="50.88333333333333" y="-29.21666666666667"/>
      <point x="50.88333333333333" y="-142.6" type="curve" smooth="yes"/>
      <point x="50.88333333333333" y="-146.6" type="line" smooth="yes"/>
      <point x="50.88333333333333" y="-315.45"/>
      <point x="217.41666666666666" y="-380.06666666666666"/>
    </contour>
    <contour>
      <point x="520.9" y="479.48333333333335" type="curve" smooth="yes"/>
      <point x="383.3666666666667" y="479.48333333333335"/>
      <point x="317.48333333333335" y="536.6"/>
      <point x="317.48333333333335" y="643.8333333333334" type="curve" smooth="yes"/>
      <point x="317.48333333333335" y="654.7666666666667" type="line" smooth="yes"/>
      <point x="317.48333333333335" y="755.8333333333334"/>
      <point x="377.2" y="818.5"/>
      <point x="519.6666666666666" y="818.5" type="curve" smooth="yes"/>
      <point x="522.75" y="818.5" type="line" smooth="yes"/>
      <point x="656.5833333333334" y="818.5"/>
      <point x="721.85" y="759.7666666666667"/>
      <point x="721.85" y="655.3833333333333" type="curve" smooth="yes"/>
      <point x="721.85" y="643.8333333333334" type="line" smooth="yes"/>
      <point x="721.85" y="536.6"/>
      <point x="655.35" y="479.48333333333335"/>
    </contour>
  </outline>
</glyph>
<glyph name="h" format="2">
  <advance width="1109.1333333333334"/>
  <unicode hex="0068"/>
  <anchor x="555.5666666666667" y="0.0" name="bottom"/>
  <anchor x="555.5666666666667" y="657.0" name="center"/>
  <anchor x="239.63333333333333" y="1322.0833333333333" name="top"/>
  <outline>
    <contour>
      <point x="750.9166666666666" y="0.0" type="line"/>
      <point x="1007.4833333333333" y="0.0" type="line"/>
      <point x="1007.4833333333333" y="626.3833333333333" type="line" smooth="yes"/>
      <point x="1007.4833333333333" y="873.5166666666667"/>
      <point x="910.95" y="1003.45"/>
      <point x="687.3166666666667" y="1003.45" type="curve" smooth="yes"/>
      <point x="496.6333333333333" y="1003.45"/>
      <point x="404.76666666666665" y="901.5333333333333"/>
      <point x="373.3" y="773.1666666666666" type="curve"/>
      <point x="312.4166666666667" y="773.1666666666666" type="line"/>
      <point x="364.06666666666666" y="633.3333333333334" type="line"/>
      <point x="389.9166666666667" y="722.1"/>
      <point x="459.5" y="791.0"/>
      <point x="575.8166666666667" y="791.0" type="curve" smooth="yes"/>
      <point x="707.35" y="791.0"/>
      <point x="750.9166666666666" y="712.4166666666666"/>
      <point x="750.9166666666666" y="589.4333333333333" type="curve" smooth="yes"/>
    </contour>
    <contour>
      <point x="111.73333333333333" y="0.0" type="line"/>
      <point x="368.3" y="0.0" type="line"/>
      <point x="368.3" y="695.6833333333333" type="line"/>
      <point x="361.9166666666667" y="715.05" type="line"/>
      <point x="366.9166666666667" y="1020.05" type="line"/>
      <point x="366.9166666666667" y="1322.0833333333333" type="line"/>
      <point x="111.73333333333333" y="1322.0833333333333" type="line"/>
    </contour>
  </outline>
</glyph>
<glyph name="i" format="2">
  <advance width="483.35"/>
  <unicode hex="0069"/>
  <anchor x="241.86666666666667" y="0.0" name="bottom"/>
  <anchor x="406.6166666666667" y="0.0" name="ogonek"/>
  <outline>
    <contour>
      <point x="113.58333333333333" y="0.0" type="line"/>
      <point x="370.15" y="0.0" type="line"/>
      <point x="370.15" y="980.6833333333333" type="line"/>
      <point x="113.58333333333333" y="980.6833333333333" type="line"/>
    </contour>
    <contour>
      <point x="241.86666666666667" y="1096.7" type="curve" smooth="yes"/>
      <point x="338.4166666666667" y="1096.7"/>
      <point x="383.7" y="1144.75"/>
      <point x="383.7" y="1226.8666666666666" type="curve" smooth="yes"/>
      <point x="383.7" y="1232.4" type="line" smooth="yes"/>
      <point x="383.7" y="1312.5166666666667"/>
      <point x="338.4166666666667" y="1362.5666666666666"/>
      <point x="241.86666666666667" y="1362.5666666666666" type="curve" smooth="yes"/>
      <point x="143.93333333333334" y="1362.5666666666666"/>
      <point x="100.03333333333333" y="1312.5166666666667"/>
      <point x="100.03333333333333" y="1232.4" type="curve" smooth="yes"/>
      <point x="100.03333333333333" y="1226.8666666666666" type="line" smooth="yes"/>
      <point x="100.03333333333333" y="1145.75"/>
      <point x="143.93333333333334" y="1096.7"/>
    </contour>
  </outline>
</glyph>
<glyph name="j" format="2">
  <advance width="503.75"/>
  <unicode hex="006A"/>
  <outline>
    <contour>
      <point x="133.98333333333332" y="166.93333333333334" type="line"/>
      <point x="390.55" y="166.93333333333334" type="line"/>
      <point x="390.55" y="980.6833333333333" type="line"/>
      <point x="133.98333333333332" y="980.6833333333333" type="line"/>
    </contour>
    <contour>
      <point x="262.26666666666665" y="1096.7" type="curve" smooth="yes"/>
      <point x="358.81666666666666" y="1096.7"/>
      <point x="404.1" y="1144.75"/>
      <point x="404.1" y="1226.8666666666666" type="curve" smooth="yes"/>
      <point x="404.1" y="1232.4" type="line" smooth="yes"/>
      <point x="404.1" y="1312.5166666666667"/>
      <point x="358.81666666666666" y="1362.5666666666666"/>
      <point x="262.26666666666665" y="1362.5666666666666" type="curve" smooth="yes"/>
      <point x="164.33333333333334" y="1362.5666666666666"/>
      <point x="120.43333333333334" y="1312.5166666666667"/>
      <point x="120.43333333333334" y="1232.4" type="curve" smooth="yes"/>
      <point x="120.43333333333334" y="1226.8666666666666" type="line" smooth="yes"/>
      <point x="120.43333333333334" y="1145.75"/>
      <point x="164.33333333333334" y="1096.7"/>
    </contour>
    <component base="jbottom"/>
  </outline>
</glyph>
<glyph name="k" format="2">
  <advance width="1053.0166666666667"/>
  <unicode hex="006B"/>
  <anchor x="533.25" y="0.0" name="bottom"/>
  <anchor x="530.1666666666666" y="1322.0833333333333" name="top"/>
  <outline>
    <contour>
      <point x="741.5166666666667" y="0.0" type="line"/>
      <point x="1042.1333333333334" y="0.0" type="line"/>
      <point x="628.5666666666667" y="549.8333333333334" type="line"/>
      <point x="628.5666666666667" y="498.4" type="line"/>
      <point x="1026.6666666666667" y="980.6833333333333" type="line"/>
      <point x="730.9666666666667" y="980.6833333333333" type="line"/>
      <point x="421.0833333333333" y="599.1333333333333" type="line"/>
      <point x="333.05" y="599.1333333333333" type="line"/>
      <point x="333.05" y="431.8" type="line"/>
      <point x="420.4666666666667" y="431.8" type="line"/>
    </contour>
    <contour>
      <point x="111.73333333333333" y="0.0" type="line"/>
      <point x="366.9166666666667" y="0.0" type="line"/>
      <point x="366.9166666666667" y="1322.0833333333333" type="line"/>
      <point x="111.73333333333333" y="1322.0833333333333" type="line"/>
    </contour>
  </outline>
</glyph>
<glyph name="l" format="2">
  <advance width="484.9666666666667"/>
  <unicode hex="006C"/>
  <anchor x="243.48333333333335" y="0.0" name="bottom"/>
  <anchor x="243.48333333333335" y="657.0" name="center"/>
  <anchor x="243.48333333333335" y="1322.0833333333333" name="top"/>
  <anchor x="490.9166666666667" y="1322.0833333333333" name="topright"/>
  <outline>
    <contour>
      <point x="114.2" y="0.0" type="line"/>
      <point x="370.76666666666665" y="0.0" type="line"/>
      <point x="370.76666666666665" y="1322.0833333333333" type="line"/>
      <point x="114.2" y="1322.0833333333333" type="line"/>
    </contour>
  </outline>
</glyph>
<glyph name="m" format="2">
  <advance width="1679.2"/>
  <unicode hex="006D"/>
  <anchor x="838.3333333333334" y="0.0" name="bottom"/>
  <anchor x="838.3333333333334" y="980.6833333333333" name="top"/>
  <outline>
    <contour>
      <point x="1320.9833333333333" y="0.0" type="line"/>
      <point x="1577.55" y="0.0" type="line"/>
      <point x="1577.55" y="633.3" type="line" smooth="yes"/>
      <point x="1577.55" y="875.9"/>
      <point x="1486.25" y="1003.45"/>
      <point x="1274.3166666666666" y="1003.45" type="curve" smooth="yes"/>
      <point x="1081.55" y="1003.45"/>
      <point x="997.85" y="898.45"/>
      <point x="964.5333333333333" y="773.1666666666666" type="curve"/>
      <point x="938.85" y="773.1666666666666" type="line"/>
      <point x="966.7666666666667" y="633.3333333333334" type="line"/>
      <point x="989.85" y="722.1"/>
      <point x="1054.5833333333333" y="791.0"/>
      <point x="1162.8166666666666" y="791.0" type="curve" smooth="yes"/>
      <point x="1281.2666666666667" y="791.0"/>
      <point x="1320.9833333333333" y="715.1833333333333"/>
      <point x="1320.9833333333333" y="596.35" type="curve" smooth="yes"/>
    </contour>
    <contour>
      <point x="111.73333333333333" y="0.0" type="line"/>
      <point x="368.3" y="0.0" type="line"/>
      <point x="368.3" y="721.2833333333333" type="line"/>
      <point x="358.3833333333333" y="732.1333333333333" type="line"/>
      <point x="367.53333333333336" y="980.6833333333333" type="line"/>
      <point x="111.73333333333333" y="980.6833333333333" type="line"/>
    </contour>
    <contour>
      <point x="716.6666666666666" y="0.0" type="line"/>
      <point x="972.6166666666667" y="0.0" type="line"/>
      <point x="972.6166666666667" y="632.9333333333333" type="line" smooth="yes"/>
      <point x="972.6166666666667" y="663.3166666666667"/>
      <point x="967.4666666666667" y="702.9166666666666"/>
      <point x="963.0" y="728.6833333333333" type="curve"/>
      <point x="939.3833333333333" y="907.3"/>
      <point x="851.15" y="1003.45"/>
      <point x="669.3833333333333" y="1003.45" type="curve" smooth="yes"/>
      <point x="485.78333333333336" y="1003.45"/>
      <point x="400.6166666666667" y="901.5333333333333"/>
      <point x="369.76666666666665" y="773.1666666666666" type="curve"/>
      <point x="322.01666666666665" y="773.1666666666666" type="line"/>
      <point x="362.45" y="633.3333333333334" type="line"/>
      <point x="385.53333333333336" y="722.1"/>
      <point x="450.26666666666665" y="791.0"/>
      <point x="558.5" y="791.0" type="curve" smooth="yes"/>
      <point x="676.95" y="791.0"/>
      <point x="716.6666666666666" y="715.1833333333333"/>
      <point x="716.6666666666666" y="596.35" type="curve" smooth="yes"/>
    </contour>
  </outline>
</glyph>
<glyph name="n" format="2">
  <advance width="1109.1333333333334"/>
  <unicode hex="006E"/>
  <anchor x="555.5666666666667" y="0.0" name="bottom"/>
  <anchor x="555.5666666666667" y="980.6833333333333" name="top"/>
  <outline>
    <contour>
      <point x="750.9166666666666" y="0.0" type="line"/>
      <point x="1007.4833333333333" y="0.0" type="line"/>
      <point x="1007.4833333333333" y="626.3833333333333" type="line" smooth="yes"/>
      <point x="1007.4833333333333" y="873.5166666666667"/>
      <point x="910.95" y="1003.45"/>
      <point x="687.3166666666667" y="1003.45" type="curve" smooth="yes"/>
      <point x="492.6333333333333" y="1003.45"/>
      <point x="402.23333333333335" y="901.5333333333333"/>
      <point x="369.76666666666665" y="773.1666666666666" type="curve"/>
      <point x="322.01666666666665" y="773.1666666666666" type="line"/>
      <point x="362.45" y="633.3333333333334" type="line"/>
      <point x="388.3" y="722.1"/>
      <point x="458.8833333333333" y="791.0"/>
      <point x="575.8166666666667" y="791.0" type="curve" smooth="yes"/>
      <point x="706.9666666666667" y="791.0"/>
      <point x="750.9166666666666" y="712.4166666666666"/>
      <point x="750.9166666666666" y="589.4333333333333" type="curve" smooth="yes"/>
    </contour>
    <contour>
      <point x="111.73333333333333" y="0.0" type="line"/>
      <point x="368.3" y="0.0" type="line"/>
      <point x="368.3" y="721.2833333333333" type="line"/>
      <point x="358.3833333333333" y="742.4833333333333" type="line"/>
      <point x="367.53333333333336" y="980.6833333333333" type="line"/>
      <point x="111.73333333333333" y="980.6833333333333" type="line"/>
    </contour>
  </outline>
</glyph>
<glyph name="o" format="2">
  <advance width="1074.3833333333334"/>
  <unicode hex="006F"/>
  <anchor x="537.8833333333333" y="0.0" name="bottom"/>
  <anchor x="540.9666666666667" y="435.65" name="center"/>
  <anchor x="804.5833333333334" y="6.916666666666667" name="ogonek"/>
  <anchor x="537.8833333333333" y="980.6833333333333" name="top"/>
  <anchor x="1009.7333333333333" y="980.6833333333333" name="topright"/>
  <outline>
    <contour>
      <point x="537.5" y="-26.916666666666668" type="curve" smooth="yes"/>
      <point x="841.9833333333333" y="-26.916666666666668"/>
      <point x="999.1166666666667" y="135.3"/>
      <point x="999.1166666666667" y="422.53333333333336" type="curve"/>
      <point x="999.1166666666667" y="556.1666666666666" type="line"/>
      <point x="999.1166666666667" y="845.0833333333334"/>
      <point x="841.2166666666667" y="1008.2166666666667"/>
      <point x="537.5" y="1008.2166666666667" type="curve" smooth="yes"/>
      <point x="234.16666666666666" y="1008.2166666666667"/>
      <point x="75.26666666666667" y="845.0833333333334"/>
      <point x="75.26666666666667" y="556.1666666666666" type="curve"/>
      <point x="75.26666666666667" y="422.53333333333336" type="line"/>
      <point x="75.26666666666667" y="135.3"/>
      <point x="233.4" y="-26.916666666666668"/>
    </contour>
    <contour>
      <point x="537.5" y="177.7" type="curve" smooth="yes"/>
      <point x="403.4166666666667" y="177.7"/>
      <point x="332.45" y="260.1333333333333"/>
      <point x="332.45" y="410.15" type="curve" smooth="yes"/>
      <point x="332.45" y="568.9333333333333" type="line" smooth="yes"/>
      <point x="332.45" y="720.7833333333333"/>
      <point x="403.4166666666667" y="803.6"/>
      <point x="537.5" y="803.6" type="curve" smooth="yes"/>
      <point x="671.9666666666667" y="803.6"/>
      <point x="742.55" y="720.7833333333333"/>
      <point x="742.55" y="568.9333333333333" type="curve" smooth="yes"/>
      <point x="742.55" y="410.15" type="line" smooth="yes"/>
      <point x="742.55" y="260.1333333333333"/>
      <point x="671.9666666666667" y="177.7"/>
    </contour>
  </outline>
</glyph>
<glyph name="p" format="2">
  <advance width="1111.3"/>
  <unicode hex="0070"/>
  <anchor x="565.8" y="0.0" name="bottom"/>
  <anchor x="565.8" y="980.6833333333333" name="top"/>
  <outline>
    <contour>
      <point x="671.7166666666667" y="-22.766666666666666" type="curve" smooth="yes"/>
      <point x="913.3333333333334" y="-22.766666666666666"/>
      <point x="1033.8833333333334" y="131.91666666666666"/>
      <point x="1033.8833333333334" y="426.26666666666665" type="curve" smooth="yes"/>
      <point x="1033.8833333333334" y="562.1" type="line" smooth="yes"/>
      <point x="1033.8833333333334" y="852.6833333333333"/>
      <point x="911.5666666666667" y="1003.45"/>
      <point x="680.8666666666667" y="1003.45" type="curve" smooth="yes"/>
      <point x="485.78333333333336" y="1003.45"/>
      <point x="400.85" y="901.15"/>
      <point x="369.76666666666665" y="773.1666666666666" type="curve"/>
      <point x="299.35" y="773.1666666666666" type="line"/>
      <point x="358.76666666666665" y="635.3333333333334" type="line"/>
      <point x="383.85" y="727.25"/>
      <point x="464.2" y="797.3"/>
      <point x="578.2" y="797.3" type="curve" smooth="yes"/>
      <point x="708.35" y="797.3"/>
      <point x="775.9333333333333" y="721.95"/>
      <point x="775.9333333333333" y="575.2666666666667" type="curve" smooth="yes"/>
      <point x="775.9333333333333" y="413.95" type="line" smooth="yes"/>
      <point x="775.9333333333333" y="265.8"/>
      <point x="706.5833333333334" y="189.68333333333334"/>
      <point x="577.4333333333333" y="189.68333333333334" type="curve" smooth="yes"/>
      <point x="448.3666666666667" y="189.68333333333334"/>
      <point x="367.3833333333333" y="263.4"/>
      <point x="362.9166666666667" y="404.01666666666665" type="curve"/>
      <point x="298.3333333333333" y="207.51666666666668" type="line"/>
      <point x="371.0" y="207.51666666666668" type="line"/>
      <point x="403.31666666666666" y="67.91666666666667"/>
      <point x="496.18333333333334" y="-22.766666666666666"/>
    </contour>
    <contour>
      <point x="111.73333333333333" y="-344.0" type="line"/>
      <point x="366.9166666666667" y="-344.0" type="line"/>
      <point x="366.9166666666667" y="-20.966666666666665" type="line"/>
      <point x="360.0" y="248.36666666666667" type="line"/>
      <point x="362.9166666666667" y="294.4166666666667" type="line"/>
      <point x="362.9166666666667" y="686.7833333333333" type="line"/>
      <point x="358.0" y="731.75" type="line"/>
      <point x="367.53333333333336" y="980.6833333333333" type="line"/>
      <point x="111.73333333333333" y="980.6833333333333" type="line"/>
    </contour>
  </outline>
</glyph>
<glyph name="q" format="2">
  <advance width="1111.3"/>
  <unicode hex="0071"/>
  <anchor x="546.1166666666667" y="0.0" name="bottom"/>
  <anchor x="546.1166666666667" y="980.6833333333333" name="top"/>
  <outline>
    <contour>
      <point x="430.43333333333334" y="-22.766666666666666" type="curve" smooth="yes"/>
      <point x="624.9" y="-22.766666666666666"/>
      <point x="709.2166666666667" y="79.53333333333333"/>
      <point x="740.3" y="207.51666666666668" type="curve"/>
      <point x="812.4" y="207.51666666666668" type="line"/>
      <point x="752.5333333333333" y="350.8833333333333" type="line"/>
      <point x="726.6833333333333" y="257.81666666666666"/>
      <point x="649.4" y="189.68333333333334"/>
      <point x="535.9333333333333" y="189.68333333333334" type="curve" smooth="yes"/>
      <point x="404.48333333333335" y="189.68333333333334"/>
      <point x="335.3666666666667" y="265.4166666666667"/>
      <point x="335.3666666666667" y="412.7166666666667" type="curve" smooth="yes"/>
      <point x="335.3666666666667" y="571.95" type="line" smooth="yes"/>
      <point x="335.3666666666667" y="721.5666666666666"/>
      <point x="404.48333333333335" y="797.3"/>
      <point x="532.7833333333333" y="797.3" type="curve" smooth="yes"/>
      <point x="659.85" y="797.3"/>
      <point x="743.3" y="723.5833333333334"/>
      <point x="748.3833333333333" y="582.9666666666667" type="curve"/>
      <point x="816.5" y="773.1666666666666" type="line"/>
      <point x="741.5333333333333" y="773.1666666666666" type="line"/>
      <point x="709.2166666666667" y="912.7666666666667"/>
      <point x="615.7333333333333" y="1003.45"/>
      <point x="439.2" y="1003.45" type="curve" smooth="yes"/>
      <point x="199.2" y="1003.45"/>
      <point x="77.41666666666667" y="848.7666666666667"/>
      <point x="77.41666666666667" y="554.4166666666666" type="curve" smooth="yes"/>
      <point x="77.41666666666667" y="418.5833333333333" type="line" smooth="yes"/>
      <point x="77.41666666666667" y="128.0"/>
      <point x="199.73333333333332" y="-22.766666666666666"/>
    </contour>
    <contour>
      <point x="744.3833333333333" y="-344.0" type="line"/>
      <point x="999.5666666666667" y="-344.0" type="line"/>
      <point x="999.5666666666667" y="980.6833333333333" type="line"/>
      <point x="743.7666666666667" y="980.6833333333333" type="line"/>
      <point x="752.5333333333333" y="747.4666666666667" type="line"/>
      <point x="748.3833333333333" y="694.45" type="line"/>
      <point x="748.3833333333333" y="293.05" type="line"/>
      <point x="751.3" y="250.83333333333334" type="line"/>
      <point x="744.3833333333333" y="-20.966666666666665" type="line"/>
    </contour>
  </outline>
</glyph>
<glyph name="r" format="2">
  <advance width="775.4666666666667"/>
  <unicode hex="0072"/>
  <anchor x="240.01666666666668" y="0.0" name="bottom"/>
  <anchor x="411.3666666666667" y="980.6833333333333" name="top"/>
  <outline>
    <contour>
      <point x="361.45" y="569.5333333333333" type="line"/>
      <point x="405.15" y="679.3166666666666"/>
      <point x="504.18333333333334" y="741.9"/>
      <point x="640.2833333333333" y="741.9" type="curve" smooth="yes"/>
      <point x="682.6833333333333" y="741.9"/>
      <point x="722.3" y="736.4333333333333"/>
      <point x="752.3833333333333" y="728.35" type="curve"/>
      <point x="738.4666666666667" y="984.1333333333333" type="line"/>
      <point x="714.3833333333333" y="990.6"/>
      <point x="687.45" y="996.0666666666667"/>
      <point x="653.2" y="996.0666666666667" type="curve" smooth="yes"/>
      <point x="484.43333333333334" y="996.0666666666667"/>
      <point x="393.1166666666667" y="899.15"/>
      <point x="357.8666666666667" y="740.55" type="curve"/>
      <point x="296.45" y="740.55" type="line"/>
    </contour>
    <contour>
      <point x="111.73333333333333" y="0.0" type="line"/>
      <point x="368.3" y="0.0" type="line"/>
      <point x="368.3" y="671.3333333333334" type="line"/>
      <point x="345.1" y="679.9666666666667" type="line"/>
      <point x="356.01666666666665" y="980.6833333333333" type="line"/>
      <point x="111.73333333333333" y="980.6833333333333" type="line"/>
    </contour>
  </outline>
</glyph>
<glyph name="s" format="2">
  <advance width="914.2333333333333"/>
  <unicode hex="0073"/>
  <anchor x="455.35" y="0.0" name="bottom"/>
  <anchor x="453.96666666666664" y="980.6833333333333" name="top"/>
  <outline>
    <contour>
      <point x="446.51666666666665" y="-23.766666666666666" type="curve" smooth="yes"/>
      <point x="725.9166666666666" y="-23.766666666666666"/>
      <point x="862.2833333333333" y="75.68333333333334"/>
      <point x="862.2833333333333" y="278.18333333333334" type="curve" smooth="yes"/>
      <point x="862.2833333333333" y="289.73333333333335" type="line" smooth="yes"/>
      <point x="862.2833333333333" y="466.7166666666667"/>
      <point x="766.3" y="528.8833333333333"/>
      <point x="520.0666666666667" y="583.4166666666666" type="curve" smooth="yes"/>
      <point x="348.48333333333335" y="621.5"/>
      <point x="305.76666666666665" y="652.15"/>
      <point x="305.76666666666665" y="711.5833333333334" type="curve" smooth="yes"/>
      <point x="305.76666666666665" y="716.6666666666666" type="line" smooth="yes"/>
      <point x="305.76666666666665" y="770.8666666666667"/>
      <point x="347.8" y="803.2833333333333"/>
      <point x="477.76666666666665" y="803.2833333333333" type="curve" smooth="yes"/>
      <point x="611.4" y="803.2833333333333"/>
      <point x="728.6166666666667" y="768.9666666666667"/>
      <point x="821.6833333333333" y="724.8" type="curve"/>
      <point x="799.4666666666667" y="929.2" type="line"/>
      <point x="720.25" y="969.9"/>
      <point x="600.65" y="1005.45"/>
      <point x="447.8" y="1005.45" type="curve" smooth="yes"/>
      <point x="189.38333333333333" y="1005.45"/>
      <point x="56.416666666666664" y="911.15"/>
      <point x="56.416666666666664" y="724.8" type="curve" smooth="yes"/>
      <point x="56.416666666666664" y="716.1833333333333" type="line" smooth="yes"/>
      <point x="56.416666666666664" y="557.65"/>
      <point x="137.56666666666666" y="474.35"/>
      <point x="383.56666666666666" y="418.2" type="curve" smooth="yes"/>
      <point x="561.3166666666667" y="377.65"/>
      <point x="610.25" y="353.23333333333335"/>
      <point x="610.25" y="287.65" type="curve" smooth="yes"/>
      <point x="610.25" y="281.95" type="line" smooth="yes"/>
      <point x="610.25" y="215.81666666666666"/>
      <point x="555.6666666666666" y="183.78333333333333"/>
      <point x="427.85" y="183.78333333333333" type="curve" smooth="yes"/>
      <point x="281.3833333333333" y="183.78333333333333"/>
      <point x="159.78333333333333" y="224.63333333333333"/>
      <point x="59.483333333333334" y="270.8" type="curve"/>
      <point x="81.7" y="48.86666666666667" type="line"/>
      <point x="166.68333333333334" y="11.399999999999999"/>
      <point x="289.28333333333336" y="-23.766666666666666"/>
    </contour>
  </outline>
</glyph>
<glyph name="t" format="2">
  <advance width="801.7333333333333"/>
  <unicode hex="0074"/>
  <anchor x="447.31666666666666" y="0.0" name="bottom"/>
  <anchor x="403.8333333333333" y="491.15" name="center"/>
  <anchor x="285.01666666666665" y="1210.9166666666667" name="top"/>
  <anchor x="574.75" y="1423.75" name="topright"/>
  <outline>
    <contour>
      <point x="491.8333333333333" y="-21.15" type="curve" smooth="yes"/>
      <point x="590.1166666666667" y="-21.15"/>
      <point x="678.65" y="-2.7666666666666666"/>
      <point x="744.95" y="28.466666666666665" type="curve"/>
      <point x="766.9333333333333" y="242.0" type="line"/>
      <point x="710.7666666666667" y="216.83333333333334"/>
      <point x="642.2166666666667" y="200.21666666666667"/>
      <point x="571.35" y="200.21666666666667" type="curve" smooth="yes"/>
      <point x="447.8666666666667" y="200.21666666666667"/>
      <point x="406.15" y="248.08333333333334"/>
      <point x="406.15" y="354.6666666666667" type="curve" smooth="yes"/>
      <point x="406.15" y="888.65" type="line"/>
      <point x="151.96666666666667" y="888.65" type="line"/>
      <point x="151.96666666666667" y="317.48333333333335" type="line" smooth="yes"/>
      <point x="151.96666666666667" y="93.13333333333334"/>
      <point x="242.5" y="-21.15"/>
    </contour>
    <contour>
      <point x="10.466666666666667" y="770.9" type="line"/>
      <point x="735.5666666666667" y="770.9" type="line"/>
      <point x="757.55" y="973.2833333333333" type="line"/>
      <point x="10.466666666666667" y="973.2833333333333" type="line"/>
    </contour>
    <contour>
      <point x="155.11666666666667" y="953.6" type="line"/>
      <point x="399.23333333333335" y="953.6" type="line"/>
      <point x="408.76666666666665" y="1240.2333333333333" type="line"/>
      <point x="154.11666666666667" y="1214.1666666666667" type="line"/>
    </contour>
  </outline>
</glyph>
<glyph name="u" format="2">
  <advance width="1109.1333333333334"/>
  <unicode hex="0075"/>
  <anchor x="555.5666666666667" y="0.0" name="bottom"/>
  <anchor x="1033.8666666666666" y="0.0" name="ogonek"/>
  <anchor x="555.5666666666667" y="980.6833333333333" name="top"/>
  <anchor x="1094.2833333333333" y="980.6833333333333" name="topright"/>
  <outline>
    <contour>
      <point x="358.2166666666667" y="980.6833333333333" type="line"/>
      <point x="101.65" y="980.6833333333333" type="line"/>
      <point x="101.65" y="354.3" type="line" smooth="yes"/>
      <point x="101.65" y="107.16666666666667"/>
      <point x="198.18333333333334" y="-22.766666666666666"/>
      <point x="421.81666666666666" y="-22.766666666666666" type="curve" smooth="yes"/>
      <point x="616.5" y="-22.766666666666666"/>
      <point x="706.9" y="79.15"/>
      <point x="739.3666666666667" y="207.51666666666668" type="curve"/>
      <point x="787.1166666666667" y="207.51666666666668" type="line"/>
      <point x="746.6833333333333" y="347.35" type="line"/>
      <point x="720.8333333333334" y="258.5833333333333"/>
      <point x="650.25" y="189.68333333333334"/>
      <point x="533.3166666666667" y="189.68333333333334" type="curve" smooth="yes"/>
      <point x="402.1666666666667" y="189.68333333333334"/>
      <point x="358.2166666666667" y="268.26666666666665"/>
      <point x="358.2166666666667" y="391.25" type="curve" smooth="yes"/>
    </contour>
    <contour>
      <point x="997.4" y="980.6833333333333" type="line"/>
      <point x="740.8333333333334" y="980.6833333333333" type="line"/>
      <point x="740.8333333333334" y="259.4" type="line"/>
      <point x="750.75" y="238.2" type="line"/>
      <point x="741.6" y="0.0" type="line"/>
      <point x="997.4" y="0.0" type="line"/>
    </contour>
  </outline>
</glyph>
<glyph name="v" format="2">
  <advance width="1028.9833333333333"/>
  <unicode hex="0076"/>
  <anchor x="514.8" y="0.0" name="bottom"/>
  <anchor x="514.8" y="980.6833333333333" name="top"/>
  <outline>
    <contour>
      <point x="527.3333333333334" y="169.56666666666666" type="line"/>
      <point x="503.95" y="169.56666666666666" type="line"/>
      <point x="292.51666666666665" y="980.6833333333333" type="line"/>
      <point x="27.03333333333333" y="980.6833333333333" type="line"/>
      <point x="308.4166666666667" y="0.0" type="line"/>
      <point x="721.7166666666667" y="0.0" type="line"/>
      <point x="1001.95" y="980.6833333333333" type="line"/>
      <point x="738.0" y="980.6833333333333" type="line"/>
    </contour>
  </outline>
</glyph>
<glyph name="w" format="2">
  <advance width="1540.9"/>
  <unicode hex="0077"/>
  <anchor x="770.95" y="0.0" name="bottom"/>
  <anchor x="770.95" y="980.6833333333333" name="top"/>
  <outline>
    <contour>
      <point x="247.71666666666667" y="0.0" type="line"/>
      <point x="621.15" y="0.0" type="line"/>
      <point x="742.0833333333334" y="649.0166666666667" type="line"/>
      <point x="763.7166666666667" y="769.9833333333333" type="line"/>
      <point x="778.95" y="769.9833333333333" type="line"/>
      <point x="800.8166666666667" y="649.0166666666667" type="line"/>
      <point x="921.3666666666667" y="0.0" type="line"/>
      <point x="1293.1833333333334" y="0.0" type="line"/>
      <point x="1504.7833333333333" y="980.6833333333333" type="line"/>
      <point x="1246.1333333333334" y="980.6833333333333" type="line"/>
      <point x="1099.5" y="182.4" type="line"/>
      <point x="1083.1166666666666" y="182.4" type="line"/>
      <point x="935.55" y="955.8333333333334" type="line"/>
      <point x="606.35" y="955.8333333333334" type="line"/>
      <point x="459.93333333333334" y="182.4" type="line"/>
      <point x="442.1666666666667" y="182.4" type="line"/>
      <point x="297.53333333333336" y="980.6833333333333" type="line"/>
      <point x="36.11666666666667" y="980.6833333333333" type="line"/>
    </contour>
  </outline>
</glyph>
<glyph name="x" format="2">
  <advance width="1030.5666666666666"/>
  <unicode hex="0078"/>
  <anchor x="515.7833333333333" y="0.0" name="bottom"/>
  <anchor x="515.7833333333333" y="980.6833333333333" name="top"/>
  <outline>
    <contour>
      <point x="29.733333333333334" y="0.0" type="line"/>
      <point x="306.98333333333335" y="0.0" type="line"/>
      <point x="507.6333333333333" y="383.1666666666667" type="line"/>
      <point x="524.55" y="383.1666666666667" type="line"/>
      <point x="723.5833333333334" y="0.0" type="line"/>
      <point x="1000.8333333333334" y="0.0" type="line"/>
      <point x="703.9333333333334" y="545.8166666666667" type="line"/>
      <point x="703.9333333333334" y="475.48333333333335" type="line"/>
      <point x="993.45" y="980.6833333333333" type="line"/>
      <point x="716.5833333333334" y="980.6833333333333" type="line"/>
      <point x="524.55" y="618.9166666666666" type="line"/>
      <point x="507.6333333333333" y="618.9166666666666" type="line"/>
      <point x="314.3666666666667" y="980.6833333333333" type="line"/>
      <point x="37.11666666666667" y="980.6833333333333" type="line"/>
      <point x="327.01666666666665" y="475.48333333333335" type="line"/>
      <point x="327.01666666666665" y="545.8166666666667" type="line"/>
    </contour>
  </outline>
</glyph>
<glyph name="y" format="2">
  <advance width="1029.9833333333333"/>
  <unicode hex="0079"/>
  <anchor x="786.4666666666667" y="-70.75" name="bottom"/>
  <anchor x="515.8" y="980.6833333333333" name="top"/>
  <outline>
    <contour>
      <point x="632.1" y="212.48333333333335" type="line"/>
      <point x="495.1166666666667" y="212.48333333333335" type="line"/>
      <point x="291.75" y="980.6833333333333" type="line"/>
      <point x="27.03333333333333" y="980.6833333333333" type="line"/>
      <point x="311.8" y="41.766666666666666" type="line"/>
      <point x="597.5833333333334" y="41.766666666666666" type="line"/>
      <point x="478.9166666666667" y="137.61666666666667" type="line"/>
      <point x="324.68333333333334" y="-344.0" type="line"/>
      <point x="582.1" y="-344.0" type="line"/>
      <point x="1002.95" y="980.6833333333333" type="line"/>
      <point x="740.2333333333333" y="980.6833333333333" type="line"/>
      <point x="495.1333333333333" y="153.3" type="line"/>
    </contour>
  </outline>
</glyph>
<glyph name="z" format="2">
  <advance width="932.7"/>
  <unicode hex="007A"/>
  <anchor x="466.35" y="0.0" name="bottom"/>
  <anchor x="466.96666666666664" y="491.15" name="center"/>
  <anchor x="466.35" y="980.6833333333333" name="top"/>
  <outline>
    <contour>
      <point x="862.45" y="211.06666666666666" type="line"/>
      <point x="378.08333333333337" y="211.06666666666666" type="line"/>
      <point x="857.0666666666667" y="790.2166666666667" type="line"/>
      <point x="857.0666666666667" y="980.6833333333333" type="line"/>
      <point x="73.63333333333333" y="980.6833333333333" type="line"/>
      <point x="73.63333333333333" y="770.6166666666667" type="line"/>
      <point x="548.4666666666667" y="770.6166666666667" type="line"/>
      <point x="70.25" y="191.46666666666667" type="line"/>
      <point x="70.25" y="0.0" type="line"/>
      <point x="862.45" y="0.0" type="line"/>
    </contour>
  </outline>
</glyph>
<glyph name="braceleft" format="2">
  <advance width="687.5833333333334"/>
  <unicode hex="007B"/>
  <outline>
    <contour>
      <point x="637.2666666666667" y="1331.9166666666667" type="line"/>
      <point x="589.9666666666667" y="1345.15"/>
      <point x="532.6666666666666" y="1355.15"/>
      <point x="473.9" y="1355.15" type="curve" smooth="yes"/>
      <point x="276.3333333333333" y="1355.15"/>
      <point x="182.9" y="1268.9333333333334"/>
      <point x="182.9" y="1061.9833333333333" type="curve" smooth="yes"/>
      <point x="182.9" y="991.4166666666666"/>
      <point x="196.51666666666665" y="857.1"/>
      <point x="196.51666666666665" y="793.3" type="curve" smooth="yes"/>
      <point x="196.51666666666665" y="707.2666666666667"/>
      <point x="162.9" y="663.4"/>
      <point x="57.4" y="657.55" type="curve"/>
      <point x="57.4" y="448.85" type="line"/>
      <point x="162.9" y="442.3833333333333"/>
      <point x="196.51666666666665" y="398.9"/>
      <point x="196.51666666666665" y="312.25" type="curve" smooth="yes"/>
      <point x="196.51666666666665" y="249.06666666666666"/>
      <point x="182.9" y="114.13333333333334"/>
      <point x="182.9" y="41.333333333333336" type="curve" smooth="yes"/>
      <point x="182.9" y="-166.38333333333333"/>
      <point x="276.3333333333333" y="-253.21666666666667"/>
      <point x="473.9" y="-253.21666666666667" type="curve" smooth="yes"/>
      <point x="532.6666666666666" y="-253.21666666666667"/>
      <point x="589.5833333333334" y="-243.6"/>
      <point x="637.2666666666667" y="-229.98333333333332" type="curve"/>
      <point x="637.2666666666667" y="-45.88333333333333" type="line"/>
      <point x="612.4833333333333" y="-53.58333333333333"/>
      <point x="581.4666666666667" y="-60.05"/>
      <point x="546.6" y="-60.05" type="curve" smooth="yes"/>
      <point x="458.26666666666665" y="-60.05"/>
      <point x="423.7166666666667" y="-22.266666666666666"/>
      <point x="423.7166666666667" y="68.61666666666667" type="curve" smooth="yes"/>
      <point x="423.7166666666667" y="128.41666666666666"/>
      <point x="437.3333333333333" y="257.43333333333334"/>
      <point x="437.3333333333333" y="325.7" type="curve" smooth="yes"/>
      <point x="437.3333333333333" y="450.0833333333333"/>
      <point x="397.65" y="531.9333333333333"/>
      <point x="255.2" y="549.7" type="curve"/>
      <point x="265.5" y="540.85" type="line"/>
      <point x="265.5" y="559.0833333333334" type="line"/>
      <point x="398.03333333333336" y="579.85"/>
      <point x="437.3333333333333" y="656.4666666666667"/>
      <point x="437.3333333333333" y="779.4666666666667" type="curve" smooth="yes"/>
      <point x="437.3333333333333" y="847.1166666666667"/>
      <point x="423.7166666666667" y="975.5166666666667"/>
      <point x="423.7166666666667" y="1035.3166666666666" type="curve" smooth="yes"/>
      <point x="423.7166666666667" y="1125.5833333333333"/>
      <point x="457.8833333333333" y="1163.3666666666666"/>
      <point x="543.8333333333334" y="1163.3666666666666" type="curve" smooth="yes"/>
      <point x="580.0833333333334" y="1163.3666666666666"/>
      <point x="612.1" y="1156.9"/>
      <point x="637.2666666666667" y="1149.8166666666666" type="curve"/>
    </contour>
  </outline>
</glyph>
<glyph name="bar" format="2">
  <advance width="510.48333333333335"/>
  <unicode hex="007C"/>
  <outline>
    <contour>
      <point x="362.5833333333333" y="-424.71666666666664" type="line"/>
      <point x="362.5833333333333" y="1421.0" type="line"/>
      <point x="147.9" y="1421.0" type="line"/>
      <point x="147.9" y="-424.71666666666664" type="line"/>
    </contour>
  </outline>
</glyph>
<glyph name="braceright" format="2">
  <advance width="687.5833333333334"/>
  <unicode hex="007D"/>
  <outline>
    <contour>
      <point x="50.31666666666666" y="1331.9166666666667" type="curve"/>
      <point x="50.31666666666666" y="1149.8166666666666" type="line"/>
      <point x="75.48333333333333" y="1156.9"/>
      <point x="107.5" y="1163.3666666666666"/>
      <point x="143.75" y="1163.3666666666666" type="curve" smooth="yes"/>
      <point x="229.7" y="1163.3666666666666"/>
      <point x="263.8666666666667" y="1125.5833333333333"/>
      <point x="263.8666666666667" y="1035.3166666666666" type="curve" smooth="yes"/>
      <point x="263.8666666666667" y="975.5166666666667"/>
      <point x="250.25" y="847.1166666666667"/>
      <point x="250.25" y="779.4666666666667" type="curve" smooth="yes"/>
      <point x="250.25" y="656.4666666666667"/>
      <point x="289.55" y="579.85"/>
      <point x="422.0833333333333" y="559.0833333333334" type="curve"/>
      <point x="422.0833333333333" y="540.85" type="line"/>
      <point x="432.3833333333333" y="549.7" type="line"/>
      <point x="289.93333333333334" y="531.9333333333333"/>
      <point x="250.25" y="450.0833333333333"/>
      <point x="250.25" y="325.7" type="curve" smooth="yes"/>
      <point x="250.25" y="257.43333333333334"/>
      <point x="263.8666666666667" y="128.41666666666666"/>
      <point x="263.8666666666667" y="68.61666666666667" type="curve" smooth="yes"/>
      <point x="263.8666666666667" y="-22.266666666666666"/>
      <point x="229.31666666666666" y="-60.05"/>
      <point x="140.98333333333332" y="-60.05" type="curve" smooth="yes"/>
      <point x="106.11666666666666" y="-60.05"/>
      <point x="75.1" y="-53.58333333333333"/>
      <point x="50.31666666666666" y="-45.88333333333333" type="curve"/>
      <point x="50.31666666666666" y="-229.98333333333332" type="line"/>
      <point x="98.0" y="-243.6"/>
      <point x="154.91666666666666" y="-253.21666666666667"/>
      <point x="213.68333333333334" y="-253.21666666666667" type="curve" smooth="yes"/>
      <point x="411.25" y="-253.21666666666667"/>
      <point x="504.68333333333334" y="-166.38333333333333"/>
      <point x="504.68333333333334" y="41.333333333333336" type="curve" smooth="yes"/>
      <point x="504.68333333333334" y="114.13333333333334"/>
      <point x="491.06666666666666" y="249.06666666666666"/>
      <point x="491.06666666666666" y="312.25" type="curve" smooth="yes"/>
      <point x="491.06666666666666" y="398.9"/>
      <point x="524.6833333333333" y="442.3833333333333"/>
      <point x="630.1833333333333" y="448.85" type="curve"/>
      <point x="630.1833333333333" y="657.55" type="line"/>
      <point x="524.6833333333333" y="663.4"/>
      <point x="491.06666666666666" y="707.2666666666667"/>
      <point x="491.06666666666666" y="793.3" type="curve" smooth="yes"/>
      <point x="491.06666666666666" y="857.1"/>
      <point x="504.68333333333334" y="991.4166666666666"/>
      <point x="504.68333333333334" y="1061.9833333333333" type="curve" smooth="yes"/>
      <point x="504.68333333333334" y="1268.9333333333334"/>
      <point x="411.25" y="1355.15"/>
      <point x="213.68333333333334" y="1355.15" type="curve" smooth="yes"/>
      <point x="154.91666666666666" y="1355.15"/>
      <point x="97.61666666666666" y="1345.15"/>
    </contour>
  </outline>
</glyph>
<glyph name="asciitilde" format="2">
  <advance width="1095.5"/>
  <unicode hex="007E"/>
  <outline>
    <contour>
      <point x="749.3" y="469.8666666666667" type="curve" smooth="yes"/>
      <point x="924.25" y="469.8666666666667"/>
      <point x="991.15" y="573.45"/>
      <point x="991.15" y="748.9333333333333" type="curve" smooth="yes"/>
      <point x="991.15" y="798.6666666666666" type="line"/>
      <point x="806.6666666666666" y="798.6666666666666" type="line"/>
      <point x="806.6666666666666" y="786.65" type="line" smooth="yes"/>
      <point x="805.5166666666667" y="717.3333333333334"/>
      <point x="786.2" y="680.4"/>
      <point x="722.8833333333333" y="680.4" type="curve" smooth="yes"/>
      <point x="621.7" y="680.4"/>
      <point x="495.51666666666665" y="774.8333333333334"/>
      <point x="345.81666666666666" y="774.8333333333334" type="curve" smooth="yes"/>
      <point x="170.63333333333333" y="774.8333333333334"/>
      <point x="104.35" y="670.55"/>
      <point x="104.35" y="495.15" type="curve" smooth="yes"/>
      <point x="104.35" y="445.65" type="line"/>
      <point x="288.2166666666667" y="445.65" type="line"/>
      <point x="288.2166666666667" y="458.96666666666664" type="line" smooth="yes"/>
      <point x="289.3666666666667" y="526.2833333333333"/>
      <point x="309.9166666666667" y="563.3"/>
      <point x="372.0" y="563.3" type="curve" smooth="yes"/>
      <point x="474.4166666666667" y="563.3"/>
      <point x="602.1333333333333" y="469.8666666666667"/>
    </contour>
  </outline>
</glyph>
<glyph name="exclamdown" format="2">
  <advance width="497.76666666666665"/>
  <unicode hex="00A1"/>
  <outline>
    <contour>
      <point x="356.56666666666666" y="567.1833333333333" type="line"/>
      <point x="141.58333333333334" y="567.1833333333333" type="line"/>
      <point x="111.3" y="-297.31666666666666" type="line"/>
      <point x="386.4666666666667" y="-297.31666666666666" type="line"/>
    </contour>
    <contour>
      <point x="249.65" y="1005.1333333333333" type="curve" smooth="yes"/>
      <point x="151.63333333333333" y="1005.1333333333333"/>
      <point x="106.58333333333333" y="950.9333333333333"/>
      <point x="106.58333333333333" y="858.75" type="curve" smooth="yes"/>
      <point x="106.58333333333333" y="848.3666666666667" type="line" smooth="yes"/>
      <point x="106.58333333333333" y="757.1833333333333"/>
      <point x="151.63333333333333" y="702.6"/>
      <point x="249.65" y="702.6" type="curve" smooth="yes"/>
      <point x="346.6666666666667" y="702.6"/>
      <point x="393.1" y="757.1833333333333"/>
      <point x="393.1" y="848.3666666666667" type="curve" smooth="yes"/>
      <point x="393.1" y="858.75" type="line" smooth="yes"/>
      <point x="393.1" y="950.9333333333333"/>
      <point x="346.6666666666667" y="1005.1333333333333"/>
    </contour>
  </outline>
</glyph>
<glyph name="cent" format="2">
  <advance width="884.5"/>
  <unicode hex="00A2"/>
  <anchor x="489.68333333333334" y="0.0" name="bottom"/>
  <anchor x="489.68333333333334" y="980.6833333333333" name="top"/>
  <outline>
    <contour>
      <point x="627.0333333333333" y="889.2" type="line"/>
      <point x="627.0333333333333" y="1185.3166666666666" type="line"/>
      <point x="409.96666666666664" y="1185.3166666666666" type="line"/>
      <point x="409.96666666666664" y="889.2" type="line"/>
    </contour>
    <contour>
      <point x="627.0333333333333" y="-208.63333333333333" type="line"/>
      <point x="627.0333333333333" y="110.2" type="line"/>
      <point x="409.96666666666664" y="110.2" type="line"/>
      <point x="409.96666666666664" y="-208.63333333333333" type="line"/>
    </contour>
    <component base="c"/>
  </outline>
</glyph>
<glyph name="sterling" format="2">
  <advance width="1086.5833333333333"/>
  <unicode hex="00A3"/>
  <outline>
    <contour>
      <point x="73.01666666666667" y="566.5833333333334" type="line"/>
      <point x="922.1" y="566.5833333333334" type="line"/>
      <point x="935.0166666666667" y="748.1" type="line"/>
      <point x="85.93333333333334" y="748.1" type="line"/>
    </contour>
    <contour>
      <point x="344.9" y="221.36666666666667" type="line"/>
      <point x="344.9" y="231.75" type="line"/>
      <point x="467.3" y="271.85"/>
      <point x="523.3" y="341.4166666666667"/>
      <point x="523.3" y="491.85" type="curve" smooth="yes"/>
      <point x="523.3" y="615.75"/>
      <point x="461.6666666666667" y="760.4166666666666"/>
      <point x="461.6666666666667" y="888.7666666666667" type="curve" smooth="yes"/>
      <point x="461.6666666666667" y="1015.8333333333334"/>
      <point x="523.1833333333334" y="1081.55"/>
      <point x="707.2833333333333" y="1081.55" type="curve" smooth="yes"/>
      <point x="798.45" y="1081.55"/>
      <point x="884.0833333333334" y="1066.2333333333333"/>
      <point x="972.0166666666667" y="1036.1333333333334" type="curve"/>
      <point x="952.1833333333333" y="1254.5833333333333" type="line"/>
      <point x="865.5" y="1284.75"/>
      <point x="751.5833333333334" y="1303.9166666666667"/>
      <point x="640.8166666666667" y="1303.9166666666667" type="curve" smooth="yes"/>
      <point x="327.95" y="1303.9166666666667"/>
      <point x="188.5" y="1179.2333333333333"/>
      <point x="188.5" y="931.4" type="curve" smooth="yes"/>
      <point x="188.5" y="777.0666666666667"/>
      <point x="254.9" y="608.7666666666667"/>
      <point x="254.28333333333333" y="466.26666666666665" type="curve" smooth="yes"/>
      <point x="254.28333333333333" y="335.26666666666665"/>
      <point x="217.26666666666665" y="255.98333333333335"/>
      <point x="119.75" y="227.13333333333333" type="curve" smooth="yes"/>
      <point x="79.4" y="213.76666666666668" type="line"/>
      <point x="79.4" y="0.0" type="line"/>
      <point x="1028.5666666666666" y="0.0" type="line"/>
      <point x="1028.5666666666666" y="221.36666666666667" type="line"/>
    </contour>
  </outline>
</glyph>
<glyph name="currency" format="2">
  <advance width="1077.55"/>
  <unicode hex="00A4"/>
  <outline>
    <contour>
      <point x="538.0833333333334" y="224.73333333333332" type="curve" smooth="yes"/>
      <point x="792.0333333333333" y="224.73333333333332"/>
      <point x="928.1666666666666" y="358.1"/>
      <point x="928.1666666666666" y="597.15" type="curve" smooth="yes"/>
      <point x="928.1666666666666" y="632.8666666666667" type="line" smooth="yes"/>
      <point x="928.1666666666666" y="870.9166666666666"/>
      <point x="792.65" y="1004.2833333333333"/>
      <point x="538.7" y="1004.2833333333333" type="curve" smooth="yes"/>
      <point x="284.75" y="1004.2833333333333"/>
      <point x="148.61666666666667" y="870.9166666666666"/>
      <point x="148.61666666666667" y="632.8666666666667" type="curve" smooth="yes"/>
      <point x="148.61666666666667" y="597.15" type="line" smooth="yes"/>
      <point x="148.61666666666667" y="358.1"/>
      <point x="284.1333333333333" y="224.73333333333332"/>
    </contour>
    <contour>
      <point x="538.7" y="416.05" type="curve" smooth="yes"/>
      <point x="432.6333333333333" y="416.05"/>
      <point x="376.9" y="476.93333333333334"/>
      <point x="376.9" y="592.6166666666667" type="curve" smooth="yes"/>
      <point x="376.9" y="637.0166666666667" type="line" smooth="yes"/>
      <point x="376.9" y="753.0833333333334"/>
      <point x="432.6333333333333" y="812.9666666666667"/>
      <point x="538.7" y="812.9666666666667" type="curve" smooth="yes"/>
      <point x="644.15" y="812.9666666666667"/>
      <point x="698.5" y="752.7"/>
      <point x="698.8833333333333" y="637.0166666666667" type="curve" smooth="yes"/>
      <point x="699.8833333333333" y="592.6166666666667" type="line" smooth="yes"/>
      <point x="700.2666666666667" y="476.93333333333334"/>
      <point x="644.15" y="416.05"/>
    </contour>
    <contour>
      <point x="816.1833333333334" y="447.3833333333333" type="line"/>
      <point x="675.75" y="320.25" type="line"/>
      <point x="872.1" y="104.96666666666667" type="line"/>
      <point x="1015.3" y="227.33333333333334" type="line"/>
    </contour>
    <contour>
      <point x="401.8" y="320.25" type="line"/>
      <point x="265.75" y="449.3833333333333" type="line"/>
      <point x="63.25" y="227.33333333333334" type="line"/>
      <point x="206.06666666666666" y="104.96666666666667" type="line"/>
    </contour>
    <contour>
      <point x="252.06666666666666" y="788.1666666666666" type="line"/>
      <point x="398.03333333333336" y="908.7666666666667" type="line"/>
      <point x="205.45" y="1119.9" type="line"/>
      <point x="63.25" y="996.9166666666666" type="line"/>
    </contour>
    <contour>
      <point x="675.75" y="903.0" type="line"/>
      <point x="814.0333333333333" y="774.1" type="line"/>
      <point x="1014.3" y="996.9166666666666" type="line"/>
      <point x="872.1" y="1119.9" type="line"/>
    </contour>
  </outline>
</glyph>
<glyph name="yen" format="2">
  <advance width="1157.15"/>
  <unicode hex="00A5"/>
  <anchor x="577.65" y="0.0" name="bottom"/>
  <anchor x="577.65" y="1278.0" name="top"/>
  <anchor x="25.55" y="1278.0" name="topleft"/>
  <outline>
    <contour>
      <point x="650.9833333333333" y="522.9666666666667" type="line"/>
      <point x="1039.75" y="522.9666666666667" type="line"/>
      <point x="1054.1333333333334" y="685.8333333333334" type="line"/>
      <point x="692.5" y="685.8333333333334" type="line"/>
    </contour>
    <contour>
      <point x="121.16666666666667" y="391.9" type="line"/>
      <point x="106.4" y="229.65" type="line"/>
      <point x="1039.75" y="229.65" type="line"/>
      <point x="1054.1333333333334" y="391.9" type="line"/>
    </contour>
    <contour>
      <point x="460.26666666666665" y="685.8333333333334" type="line"/>
      <point x="121.16666666666667" y="685.8333333333334" type="line"/>
      <point x="106.4" y="522.9666666666667" type="line"/>
      <point x="503.1666666666667" y="522.9666666666667" type="line"/>
    </contour>
    <component base="Y" xOffset="5.55"/>
  </outline>
</glyph>
<glyph name="brokenbar" format="2">
  <advance width="512.0166666666667"/>
  <unicode hex="00A6"/>
  <outline>
    <contour>
      <point x="364.1166666666667" y="583.9333333333333" type="line"/>
      <point x="364.1166666666667" y="1421.0" type="line"/>
      <point x="147.9" y="1421.0" type="line"/>
      <point x="147.9" y="583.9333333333333" type="line"/>
    </contour>
    <contour>
      <point x="364.1166666666667" y="-424.71666666666664" type="line"/>
      <point x="364.1166666666667" y="420.65" type="line"/>
      <point x="147.9" y="420.65" type="line"/>
      <point x="147.9" y="-424.71666666666664" type="line"/>
    </contour>
  </outline>
</glyph>
<glyph name="section" format="2">
  <advance width="968.7166666666667"/>
  <unicode hex="00A7"/>
  <outline>
    <contour>
      <point x="548.9333333333333" y="446.53333333333336" type="curve"/>
      <point x="702.0" y="372.51666666666665" type="line"/>
      <point x="701.0" y="420.4666666666667" type="line"/>
      <point x="813.15" y="437.0833333333333"/>
      <point x="881.8333333333334" y="514.0166666666667"/>
      <point x="881.8333333333334" y="621.4833333333333" type="curve" smooth="yes"/>
      <point x="881.8333333333334" y="629.0166666666667" type="line" smooth="yes"/>
      <point x="881.8333333333334" y="785.4166666666666"/>
      <point x="786.85" y="838.9666666666667"/>
      <point x="557.5666666666667" y="893.1333333333333" type="curve" smooth="yes"/>
      <point x="371.5" y="936.9"/>
      <point x="333.23333333333335" y="961.3833333333333"/>
      <point x="333.23333333333335" y="1014.9666666666667" type="curve" smooth="yes"/>
      <point x="333.23333333333335" y="1021.5166666666667" type="line" smooth="yes"/>
      <point x="333.23333333333335" y="1072.3333333333333"/>
      <point x="373.5" y="1101.9"/>
      <point x="501.4666666666667" y="1101.9" type="curve" smooth="yes"/>
      <point x="633.7166666666667" y="1101.9"/>
      <point x="749.55" y="1067.9666666666667"/>
      <point x="841.2333333333333" y="1023.4166666666666" type="curve"/>
      <point x="819.0166666666667" y="1226.2833333333333" type="line"/>
      <point x="740.4166666666666" y="1267.3666666666666"/>
      <point x="622.5833333333334" y="1303.3"/>
      <point x="471.5" y="1303.3" type="curve" smooth="yes"/>
      <point x="215.08333333333334" y="1303.3"/>
      <point x="83.88333333333333" y="1212.0"/>
      <point x="83.88333333333333" y="1030.1166666666666" type="curve" smooth="yes"/>
      <point x="83.88333333333333" y="1020.2666666666667" type="line" smooth="yes"/>
      <point x="83.88333333333333" y="868.9166666666666"/>
      <point x="165.95" y="784.45"/>
      <point x="411.48333333333335" y="730.5333333333333" type="curve" smooth="yes"/>
      <point x="593.15" y="690.8333333333334"/>
      <point x="645.7666666666667" y="664.4333333333333"/>
      <point x="645.7666666666667" y="574.6166666666667" type="curve" smooth="yes"/>
      <point x="645.7666666666667" y="568.7666666666667" type="line" smooth="yes"/>
      <point x="645.7666666666667" y="513.5833333333334"/>
      <point x="614.05" y="468.23333333333335"/>
    </contour>
    <contour>
      <point x="413.55" y="747.6166666666667" type="curve"/>
      <point x="259.1166666666667" y="806.65" type="line"/>
      <point x="260.1166666666667" y="766.8333333333334" type="line"/>
      <point x="150.48333333333332" y="743.2833333333333"/>
      <point x="84.26666666666667" y="676.1333333333333"/>
      <point x="84.26666666666667" y="568.5833333333334" type="curve" smooth="yes"/>
      <point x="84.26666666666667" y="560.05" type="line" smooth="yes"/>
      <point x="84.26666666666667" y="420.51666666666665"/>
      <point x="172.95" y="354.65"/>
      <point x="403.43333333333334" y="295.18333333333334" type="curve" smooth="yes"/>
      <point x="583.9333333333333" y="248.86666666666667"/>
      <point x="629.8" y="228.76666666666668"/>
      <point x="629.8" y="168.18333333333334" type="curve" smooth="yes"/>
      <point x="629.8" y="161.25" type="line" smooth="yes"/>
      <point x="629.8" y="103.43333333333334"/>
      <point x="575.45" y="74.01666666666668"/>
      <point x="450.01666666666665" y="74.01666666666668" type="curve" smooth="yes"/>
      <point x="306.0833333333333" y="74.01666666666668"/>
      <point x="185.48333333333332" y="115.25"/>
      <point x="86.56666666666666" y="161.8" type="curve"/>
      <point x="108.78333333333333" y="-58.983333333333334" type="line"/>
      <point x="192.0" y="-97.6"/>
      <point x="312.06666666666666" y="-133.53333333333333"/>
      <point x="467.53333333333336" y="-133.53333333333333" type="curve" smooth="yes"/>
      <point x="746.0833333333334" y="-133.53333333333333"/>
      <point x="881.8333333333334" y="-33.63333333333333"/>
      <point x="881.8333333333334" y="156.25" type="curve" smooth="yes"/>
      <point x="881.8333333333334" y="168.41666666666666" type="line" smooth="yes"/>
      <point x="881.8333333333334" y="337.9166666666667"/>
      <point x="787.6166666666667" y="400.23333333333335"/>
      <point x="545.3" y="457.78333333333336" type="curve" smooth="yes"/>
      <point x="364.2" y="500.95"/>
      <point x="317.65" y="536.8"/>
      <point x="317.65" y="621.0" type="curve" smooth="yes"/>
      <point x="317.65" y="628.0833333333334" type="line"/>
      <point x="317.65" y="684.8166666666667"/>
      <point x="350.6" y="725.9166666666666"/>
    </contour>
  </outline>
</glyph>
<glyph name="copyright" format="2">
  <advance width="1412.1833333333334"/>
  <unicode hex="00A9"/>
  <outline>
    <contour>
      <point x="705.9" y="-28.683333333333334" type="curve" smooth="yes"/>
      <point x="1103.2333333333333" y="-28.683333333333334"/>
      <point x="1325.6833333333334" y="189.76666666666668"/>
      <point x="1325.6833333333334" y="570.1333333333333" type="curve" smooth="yes"/>
      <point x="1325.6833333333334" y="714.25" type="line" smooth="yes"/>
      <point x="1325.6833333333334" y="1090.0833333333333"/>
      <point x="1103.2333333333333" y="1305.15"/>
      <point x="705.9" y="1305.15" type="curve" smooth="yes"/>
      <point x="307.95" y="1305.15"/>
      <point x="86.5" y="1090.0833333333333"/>
      <point x="86.5" y="714.25" type="curve" smooth="yes"/>
      <point x="86.5" y="570.1333333333333" type="line" smooth="yes"/>
      <point x="86.5" y="189.76666666666668"/>
      <point x="307.95" y="-28.683333333333334"/>
    </contour>
    <contour>
      <point x="747.05" y="308.7" type="curve" smooth="yes"/>
      <point x="828.8333333333334" y="308.7"/>
      <point x="893.9833333333333" y="330.8666666666667"/>
      <point x="936.2833333333333" y="356.95" type="curve"/>
      <point x="948.9666666666667" y="502.0833333333333" type="line"/>
      <point x="905.35" y="474.53333333333336"/>
      <point x="854.8" y="454.3666666666667"/>
      <point x="786.4666666666667" y="454.3666666666667" type="curve" smooth="yes"/>
      <point x="680.9" y="454.3666666666667"/>
      <point x="630.5" y="510.23333333333335"/>
      <point x="630.5" y="610.35" type="curve" smooth="yes"/>
      <point x="630.5" y="674.7333333333333" type="line" smooth="yes"/>
      <point x="630.5" y="773.4666666666667"/>
      <point x="676.75" y="828.3333333333334"/>
      <point x="781.7" y="828.3333333333334" type="curve" smooth="yes"/>
      <point x="850.4166666666666" y="828.3333333333334"/>
      <point x="900.7333333333333" y="807.4"/>
      <point x="943.5833333333334" y="780.2333333333333" type="curve"/>
      <point x="929.9" y="923.6" type="line"/>
      <point x="889.6" y="949.0666666666667"/>
      <point x="826.2166666666667" y="970.2333333333333"/>
      <point x="746.6666666666666" y="970.2333333333333" type="curve" smooth="yes"/>
      <point x="552.0" y="970.2333333333333"/>
      <point x="458.93333333333334" y="862.6333333333333"/>
      <point x="458.93333333333334" y="674.0333333333333" type="curve" smooth="yes"/>
      <point x="458.93333333333334" y="607.6666666666666" type="line" smooth="yes"/>
      <point x="458.93333333333334" y="417.3"/>
      <point x="551.0" y="308.7"/>
    </contour>
    <contour>
      <point x="705.9" y="112.6" type="curve" smooth="yes"/>
      <point x="422.03333333333336" y="112.6"/>
      <point x="254.53333333333333" y="275.4666666666667"/>
      <point x="254.53333333333333" y="561.6666666666666" type="curve" smooth="yes"/>
      <point x="254.53333333333333" y="723.1" type="line" smooth="yes"/>
      <point x="254.53333333333333" y="1004.7666666666667"/>
      <point x="422.03333333333336" y="1163.8666666666666"/>
      <point x="705.9" y="1163.8666666666666" type="curve" smooth="yes"/>
      <point x="989.15" y="1163.8666666666666"/>
      <point x="1157.65" y="1004.7666666666667"/>
      <point x="1157.65" y="723.1" type="curve" smooth="yes"/>
      <point x="1157.65" y="561.6666666666666" type="line" smooth="yes"/>
      <point x="1157.65" y="275.4666666666667"/>
      <point x="989.15" y="112.6"/>
    </contour>
  </outline>
</glyph>
<glyph name="ordfeminine" format="2">
  <advance width="669.9833333333333"/>
  <unicode hex="00AA"/>
  <outline>
    <contour>
      <point x="421.21666666666664" y="640.85" type="line"/>
      <point x="596.6333333333333" y="640.85" type="line"/>
      <point x="596.6333333333333" y="1037.6666666666667" type="line" smooth="yes"/>
      <point x="596.6333333333333" y="1185.0166666666667"/>
      <point x="532.1833333333333" y="1291.6166666666666"/>
      <point x="327.15" y="1291.6166666666666" type="curve" smooth="yes"/>
      <point x="229.0" y="1291.6166666666666"/>
      <point x="148.93333333333334" y="1264.5333333333333"/>
      <point x="92.63333333333333" y="1234.6833333333334" type="curve"/>
      <point x="77.56666666666666" y="1092.0666666666666" type="line"/>
      <point x="140.25" y="1122.3833333333334"/>
      <point x="214.01666666666668" y="1150.3166666666666"/>
      <point x="296.1" y="1150.3166666666666" type="curve" smooth="yes"/>
      <point x="391.2" y="1150.3166666666666"/>
      <point x="424.45" y="1113.8333333333333"/>
      <point x="424.45" y="1045.65" type="curve"/>
      <point x="424.45" y="1002.5333333333333" type="line"/>
      <point x="424.45" y="799.4666666666667" type="line"/>
      <point x="427.6" y="790.3833333333333" type="line"/>
    </contour>
    <contour>
      <point x="236.58333333333334" y="627.0833333333334" type="curve" smooth="yes"/>
      <point x="352.2833333333333" y="627.0833333333334"/>
      <point x="399.2833333333333" y="683.2333333333333"/>
      <point x="420.21666666666664" y="760.15" type="curve"/>
      <point x="448.81666666666666" y="760.15" type="line"/>
      <point x="426.68333333333334" y="848.6333333333333" type="line"/>
      <point x="412.3666666666667" y="800.05"/>
      <point x="367.6333333333333" y="762.8666666666667"/>
      <point x="305.6666666666667" y="762.8666666666667" type="curve" smooth="yes"/>
      <point x="248.4" y="762.8666666666667"/>
      <point x="223.91666666666666" y="790.0333333333333"/>
      <point x="223.91666666666666" y="833.9833333333333" type="curve" smooth="yes"/>
      <point x="223.91666666666666" y="841.9166666666666" type="line" smooth="yes"/>
      <point x="223.91666666666666" y="887.25"/>
      <point x="249.16666666666666" y="907.8"/>
      <point x="314.05" y="918.2666666666667" type="curve" smooth="yes"/>
      <point x="451.6" y="939.8166666666667" type="line"/>
      <point x="440.68333333333334" y="1052.85" type="line"/>
      <point x="273.0833333333333" y="1027.9166666666667" type="line" smooth="yes"/>
      <point x="117.33333333333333" y="1004.5333333333333"/>
      <point x="48.65" y="950.6833333333333"/>
      <point x="48.65" y="829.85" type="curve" smooth="yes"/>
      <point x="48.65" y="814.0833333333334" type="line" smooth="yes"/>
      <point x="48.65" y="694.0833333333334"/>
      <point x="114.11666666666666" y="627.0833333333334"/>
    </contour>
  </outline>
</glyph>
<glyph name="logicalnot" format="2">
  <advance width="1019.9166666666666"/>
  <unicode hex="00AC"/>
  <outline>
    <contour>
      <point x="919.95" y="192.63333333333333" type="line"/>
      <point x="919.95" y="646.1333333333333" type="line"/>
      <point x="703.7333333333333" y="646.1333333333333" type="line"/>
      <point x="703.7333333333333" y="192.63333333333333" type="line"/>
    </contour>
    <contour>
      <point x="93.25" y="518.0833333333334" type="line"/>
      <point x="919.95" y="518.0833333333334" type="line"/>
      <point x="919.95" y="722.2333333333333" type="line"/>
      <point x="93.25" y="722.2333333333333" type="line"/>
    </contour>
  </outline>
</glyph>
<glyph name="registered" format="2">
  <advance width="838.75"/>
  <unicode hex="00AE"/>
  <outline>
    <contour>
      <point x="419.68333333333334" y="521.9666666666667" type="curve" smooth="yes"/>
      <point x="654.5" y="521.9666666666667"/>
      <point x="787.4833333333333" y="651.8"/>
      <point x="787.4833333333333" y="871.7833333333333" type="curve" smooth="yes"/>
      <point x="787.4833333333333" y="947.5666666666667" type="line" smooth="yes"/>
      <point x="787.4833333333333" y="1167.55"/>
      <point x="654.5" y="1297.7666666666667"/>
      <point x="419.68333333333334" y="1297.7666666666667" type="curve" smooth="yes"/>
      <point x="183.86666666666667" y="1297.7666666666667"/>
      <point x="51.266666666666666" y="1167.55"/>
      <point x="51.266666666666666" y="947.5666666666667" type="curve" smooth="yes"/>
      <point x="51.266666666666666" y="871.7833333333333" type="line" smooth="yes"/>
      <point x="51.266666666666666" y="651.8"/>
      <point x="183.86666666666667" y="521.9666666666667"/>
    </contour>
    <contour>
      <point x="419.68333333333334" y="611.9166666666666" type="curve" smooth="yes"/>
      <point x="244.98333333333332" y="611.9166666666666"/>
      <point x="156.05" y="701.0"/>
      <point x="156.05" y="868.0166666666667" type="curve" smooth="yes"/>
      <point x="156.05" y="952.7166666666667" type="line" smooth="yes"/>
      <point x="156.05" y="1118.7333333333333"/>
      <point x="244.98333333333332" y="1207.4333333333334"/>
      <point x="419.68333333333334" y="1207.4333333333334" type="curve" smooth="yes"/>
      <point x="593.7666666666667" y="1207.4333333333334"/>
      <point x="682.0833333333334" y="1118.7333333333333"/>
      <point x="682.0833333333334" y="952.7166666666667" type="curve" smooth="yes"/>
      <point x="682.0833333333334" y="868.0166666666667" type="line" smooth="yes"/>
      <point x="682.0833333333334" y="701.0"/>
      <point x="593.7666666666667" y="611.9166666666666"/>
    </contour>
    <contour>
      <point x="489.3333333333333" y="728.55" type="line"/>
      <point x="588.4333333333333" y="728.55" type="line"/>
      <point x="576.2" y="804.9333333333333" type="line" smooth="yes"/>
      <point x="565.5833333333334" y="870.7"/>
      <point x="546.4333333333333" y="899.55"/>
      <point x="479.3666666666667" y="905.9333333333333" type="curve"/>
      <point x="495.1333333333333" y="894.6333333333333" type="line"/>
      <point x="495.1333333333333" y="907.3166666666667" type="line"/>
      <point x="553.2833333333333" y="912.1666666666666"/>
      <point x="580.4333333333333" y="942.7833333333333"/>
      <point x="580.4333333333333" y="994.9333333333333" type="curve" smooth="yes"/>
      <point x="580.4333333333333" y="1001.1666666666666" type="line" smooth="yes"/>
      <point x="580.4333333333333" y="1072.6333333333334"/>
      <point x="538.5166666666667" y="1110.4"/>
      <point x="445.3" y="1110.4" type="curve" smooth="yes"/>
      <point x="341.9" y="1110.4" type="line"/>
      <point x="341.9" y="1034.2833333333333" type="line"/>
      <point x="431.23333333333335" y="1034.2833333333333" type="line" smooth="yes"/>
      <point x="468.6333333333333" y="1034.2833333333333"/>
      <point x="484.1" y="1016.35"/>
      <point x="484.1" y="984.8" type="curve" smooth="yes"/>
      <point x="484.1" y="976.5666666666667" type="line" smooth="yes"/>
      <point x="484.1" y="943.7833333333333"/>
      <point x="468.01666666666665" y="926.4666666666667"/>
      <point x="430.6166666666667" y="926.4666666666667" type="curve" smooth="yes"/>
      <point x="342.51666666666665" y="926.4666666666667" type="line"/>
      <point x="342.51666666666665" y="852.5" type="line"/>
      <point x="417.76666666666665" y="852.1166666666667" type="line" smooth="yes"/>
      <point x="458.7" y="851.7333333333333"/>
      <point x="474.4" y="836.65"/>
      <point x="480.8666666666667" y="790.4833333333333" type="curve" smooth="yes"/>
    </contour>
    <contour>
      <point x="277.78333333333336" y="728.55" type="line"/>
      <point x="373.1166666666667" y="728.55" type="line"/>
      <point x="373.1166666666667" y="869.4166666666666" type="line"/>
      <point x="372.73333333333335" y="900.6333333333333" type="line"/>
      <point x="372.73333333333335" y="1110.4" type="line"/>
      <point x="277.78333333333336" y="1110.4" type="line"/>
    </contour>
  </outline>
</glyph>
<glyph name="degree" format="2">
  <advance width="669.1166666666667"/>
  <unicode hex="00B0"/>
  <outline>
    <contour>
      <point x="334.75" y="756.45" type="curve" smooth="yes"/>
      <point x="508.8666666666667" y="756.45"/>
      <point x="605.2333333333333" y="857.2833333333333"/>
      <point x="605.2333333333333" y="1025.1833333333334" type="curve" smooth="yes"/>
      <point x="605.2333333333333" y="1038.95" type="line" smooth="yes"/>
      <point x="605.2333333333333" y="1206.2333333333333"/>
      <point x="508.8666666666667" y="1307.0666666666666"/>
      <point x="334.75" y="1307.0666666666666" type="curve" smooth="yes"/>
      <point x="160.63333333333333" y="1307.0666666666666"/>
      <point x="63.88333333333333" y="1206.2333333333333"/>
      <point x="63.88333333333333" y="1038.95" type="curve" smooth="yes"/>
      <point x="63.88333333333333" y="1025.1833333333334" type="line" smooth="yes"/>
      <point x="63.88333333333333" y="857.2833333333333"/>
      <point x="160.63333333333333" y="756.45"/>
    </contour>
    <contour>
      <point x="334.75" y="902.85" type="curve" smooth="yes"/>
      <point x="269.1166666666667" y="902.85"/>
      <point x="234.41666666666666" y="947.0166666666667"/>
      <point x="234.41666666666666" y="1023.8" type="curve" smooth="yes"/>
      <point x="234.41666666666666" y="1040.1" type="line" smooth="yes"/>
      <point x="234.41666666666666" y="1116.1166666666666"/>
      <point x="269.1166666666667" y="1160.6666666666667"/>
      <point x="334.75" y="1160.6666666666667" type="curve" smooth="yes"/>
      <point x="401.0" y="1160.6666666666667"/>
      <point x="435.0833333333333" y="1116.1166666666666"/>
      <point x="435.0833333333333" y="1040.1" type="curve" smooth="yes"/>
      <point x="435.0833333333333" y="1023.8" type="line" smooth="yes"/>
      <point x="435.0833333333333" y="947.0166666666667"/>
      <point x="401.0" y="902.85"/>
    </contour>
  </outline>
</glyph>
<glyph name="plusminus" format="2">
  <advance width="1034.0666666666666"/>
  <unicode hex="00B1"/>
  <outline>
    <contour>
      <point x="104.18333333333334" y="100.48333333333333" type="line"/>
      <point x="929.8833333333333" y="100.48333333333333" type="line"/>
      <point x="929.8833333333333" y="303.25" type="line"/>
      <point x="104.18333333333334" y="303.25" type="line"/>
    </contour>
    <contour>
      <point x="625.45" y="409.45" type="line"/>
      <point x="625.45" y="1107.5833333333333" type="line"/>
      <point x="408.6166666666667" y="1107.5833333333333" type="line"/>
      <point x="408.6166666666667" y="409.45" type="line"/>
    </contour>
    <contour>
      <point x="104.18333333333334" y="656.75" type="line"/>
      <point x="929.8833333333333" y="656.75" type="line"/>
      <point x="929.8833333333333" y="860.2833333333333" type="line"/>
      <point x="104.18333333333334" y="860.2833333333333" type="line"/>
    </contour>
  </outline>
</glyph>
<glyph name="twosuperior" format="2">
  <advance width="598.3666666666667"/>
  <unicode hex="00B2"/>
  <outline>
    <contour>
      <point x="33.166666666666664" y="726.0" type="line"/>
      <point x="561.7333333333333" y="726.0" type="line"/>
      <point x="561.7333333333333" y="873.3" type="line"/>
      <point x="189.86666666666667" y="873.3" type="line"/>
      <point x="272.5" y="848.3833333333333" type="line"/>
      <point x="272.5" y="879.9166666666666" type="line"/>
      <point x="382.3833333333333" y="958.65" type="line" smooth="yes"/>
      <point x="494.7" y="1039.9833333333333"/>
      <point x="553.8833333333333" y="1105.7666666666667"/>
      <point x="553.8833333333333" y="1209.55" type="curve" smooth="yes"/>
      <point x="553.8833333333333" y="1219.0166666666667" type="line" smooth="yes"/>
      <point x="553.8833333333333" y="1344.0833333333333"/>
      <point x="461.2" y="1420.9166666666667"/>
      <point x="285.3" y="1420.9166666666667" type="curve" smooth="yes"/>
      <point x="195.08333333333334" y="1420.9166666666667"/>
      <point x="108.08333333333333" y="1398.3"/>
      <point x="55.083333333333336" y="1371.0666666666666" type="curve"/>
      <point x="39.63333333333333" y="1222.5333333333333" type="line"/>
      <point x="97.18333333333334" y="1246.85"/>
      <point x="170.01666666666668" y="1270.7"/>
      <point x="249.26666666666665" y="1270.7" type="curve" smooth="yes"/>
      <point x="337.51666666666665" y="1270.7"/>
      <point x="369.3833333333333" y="1242.5333333333333"/>
      <point x="369.3833333333333" y="1194.5833333333333" type="curve" smooth="yes"/>
      <point x="369.3833333333333" y="1189.5" type="line" smooth="yes"/>
      <point x="369.3833333333333" y="1132.1666666666667"/>
      <point x="312.8333333333333" y="1087.9"/>
      <point x="228.5" y="1023.95" type="curve" smooth="yes"/>
      <point x="33.166666666666664" y="876.45" type="line"/>
    </contour>
  </outline>
</glyph>
<glyph name="threesuperior" format="2">
  <advance width="620.8333333333334"/>
  <unicode hex="00B3"/>
  <outline>
    <contour>
      <point x="277.7" y="708.4666666666667" type="curve" smooth="yes"/>
      <point x="484.1333333333333" y="708.4666666666667"/>
      <point x="579.0333333333333" y="789.4"/>
      <point x="579.0333333333333" y="909.4666666666667" type="curve" smooth="yes"/>
      <point x="579.0333333333333" y="918.85" type="line" smooth="yes"/>
      <point x="579.0333333333333" y="1010.0833333333334"/>
      <point x="534.0333333333333" y="1062.7666666666667"/>
      <point x="427.68333333333334" y="1079.2333333333333" type="curve"/>
      <point x="437.28333333333336" y="1063.6333333333334" type="line"/>
      <point x="437.28333333333336" y="1084.2333333333333" type="line"/>
      <point x="531.2666666666667" y="1098.4666666666667"/>
      <point x="574.4166666666666" y="1151.0"/>
      <point x="574.4166666666666" y="1230.7666666666667" type="curve" smooth="yes"/>
      <point x="574.4166666666666" y="1238.5333333333333" type="line" smooth="yes"/>
      <point x="574.4166666666666" y="1356.3"/>
      <point x="479.81666666666666" y="1420.3"/>
      <point x="288.76666666666665" y="1420.3" type="curve" smooth="yes"/>
      <point x="190.3" y="1420.3"/>
      <point x="109.76666666666667" y="1399.6"/>
      <point x="54.7" y="1374.5166666666667" type="curve"/>
      <point x="39.016666666666666" y="1234.75" type="line"/>
      <point x="91.86666666666666" y="1253.9166666666667"/>
      <point x="170.25" y="1276.2333333333333"/>
      <point x="260.3333333333333" y="1276.2333333333333" type="curve" smooth="yes"/>
      <point x="356.76666666666665" y="1276.2333333333333"/>
      <point x="387.46666666666664" y="1252.75"/>
      <point x="387.46666666666664" y="1209.95" type="curve" smooth="yes"/>
      <point x="387.46666666666664" y="1205.4833333333333" type="line" smooth="yes"/>
      <point x="387.46666666666664" y="1161.0666666666666"/>
      <point x="353.21666666666664" y="1139.2"/>
      <point x="266.01666666666665" y="1137.2" type="curve" smooth="yes"/>
      <point x="130.95" y="1133.8166666666666" type="line"/>
      <point x="130.95" y="1006.35" type="line"/>
      <point x="269.46666666666664" y="1002.9666666666667" type="line" smooth="yes"/>
      <point x="360.8333333333333" y="1000.9666666666667"/>
      <point x="389.31666666666666" y="976.4833333333333"/>
      <point x="389.31666666666666" y="933.2166666666667" type="curve" smooth="yes"/>
      <point x="389.31666666666666" y="928.9833333333333" type="line" smooth="yes"/>
      <point x="389.31666666666666" y="884.95"/>
      <point x="359.76666666666665" y="854.3833333333333"/>
      <point x="249.8" y="854.3833333333333" type="curve" smooth="yes"/>
      <point x="168.48333333333332" y="854.3833333333333"/>
      <point x="91.78333333333333" y="874.3166666666667"/>
      <point x="34.63333333333333" y="895.6333333333333" type="curve"/>
      <point x="50.31666666666666" y="747.25" type="line"/>
      <point x="97.85" y="728.4"/>
      <point x="183.46666666666667" y="708.4666666666667"/>
    </contour>
  </outline>
</glyph>
<glyph name="micro" format="2">
  <advance width="1119.8333333333333"/>
  <unicode hex="00B5"/>
  <outline>
    <contour>
      <point x="1008.1" y="980.6833333333333" type="line"/>
      <point x="751.5333333333333" y="980.6833333333333" type="line"/>
      <point x="751.5333333333333" y="259.4" type="line"/>
      <point x="768.35" y="241.65" type="line"/>
      <point x="759.2" y="0.0" type="line"/>
      <point x="1008.1" y="0.0" type="line"/>
    </contour>
    <contour>
      <point x="368.3" y="398.8" type="curve" smooth="yes"/>
      <point x="368.3" y="980.6833333333333" type="line"/>
      <point x="111.73333333333333" y="980.6833333333333" type="line"/>
      <point x="111.73333333333333" y="-344.0" type="line"/>
      <point x="362.3833333333333" y="-344.0" type="line"/>
      <point x="362.3833333333333" y="-243.91666666666666" type="line"/>
      <point x="346.55" y="97.61666666666666" type="line"/>
      <point x="353.78333333333336" y="97.61666666666666" type="line"/>
      <point x="384.3333333333333" y="21.716666666666665"/>
      <point x="439.98333333333335" y="-21.0"/>
      <point x="540.1166666666667" y="-21.0" type="curve" smooth="yes"/>
      <point x="668.6166666666667" y="-21.0"/>
      <point x="729.5" y="61.083333333333336"/>
      <point x="755.8166666666667" y="202.13333333333333" type="curve"/>
      <point x="801.8" y="202.13333333333333" type="line"/>
      <point x="756.7666666666667" y="348.5833333333333" type="line"/>
      <point x="732.5333333333333" y="259.81666666666666"/>
      <point x="662.95" y="190.91666666666669"/>
      <point x="553.95" y="190.91666666666669" type="curve" smooth="yes"/>
      <point x="422.26666666666665" y="190.91666666666669"/>
      <point x="368.3" y="268.03333333333336"/>
    </contour>
  </outline>
</glyph>
<glyph name="paragraph" format="2">
  <advance width="793.6166666666667"/>
  <unicode hex="00B6"/>
  <outline>
    <contour>
      <point x="378.5833333333333" y="646.95" type="curve"/>
      <point x="474.03333333333336" y="646.95" type="line"/>
      <point x="473.4166666666667" y="1278.0" type="line"/>
      <point x="378.96666666666664" y="1278.0" type="line" smooth="yes"/>
      <point x="163.78333333333333" y="1278.0"/>
      <point x="68.33333333333333" y="1170.85"/>
      <point x="68.33333333333333" y="981.4166666666666" type="curve" smooth="yes"/>
      <point x="68.33333333333333" y="944.15" type="line" smooth="yes"/>
      <point x="68.33333333333333" y="754.1"/>
      <point x="163.78333333333333" y="646.95"/>
    </contour>
    <contour>
      <point x="666.1833333333334" y="0.0" type="line"/>
      <point x="666.1833333333334" y="1278.0" type="line"/>
      <point x="411.3833333333333" y="1278.0" type="line"/>
      <point x="411.3833333333333" y="0.0" type="line"/>
    </contour>
  </outline>
</glyph>
<glyph name="onesuperior" format="2">
  <advance width="438.2"/>
  <unicode hex="00B9"/>
  <outline>
    <contour>
      <point x="194.2" y="726.0" type="line"/>
      <point x="369.1666666666667" y="726.0" type="line"/>
      <point x="369.1666666666667" y="1404.3833333333334" type="line"/>
      <point x="210.78333333333333" y="1404.3833333333334" type="line"/>
      <point x="29.7" y="1311.5" type="line"/>
      <point x="23.55" y="1144.75" type="line"/>
      <point x="185.43333333333334" y="1226.7166666666667" type="line"/>
      <point x="194.2" y="1226.7166666666667" type="line"/>
    </contour>
  </outline>
</glyph>
<glyph name="ordmasculine" format="2">
  <advance width="700.9"/>
  <unicode hex="00BA"/>
  <outline>
    <contour>
      <point x="350.06666666666666" y="626.3166666666667" type="curve" smooth="yes"/>
      <point x="544.65" y="626.3166666666667"/>
      <point x="648.8666666666667" y="731.6166666666667"/>
      <point x="648.8666666666667" y="925.6833333333333" type="curve" smooth="yes"/>
      <point x="648.8666666666667" y="994.6333333333333" type="line" smooth="yes"/>
      <point x="648.8666666666667" y="1187.3166666666666"/>
      <point x="545.65" y="1293.3833333333334"/>
      <point x="350.06666666666666" y="1293.3833333333334" type="curve" smooth="yes"/>
      <point x="156.25" y="1293.3833333333334"/>
      <point x="52.03333333333333" y="1187.7"/>
      <point x="52.03333333333333" y="994.6333333333333" type="curve" smooth="yes"/>
      <point x="52.03333333333333" y="925.6833333333333" type="line" smooth="yes"/>
      <point x="52.03333333333333" y="731.6166666666667"/>
      <point x="156.25" y="626.3166666666667"/>
    </contour>
    <contour>
      <point x="350.45" y="772.6833333333333" type="curve" smooth="yes"/>
      <point x="273.4" y="772.6833333333333"/>
      <point x="234.83333333333334" y="822.8666666666667"/>
      <point x="234.83333333333334" y="915.2333333333333" type="curve" smooth="yes"/>
      <point x="234.83333333333334" y="1006.0833333333334" type="line" smooth="yes"/>
      <point x="234.83333333333334" y="1097.45"/>
      <point x="273.4" y="1147.0166666666667"/>
      <point x="350.45" y="1147.0166666666667" type="curve" smooth="yes"/>
      <point x="427.5" y="1147.0166666666667"/>
      <point x="466.06666666666666" y="1097.45"/>
      <point x="466.06666666666666" y="1006.0833333333334" type="curve" smooth="yes"/>
      <point x="466.06666666666666" y="915.2333333333333" type="line" smooth="yes"/>
      <point x="466.06666666666666" y="822.25"/>
      <point x="426.8833333333333" y="772.6833333333333"/>
    </contour>
  </outline>
</glyph>
<glyph name="guillemetright" format="2">
  <advance width="1022.7666666666667"/>
  <unicode hex="00BB"/>
  <outline>
    <contour>
      <point x="299.46666666666664" y="489.6166666666667" type="line"/>
      <point x="27.2" y="82.63333333333333" type="line"/>
      <point x="270.18333333333334" y="82.63333333333333" type="line"/>
      <point x="531.45" y="468.76666666666665" type="line"/>
      <point x="531.45" y="515.45" type="line"/>
      <point x="270.18333333333334" y="893.2833333333333" type="line"/>
      <point x="27.2" y="893.2833333333333" type="line"/>
    </contour>
    <contour>
      <point x="739.9666666666667" y="489.6166666666667" type="line"/>
      <point x="467.7" y="82.63333333333333" type="line"/>
      <point x="710.6833333333334" y="82.63333333333333" type="line"/>
      <point x="971.95" y="468.76666666666665" type="line"/>
      <point x="971.95" y="515.45" type="line"/>
      <point x="710.6833333333334" y="893.2833333333333" type="line"/>
      <point x="467.7" y="893.2833333333333" type="line"/>
    </contour>
  </outline>
</glyph>
<glyph name="questiondown" format="2">
  <advance width="914.2666666666667"/>
  <unicode hex="00BF"/>
  <outline>
    <contour>
      <point x="661.3666666666667" y="580.8666666666667" type="line"/>
      <point x="531.95" y="556.25" type="line" smooth="yes"/>
      <point x="225.7" y="497.7"/>
      <point x="69.11666666666666" y="379.01666666666665"/>
      <point x="69.11666666666666" y="109.88333333333333" type="curve" smooth="yes"/>
      <point x="69.11666666666666" y="51.96666666666667" type="line" smooth="yes"/>
      <point x="69.11666666666666" y="-189.93333333333334"/>
      <point x="206.46666666666667" y="-322.6166666666667"/>
      <point x="494.26666666666665" y="-322.6166666666667" type="curve" smooth="yes"/>
      <point x="647.4333333333333" y="-322.6166666666667"/>
      <point x="774.5" y="-282.21666666666664"/>
      <point x="848.1833333333333" y="-244.66666666666666" type="curve"/>
      <point x="876.3166666666667" y="-22.666666666666664" type="line"/>
      <point x="776.7166666666667" y="-67.68333333333334"/>
      <point x="662.0833333333334" y="-103.4"/>
      <point x="542.1333333333333" y="-103.4" type="curve" smooth="yes"/>
      <point x="388.23333333333335" y="-103.4"/>
      <point x="330.98333333333335" y="-41.58333333333333"/>
      <point x="330.98333333333335" y="73.18333333333334" type="curve" smooth="yes"/>
      <point x="330.98333333333335" y="116.33333333333333" type="line" smooth="yes"/>
      <point x="330.98333333333335" y="238.05"/>
      <point x="392.56666666666666" y="304.31666666666666"/>
      <point x="570.2333333333333" y="341.18333333333334" type="curve" smooth="yes"/>
      <point x="661.3666666666667" y="359.8" type="line"/>
    </contour>
    <contour>
      <point x="557.9666666666667" y="1004.75" type="curve" smooth="yes"/>
      <point x="460.95" y="1004.75"/>
      <point x="414.51666666666665" y="950.55"/>
      <point x="414.51666666666665" y="858.3666666666667" type="curve" smooth="yes"/>
      <point x="414.51666666666665" y="847.9833333333333" type="line" smooth="yes"/>
      <point x="414.51666666666665" y="756.8"/>
      <point x="460.95" y="702.2166666666667"/>
      <point x="557.9666666666667" y="702.2166666666667" type="curve" smooth="yes"/>
      <point x="655.9833333333333" y="702.2166666666667"/>
      <point x="701.0333333333333" y="756.8"/>
      <point x="701.0333333333333" y="847.9833333333333" type="curve" smooth="yes"/>
      <point x="701.0333333333333" y="858.3666666666667" type="line" smooth="yes"/>
      <point x="701.0333333333333" y="950.55"/>
      <point x="655.9833333333333" y="1004.75"/>
    </contour>
  </outline>
</glyph>
